<svg xmlns="http://www.w3.org/2000/svg" width="290" height="400" viewBox="0 0 290 400"><defs><style>.cls-1,.cls-2,.cls-4{fill:#c7b299;}.cls-1,.cls-10{opacity:0.8;}.cls-12,.cls-3,.cls-6{stroke:#000;}.cls-12,.cls-3,.cls-6,.cls-7{stroke-miterlimit:10;}.cls-4{opacity:0.9;}.cls-5{fill:#dfebfb;}.cls-12,.cls-6{fill:none;}.cls-6{stroke-width:0.5px;}.cls-7{fill:#010102;stroke:#583413;stroke-width:2px;}.cls-8,.cls-9{fill:#fff;}.cls-8{opacity:0.96;}.cls-10,.cls-11{fill:#6148b0;}.cls-12{stroke-linecap:round;stroke-width:3px;}.cls-13{fill:#583413;}</style></defs><title>bartender</title><g id="Layer_6" data-name="Layer 6"><path class="cls-1" d="M11.05,262.94c-4.34,2.22-4.44,10.57-.24,18.65a27.67,27.67,0,0,0,5.3,7.2c2.11-7,4.52-14,6.53-20.94C18.77,263.43,14.22,261.31,11.05,262.94Z"/><path class="cls-2" d="M26.5,273.55a29.31,29.31,0,0,0-3.86-5.7c-2,7-4.42,13.95-6.53,20.94,3.51,3.38,7.36,4.84,10.15,3.41C30.59,290,30.7,281.63,26.5,273.55Z"/><path class="cls-3" d="M277.31,53.62c0-32.24-19.64-51.37-52.1-51.37l-71.9,1C109,3.28,90.79,27,90.79,70.56L81.41,239.25c0,6.83,1.46,4.14,8.34,4.14l25-2.07,37.51-2.07,31.78.82v0l48.45,1.25,31.26,9.31c6.88,0,24,2.69,24-4.14ZM180.92,184.91v0Z"/><path class="cls-4" d="M185.29,80.34C180.36,80,177.91,77,171,74.7c-9.38-3.11-16.81-18.21-18.75-12.42-1,3.1-3.73,15.06-8.34,18.62-10.13,7.84-18.75,5.18-24,3.11-2.54-1-10.42-15.52-12.51-14.49-12.21,6.07-4.17,46.62-4.17,70.38,0,42.41,38.09,83.48,80.75,83.82C183.26,176.22,184.29,128.12,185.29,80.34Zm-4.37,104.57v0Z"/><path class="cls-2" d="M250.21,74.7c-.93-2.42-6.06,3.44-8.33,2.06-4.41-2.65-24-10.34-24-17.59,0,0-3.12,5.18-11.46-1-2.17-1.62-1,12.42-3.13,14.49-.53.52-3.48,3.85-4.16,4.13-6.73,2.87-10.79,3.77-13.87,3.58-1,47.78-2,95.88-1.25,143.38h0v0h.52c42.88,0,70.85-33,70.85-75.55C255.42,124.89,255.42,88.15,250.21,74.7Z"/><path class="cls-5" d="M141,135.24c-1.84-10.68,1.36-19.74,8.12-26.16,7.65-7.26,11.39,11.07,10.28,26.16"/><path class="cls-5" d="M221.25,134.2c1.77-10.67-1.31-19.74-7.81-26.15-7.37-7.27-11,11.06-9.9,26.15"/><ellipse cx="211.66" cy="122.3" rx="3.65" ry="5.69"/><ellipse cx="152.27" cy="124.37" rx="3.65" ry="5.69"/><path class="cls-6" d="M192.38,152.83c0,2.29-3.5,4.14-7.81,4.14s-7.82-1.85-7.82-4.14"/><path class="cls-7" d="M214.27,184.91c0,5.18-11.9,19.67-26.58,19.67s-26.57-8.81-26.57-19.67"/><path class="cls-8" d="M161.12,178.71v6.2h19.8v-6.2Z"/><path class="cls-9" d="M180.92,178.71v6.2h33.35v-6.2Z"/><path class="cls-6" d="M210.89,172.78c2.47-1.47,6.15.13,8.22,3.56s1.74,7.41-.73,8.88"/><path class="cls-6" d="M165.24,174.85c-2.47-1.47-6.15.13-8.21,3.56s-1.75,7.41.72,8.88"/><path d="M217.39,41.06a47.08,47.08,0,0,0-.52,7,11.18,11.18,0,0,0-4.17-.79c-4.89,0-8.85,3-8.85,6.73a6,6,0,0,0,.05.73c-1.88.49-4,4.41-5.06,9.46a25.72,25.72,0,0,0-.54,5.87,73.5,73.5,0,0,0-1.64-8.24c-3.06-12.16-18.22-18.24-30.61-18.24s-22.46,6.58-22.46,14.69c0,.16,0,.32,0,.47a33.18,33.18,0,0,0-16.35-4c-13.52,0-24.49,7-24.49,15.71s11,15.71,24.49,15.71,24.5-7,24.5-15.71a10.3,10.3,0,0,0-.46-3c4.07,1.92,9.33,3.49,14.75,5.56,11.79,4.51,34.29,21.86,32.48-.76.32,1.66,1,2.75,1.86,2.94,2,.4,4.57-3.85,5.72-9.5a24,24,0,0,0,.49-6.79,10.42,10.42,0,0,0,6.1,1.86A10.54,10.54,0,0,0,218.56,59C226.17,81.85,257,81.22,257,60.72Z"/><path class="cls-10" d="M184.05,240.8v0H139.24a12.49,12.49,0,0,0-12.5,12.42V389.83a12.49,12.49,0,0,0,12.5,12.42h48.23C188.41,348.15,190.19,294.19,184.05,240.8Z"/><path class="cls-11" d="M239.27,240.8H184.05c6.14,53.39,4.36,107.35,3.42,161.45h51.8a12.5,12.5,0,0,0,12.51-12.42V253.22A12.5,12.5,0,0,0,239.27,240.8Z"/><path class="cls-10" d="M116.22,240.8h-2.51a13,13,0,0,0-13,12.94V314.8a13,13,0,0,0,13,12.94,13.28,13.28,0,0,0,3-.36C116.59,298.46,115.81,269.48,116.22,240.8Z"/><path class="cls-11" d="M116.22,240.8c-.41,28.68.37,57.66.47,86.58a13,13,0,0,0,10-12.58V253.4a.54.54,0,0,1,.12-.33C139.46,237.66,142,240.76,116.22,240.8Z"/><path class="cls-10" d="M46.31,282.44c-7.3-3.15-15-1.66-17.22,3.31s2,11.61,9.32,14.76L64.1,311.44c1.26-6.6,2.57-13.17,3.7-19.73Z"/><path class="cls-11" d="M103.2,317.72h0c2.18-5-2-11.61-9.32-14.76L67.8,291.71c-1.13,6.56-2.44,13.13-3.7,19.73l21.35,9.08C125.62,336.09,101,322.69,103.2,317.72Z"/><path class="cls-1" d="M184,240.4l-.75,0,.1,6.37-.1-6.37-16-.33,9.13,24.39L184,284.65C183.74,269.84,183.22,255.44,184,240.4Z"/><path class="cls-2" d="M205.58,240.84l-19.16-.39-2.4,0c-.8,15-.28,29.44-.06,44.25l1.56,4.17,1.94-4.64c-.68-14.49-1.75-29-3.41-43.38,1.66,14.42,2.73,28.89,3.41,43.38l8.09-19.35Z"/><path class="cls-2" d="M184.05,244.94h.45c-.15-1.38-.29-2.76-.45-4.14Z"/><path class="cls-2" d="M194,220.1h-9.91v20.7c.16,1.38.3,2.76.45,4.14h10.11a4,4,0,0,0,4-4v-16.2A4.66,4.66,0,0,0,194,220.1Z"/><path class="cls-1" d="M180.29,223.21h-5.62l1,16.56c0,1.82,4.17,1,4.7,1h3.64V223.21Z"/><path d="M190.3,305.74a4.39,4.39,0,0,0-2.2-3.78c.06,2.49.12,5,.16,7.48A4.39,4.39,0,0,0,190.3,305.74Z"/><path d="M185.87,301.34a4.4,4.4,0,1,0,2.39,8.1c0-2.5-.1-5-.16-7.48A4.44,4.44,0,0,0,185.87,301.34Z"/><path d="M185.87,321.45a4.4,4.4,0,1,0,2.58,8q0-3.57,0-7.15A4.47,4.47,0,0,0,185.87,321.45Z"/><path d="M190.3,325.85a4.4,4.4,0,0,0-1.88-3.59q0,3.58,0,7.15A4.36,4.36,0,0,0,190.3,325.85Z"/><path d="M190.3,345.12a4.39,4.39,0,0,0-1.88-3.59l-.06,7.23A4.39,4.39,0,0,0,190.3,345.12Z"/><path d="M185.87,340.72a4.4,4.4,0,1,0,2.49,8l.06-7.23A4.4,4.4,0,0,0,185.87,340.72Z"/><path d="M185.87,360a4.4,4.4,0,1,0,2.22,8.18l.12-7.5A4.36,4.36,0,0,0,185.87,360Z"/><path d="M190.3,364.39a4.36,4.36,0,0,0-2.09-3.72l-.12,7.5A4.36,4.36,0,0,0,190.3,364.39Z"/><path class="cls-9" d="M184.9,288.67l2.81,1.3c-.1-2.41-.2-4.83-.32-7.24Z"/><path class="cls-9" d="M206.13,240.59l-.93-.35-17.81,42.49c.12,2.41.22,4.83.32,7.24l7.8,3.61L210.17,249A6.72,6.72,0,0,0,206.13,240.59Z"/><path class="cls-9" d="M166.11,240.43a6.73,6.73,0,0,0-4.3,8.27l13.32,45,10.75-4.59-18.84-49Z"/><rect class="cls-11" x="249.69" y="245.98" width="23.97" height="154.2" rx="11.5"/><path class="cls-12" d="M197.07,108.85c0-4,7.11-12.42,14.59-12.42s15.39,10.49,15.63,14.49"/><path class="cls-12" d="M137.68,108.85c0-4,7.11-12.42,14.59-12.42s15.39,10.49,15.63,14.49"/><path class="cls-13" d="M196.39,200.7c2.87-5.69-5.73-8.54-12.17-8.54-3.86,0-2.15,2.55-2.15,5.69s2.24,5.69,5,5.69S195,203.51,196.39,200.7Z"/></g></svg>
