<svg xmlns="http://www.w3.org/2000/svg" width="75" height="280" viewBox="0 0 75 280"><defs><style>.cls-1,.cls-8{fill:#316b0e;}.cls-1{opacity:0.7;}.cls-2,.cls-3{fill:#583413;}.cls-3{opacity:0.8;}.cls-4{fill:#22aa30;opacity:0.5;}.cls-10,.cls-5,.cls-9{fill:none;}.cls-6{fill:#fff;}.cls-7{fill:#1a1a1a;stroke:#ddb17a;}.cls-10,.cls-7,.cls-9{stroke-miterlimit:10;}.cls-9{stroke:#fff;}.cls-10{stroke:#000;stroke-width:2px;}</style></defs><title>beer</title><g id="Layer_6" data-name="Layer 6"><path class="cls-1" d="M18.8,90.13l17.83,26.18L55.2,89.4c3.73,8.76,8.37,24.55,16.61,43.81a24.52,24.52,0,0,1,2,9.5l.71,117.35a20.91,20.91,0,0,1-21.06,20.62H22A20.91,20.91,0,0,1,1,260.06L3.85,144.24a24.46,24.46,0,0,1,1.33-7.38C15.47,107.27,16.57,96.67,18.8,90.13Z"/><path class="cls-2" d="M59.69,6.5C59.69,3.28,49.55.68,37,.68S14.38,3.28,14.38,6.5"/><rect class="cls-3" x="18.09" y="6.5" width="38.63" height="6.55" rx="3.27"/><path class="cls-3" d="M50,97.4,36.66,117,32.2,110.5c-.74-.73-1.91-3.18-3-4.37-.62-.71-3.75-5.58-4.45-6.54-2.17-3-6-6.36-6-8.73L20.32,18.7c.74-4.2.2-4.93,3-4.93H50.78c2.77,0,2.23.73,3,4.93l1.48,71.43C54.83,90.84,52.13,94,50,97.4Z"/><rect class="cls-3" x="1" y="166.5" width="71.32" height="62.55" rx="3.1"/><rect class="cls-3" x="1" y="165.77" width="35.66" height="62.55" rx="3.1"/><path class="cls-4" d="M16,280l9.17.73H37.4l-.76-164.37C28.23,106.13,28.23,101,17.53,91.59l-5.35,22.54C2.24,139.59,3,139.59,3,150.5L.74,234.56c0,.68-.19,1.36-.21,2.05C0,259.52-3.88,264,8.36,276.31,9.22,277.19,14.83,279.51,16,280Z"/><path class="cls-5" d="M53,278.5H34.43l.75-164.37C43.35,104,44.09,99.59,53.75,87.22l9.66,26.18c11.88,26.19,8.91,32.73,8.91,43.64V233.4c0,.69.67,17.5.74,18.19.75,7.27,0,17.45-10.4,24C59.54,277.55,54.14,278.06,53,278.5Z"/><path d="M20.69,140.31h0a7.75,7.75,0,0,0-7.8,7.64l-.74,4.73c0,1.09-1.3,9,1.48,10.18.94.4,5.6,0,6.69,0h.74c8.39,1.32,8.54-2.83,8.17-8L28.49,148A7.75,7.75,0,0,0,20.69,140.31Z"/><path d="M57.09,139.59h0a7.74,7.74,0,0,0-7.8,7.63L48.55,152c0,1.09-1.3,9,1.48,10.18.95.4,5.6,0,6.69,0h.74c8.39,1.32,8.54-2.82,8.17-8l-.74-6.91A7.74,7.74,0,0,0,57.09,139.59Z"/><rect class="cls-6" x="19.58" y="141.77" width="7.43" height="12.36" rx="3.71"/><rect class="cls-6" x="55.98" y="141.04" width="7.43" height="12.36" rx="3.71"/><path class="cls-7" d="M60.2,230.5C60,239.53,47.15,249,39.52,244,31,238.29,19.4,237.81,19.33,230.5"/><path class="cls-8" d="M53.75,241.4c0-3.41-7.37-8.72-11.89-8.72s-9.66,2.91-2.23,9.45c2.6,2.29,2.92,7.27,7.43,7.27S53.75,244.82,53.75,241.4Z"/><path class="cls-9" d="M40.75,236c1.94.74,9.66,5.82,7.43,8.73"/><path d="M23.9,197.29a3.41,3.41,0,0,1-1.43,2.49A10.87,10.87,0,0,1,19,201.72a11.54,11.54,0,0,1-3.86.72,3,3,0,0,1-1.85-.94c-.71-.63-1.06-1.15-1.06-1.56a.92.92,0,0,1,.15-.55.45.45,0,0,1,.37-.2,3.06,3.06,0,0,1,.92.33,2.8,2.8,0,0,0,1.09.34,4.17,4.17,0,0,0,.71-.06,3.37,3.37,0,0,1-1-.72,1.45,1.45,0,0,1-.52-1q0-.21.69-3a22,22,0,0,0,.73-4.71,3.68,3.68,0,0,1-.68-.85,1.69,1.69,0,0,1-.3-.74c0-.38.31-.68.92-.92a6.52,6.52,0,0,1,2.28-.34,12.05,12.05,0,0,1,4.67.75A2.51,2.51,0,0,1,24,190.74a3.36,3.36,0,0,1-.89,2.11,9.57,9.57,0,0,1-2.35,2l.2.06a5.78,5.78,0,0,1,2.09,1A1.78,1.78,0,0,1,23.9,197.29Zm-2.62-.08c0-.27-.4-.51-1.2-.7a8.5,8.5,0,0,0-2-.3q-.43,0-.93-.63c-.63,2.51-1,3.89-1.13,4.14a19,19,0,0,0,3.5-1.12C20.69,198.09,21.28,197.63,21.28,197.21Zm-1.06-7a22.05,22.05,0,0,0-3,.44,2.3,2.3,0,0,1,.75,1.36,9.92,9.92,0,0,1-.36,2,13.55,13.55,0,0,1,1.19-.71c.57-.31.93-.52,1.07-.62s.34-.26.59-.46a1.6,1.6,0,0,0,.71-1.27C21.13,190.43,20.83,190.19,20.22,190.19Z"/><path d="M30.28,193.77c.74,0,1.53,0,2.37-.11s1.37-.11,1.57-.11a.69.69,0,0,1,.48.14.42.42,0,0,1,.18.34c0,.6-.58,1.08-1.73,1.43a14.45,14.45,0,0,1-3.68.61,14.29,14.29,0,0,0-.81,3.12.31.31,0,0,0,.35.34,20.58,20.58,0,0,0,4.89-.61,7.37,7.37,0,0,1,1-.22c.26,0,.4.18.4.55s-.37,1-1.11,1.42a9.29,9.29,0,0,1-2.76,1.1,13.81,13.81,0,0,1-3.27.41,2.5,2.5,0,0,1-1.73-.7,2.18,2.18,0,0,1-.77-1.65,25.73,25.73,0,0,1,1.08-4.76,26.68,26.68,0,0,0,1.13-5.74,1.35,1.35,0,0,1,.06-.69c.15-.38.58-.62,1.27-.73a30.78,30.78,0,0,1,3.74-.15c3,0,4.5.33,4.5,1,0,.42-.37.71-1.1.88-.5.1-1.19.21-2.06.3a24.57,24.57,0,0,0-3.6.65,12.35,12.35,0,0,1-.5,3.2Z"/><path d="M41.74,193.77c.74,0,1.53,0,2.38-.11s1.37-.11,1.57-.11a.68.68,0,0,1,.47.14.42.42,0,0,1,.18.34c0,.6-.57,1.08-1.73,1.43a14.45,14.45,0,0,1-3.68.61,14.29,14.29,0,0,0-.81,3.12c0,.23.12.34.36.34a20.44,20.44,0,0,0,4.88-.61,7.37,7.37,0,0,1,1-.22c.26,0,.4.18.4.55s-.37,1-1.11,1.42a9.29,9.29,0,0,1-2.76,1.1,13.81,13.81,0,0,1-3.27.41,2.46,2.46,0,0,1-1.72-.7,2.15,2.15,0,0,1-.77-1.65,25.34,25.34,0,0,1,1.07-4.76,26.68,26.68,0,0,0,1.13-5.74,1.35,1.35,0,0,1,.06-.69c.16-.38.58-.62,1.27-.73a31,31,0,0,1,3.75-.15c3,0,4.49.33,4.49,1,0,.42-.37.71-1.1.88-.5.1-1.19.21-2.06.3a24.57,24.57,0,0,0-3.6.65,12.35,12.35,0,0,1-.5,3.2Z"/><path d="M59.84,201.59c0,.56-.39.83-1.18.83a5.17,5.17,0,0,1-3.41-1.65,10.06,10.06,0,0,1-2.52-3.44c-.22.65-.38,1.1-.46,1.33s-.21.59-.37,1.1-.3.87-.39,1.12-.19.5-.3.77c-.21.52-.41.77-.6.77s-.71-.26-1.16-.78a2.23,2.23,0,0,1-.67-1.27,6.54,6.54,0,0,1,.47-1.82,27.7,27.7,0,0,0,1.63-7.39,2.77,2.77,0,0,1-.71-.85,2,2,0,0,1-.31-.92c0-.41.53-.83,1.61-1.28a9.54,9.54,0,0,1,3.72-.67,6.09,6.09,0,0,1,3.53,1A3,3,0,0,1,60.13,191a4.06,4.06,0,0,1-.69,2.23,6.55,6.55,0,0,1-1.52,1.67L56.4,196c-.47.32-.7.53-.7.63a1.53,1.53,0,0,0,.33.93,10,10,0,0,0,.94,1c.4.39.75.72,1,1l.72.66.55.55C59.65,201.07,59.84,201.36,59.84,201.59Zm-2.91-10.43c0-.57-.57-.85-1.71-.85a5.34,5.34,0,0,0-1.93.45,2.56,2.56,0,0,1,.52,1.42,11.64,11.64,0,0,1-.33,2.61l.85-.58,1-.67a9.25,9.25,0,0,0,.78-.67A2.35,2.35,0,0,0,56.93,191.16Z"/><path class="cls-10" d="M65.63,139.59c0-5-2.22-14.55-8.17-14.55s-8.91,9.53-8.91,14.55"/><path class="cls-10" d="M29.23,139.59c0-5-2.22-14.55-8.17-14.55s-8.91,9.53-8.91,14.55"/></g></svg>
