<svg xmlns="http://www.w3.org/2000/svg" width="50" height="140" viewBox="0 0 50 140"><defs><style>.cls-1{fill:#c1272d;}.cls-2{fill:#fff;opacity:0.3;}</style></defs><title>energibar_5</title><g id="Layer_6" data-name="Layer 6"><path class="cls-1" d="M25.08,140c-21.87-.6-27.85-18.19-24-35.36,0,0,0,0,0,0l12-54.3L24,.89a1.11,1.11,0,0,1,1-.89,1.13,1.13,0,0,1,1.21.89l10.8,49.42L49,104.55H49C52.9,121.75,45.14,140.53,25.08,140Z"/><path class="cls-2" d="M25.08,0V140c-16.76.45-13.25-28.8-12.41-34.43.13-.85.23-1.7.33-2.55.75-7,3.72-34.44,3.72-34.45L19,50.29,24.54.89C24.61.32,24.84,0,25.08,0Z"/></g></svg>
