<svg xmlns="http://www.w3.org/2000/svg" width="50" height="45" viewBox="0 0 50 45"><defs><style>.cls-1{fill:#c1272d;}</style></defs><title>lyd_fra</title><g id="Layer_6" data-name="Layer 6"><path class="cls-1" d="M10.77,12.93h4.07a0,0,0,0,1,0,0V34.47a0,0,0,0,1,0,0H10.77A10.77,10.77,0,0,1,0,23.7v0A10.77,10.77,0,0,1,10.77,12.93Z"/><polygon class="cls-1" points="33.03 45 17.07 34.69 17.07 13.13 33.03 0 33.03 45"/><polygon class="cls-1" points="49.87 33.47 48.98 34.13 38.72 11.19 39.61 10.53 49.87 33.47"/><polygon class="cls-1" points="39.73 34.3 38.84 33.63 49.11 10.7 50 11.36 39.73 34.3"/></g></svg>
