<svg xmlns="http://www.w3.org/2000/svg" width="70" height="60" viewBox="0 0 70 60"><defs><style>.cls-1{fill:#c1272d;}.cls-2{fill:none;stroke:#c1272d;stroke-miterlimit:10;stroke-width:3px;}</style></defs><title>lyd_til</title><g id="Layer_6" data-name="Layer 6"><path class="cls-1" d="M11.58,21.21h7.19a0,0,0,0,1,0,0V41.5a0,0,0,0,1,0,0H11.58a9.83,9.83,0,0,1-9.83-9.83V31A9.83,9.83,0,0,1,11.58,21.21Z"/><polygon class="cls-1" points="39.62 51.41 21.32 41.7 21.32 21.4 39.62 9.04 39.62 51.41"/><path class="cls-2" d="M46.22,2.5c14.33,0,20.53,12.09,20.53,27.27s-6.62,27.73-21,27.73"/><path class="cls-2" d="M45.9,9.7c10.69,0,15.32,9,15.32,20.35S56.28,50.74,45.58,50.74"/><path class="cls-2" d="M45.84,18.05c6.88,0,9.85,5.8,9.85,13.08s-3.18,13.3-10,13.3"/></g></svg>
