<svg xmlns="http://www.w3.org/2000/svg" width="520" height="400" viewBox="0 0 520 400"><defs><style>.cls-1{fill:#f4ca92;}.cls-2{fill:#c1272d;}.cls-3{fill:none;stroke:#c1272d;stroke-miterlimit:10;}.cls-4{fill:#fff;}</style></defs><title>menu</title><g id="Layer_8" data-name="Layer 8"><rect class="cls-1" width="520" height="400" rx="37.27"/><path d="M192.67,45c.65,0,1.93.69,3.84,2.09s2.86,2.44,2.86,3.13a24.9,24.9,0,0,0,1.18,6,53.09,53.09,0,0,0,2.73,7.5c1-1.21,2.78-3.44,5.24-6.7s4.52-5.84,6.21-7.73,2.94-2.85,3.76-2.85a3.75,3.75,0,0,1,2.58,1.4,4.1,4.1,0,0,1,1.34,2.79,20.87,20.87,0,0,1-.41,3.6c-.28,1.46-.58,2.82-.91,4.08s-.79,3-1.39,5.15-1.06,3.88-1.39,5.14-.66,2.61-1,4-.62,2.55-.8,3.36-.4,1.65-.62,2.53-.42,1.55-.59,2a11.71,11.71,0,0,1-.57,1.27,1.75,1.75,0,0,1-1.6,1.08q-1,0-2-2a9.53,9.53,0,0,1-1-4.27q0-5.48,3.14-14.53c-.58.76-1.42,1.87-2.52,3.34s-1.92,2.53-2.45,3.2-1.2,1.46-2,2.36c-1.4,1.55-2.78,2.32-4.12,2.32a4,4,0,0,1-3.81-2.12,27.1,27.1,0,0,1-1.52-4.88q-1-3.81-1.37-5.25a77.84,77.84,0,0,1-1.8,9.67q-1.14,4.34-1.5,5.69c-.24.89-.57,2-1,3.25-.69,2.18-1.3,3.26-1.85,3.26s-1.47-.82-2.56-2.45a8,8,0,0,1-1.62-3.86q0-1.4,3-14t3-15.88C191.17,45.53,191.67,45,192.67,45Z"/><path d="M243.36,70.41a13.65,13.65,0,0,1-7,2,27.55,27.55,0,0,1-5.92-.52,8.78,8.78,0,0,0-.47,2.79,3.27,3.27,0,0,0,.47,2c.31.4,1.08.6,2.32.6a26.53,26.53,0,0,0,6.62-.72c1.84-.49,2.79-.73,2.86-.73,1.41,0,2.11.47,2.11,1.4,0,1.34-1.1,2.62-3.32,3.82a15.79,15.79,0,0,1-7.68,1.81,9.21,9.21,0,0,1-7-2.74,9,9,0,0,1-2.63-6.49,16.56,16.56,0,0,1,2.19-7.83A22.86,22.86,0,0,1,231.38,59,10.25,10.25,0,0,1,238,56.19q3.27,0,6.06,3.23a10,10,0,0,1,2.78,6.44Q246.79,68.4,243.36,70.41Zm-3.63-6.88a3.16,3.16,0,0,0-2-1,4.2,4.2,0,0,0-2.45,1.37,16.51,16.51,0,0,0-2.83,3.54,11.61,11.61,0,0,0,1.34.05c4.71,0,7.06-.82,7.06-2.48Q240.81,64.52,239.73,63.53Z"/><path d="M267.82,56.19a6.06,6.06,0,0,1,4.72,2.4,7.88,7.88,0,0,1,2,5.15,32.13,32.13,0,0,1-1.42,9.18,28.71,28.71,0,0,1-3.09,7.37c-1.12,1.72-2.25,2.58-3.4,2.58s-1.73-.81-1.73-2.43a33.77,33.77,0,0,1,1.7-7.5,28.85,28.85,0,0,0,1.29-6.67q0-2-.51-2a1.84,1.84,0,0,0-1.32.67,15.5,15.5,0,0,0-1,1.19q-.42.51-1,1.32t-.93,1.44c-.25.44-.58,1-1,1.66s-.71,1.22-.95,1.66l-.93,1.68q-4.78,9-7.52,9c-.72,0-1.63-.62-2.73-1.88s-1.65-2.18-1.65-2.77a9.4,9.4,0,0,1,.74-2.46c.5-1.25.86-2.22,1.09-2.89a18.2,18.2,0,0,0,.56-2.15q.24-1.14.39-2.46c.1-.88.18-1.55.23-2s.11-1.24.18-2.27q.46-6.73.8-7.45c.22-.48.47-.73.75-.73a5.61,5.61,0,0,1,3.76,1.63c1.2,1.09,1.81,2.08,1.81,3a37.73,37.73,0,0,1-1.65,9.2,100.87,100.87,0,0,1,6.1-9.64Q265.91,56.19,267.82,56.19Z"/><path d="M295.5,57.48a1.62,1.62,0,0,1,1.65-1.29c.82,0,1.78.71,2.86,2.12A6.45,6.45,0,0,1,301.63,62a76.35,76.35,0,0,1-2.37,7.6q-2.37,7-3.66,11.12c-.48,1.45-1.29,2.17-2.42,2.17a2.26,2.26,0,0,1-1.73-.74,3.41,3.41,0,0,1-.69-2.36,24,24,0,0,1,.61-4.55q-5.31,7.65-8.45,7.65-1.65,0-4-2.14c-1.54-1.43-2.32-2.82-2.32-4.16q0-5,2.81-12.68c1.87-5.13,3.64-7.7,5.28-7.7a3.45,3.45,0,0,1,2.66,1.34,4.44,4.44,0,0,1,1.16,2.95A14.11,14.11,0,0,1,287.25,64q-3.92,8.52-3.92,12c0,.2.09.31.26.31q.78,0,2.91-2.46a46.39,46.39,0,0,0,4.8-7A48.68,48.68,0,0,0,295.5,57.48Z"/><path class="cls-2" d="M376.74,174.74h8.16a0,0,0,0,1,0,0v14.64a0,0,0,0,1,0,0h-8.16a4.81,4.81,0,0,1-4.81-4.81v-5A4.81,4.81,0,0,1,376.74,174.74Z"/><polygon class="cls-2" points="400.79 196.54 386.84 189.53 386.84 174.88 400.79 165.96 400.79 196.54"/><path class="cls-3" d="M405.81,161.24c10.93,0,15.65,8.72,15.65,19.68s-5,20-16,20"/><path class="cls-3" d="M405.57,166.43c8.15,0,11.67,6.51,11.67,14.69s-3.76,14.93-11.92,14.93"/><path class="cls-3" d="M405.52,172.46c5.24,0,7.51,4.19,7.51,9.44s-2.42,9.6-7.66,9.6"/><path class="cls-4" d="M315,175.54h7.26a0,0,0,0,1,0,0v13a0,0,0,0,1,0,0H315a4.28,4.28,0,0,1-4.28-4.28v-4.46A4.28,4.28,0,0,1,315,175.54Z"/><polygon class="cls-4" points="336.43 194.93 324.02 188.69 324.02 175.66 336.43 167.72 336.43 194.93"/><polygon class="cls-4" points="349.52 187.96 348.83 188.36 340.85 174.49 341.54 174.09 349.52 187.96"/><polygon class="cls-4" points="341.64 188.46 340.95 188.06 348.93 174.19 349.62 174.59 341.64 188.46"/><path d="M130.16,171.1a4.42,4.42,0,0,1,1.81,1q1.35,1,1.35,1.47a11.73,11.73,0,0,0,.55,2.8,25.35,25.35,0,0,0,1.29,3.53q.74-.85,2.46-3.15c1.16-1.54,2.13-2.75,2.93-3.64s1.38-1.34,1.77-1.34a1.77,1.77,0,0,1,1.21.66,1.9,1.9,0,0,1,.63,1.31,10.43,10.43,0,0,1-.19,1.69c-.13.69-.28,1.33-.43,1.92s-.37,1.4-.65,2.42-.51,1.83-.66,2.43-.31,1.22-.47,1.9l-.38,1.58c-.09.38-.18.78-.29,1.19a9.28,9.28,0,0,1-.28.95,5.68,5.68,0,0,1-.26.6.83.83,0,0,1-.76.51c-.32,0-.64-.32-.95-1a4.5,4.5,0,0,1-.48-2,22.34,22.34,0,0,1,1.48-6.84l-1.19,1.57c-.51.69-.9,1.19-1.15,1.51s-.56.68-.93,1.1a2.77,2.77,0,0,1-1.94,1.1,1.88,1.88,0,0,1-1.8-1,13.23,13.23,0,0,1-.71-2.3c-.3-1.19-.52-2-.65-2.47a34.91,34.91,0,0,1-.85,4.55c-.35,1.37-.59,2.26-.7,2.68s-.27.93-.46,1.53c-.32,1-.61,1.54-.87,1.54s-.69-.39-1.2-1.16a3.76,3.76,0,0,1-.77-1.81,66.66,66.66,0,0,1,1.42-6.57,45.13,45.13,0,0,0,1.42-7.48C129.46,171.37,129.69,171.1,130.16,171.1Z"/><path d="M153.28,177a.78.78,0,0,1,.78-.61c.38,0,.83.34,1.34,1a3.05,3.05,0,0,1,.77,1.73c0,.18-.38,1.37-1.12,3.58s-1.32,3.95-1.72,5.23q-.35,1-1.14,1a1.05,1.05,0,0,1-.81-.35,1.6,1.6,0,0,1-.33-1.11,11.54,11.54,0,0,1,.29-2.14c-1.67,2.4-3,3.6-4,3.6a3.08,3.08,0,0,1-1.87-1,2.82,2.82,0,0,1-1.09-2,18.29,18.29,0,0,1,1.32-6c.89-2.42,1.71-3.63,2.49-3.63a1.61,1.61,0,0,1,1.25.63,2.12,2.12,0,0,1,.54,1.39,6.53,6.53,0,0,1-.6,1.63q-1.85,4-1.84,5.67,0,.15.12.15c.24,0,.7-.39,1.37-1.16a21.58,21.58,0,0,0,2.25-3.31A22.55,22.55,0,0,0,153.28,177Z"/><path d="M164.29,176.41a2.44,2.44,0,0,1,1.82,1.09,3.27,3.27,0,0,1,.9,2c0,.39-.17.59-.51.59a2.58,2.58,0,0,1-.85-.23,2.83,2.83,0,0,0-1.13-.24,5.51,5.51,0,0,0-1.67.39c-.74.26-1.1.61-1.1,1,0,.16.21.39.65.7s.91.63,1.43.95a5.49,5.49,0,0,1,1.43,1.35,3,3,0,0,1,.66,1.88c0,.67-.49,1.35-1.47,2a5.89,5.89,0,0,1-3.44,1,6.17,6.17,0,0,1-3.39-.9c-.94-.6-1.41-1.22-1.41-1.85s.26-.95.78-.95a1.62,1.62,0,0,1,.75.24,5.85,5.85,0,0,0,3,.71c1.21,0,1.81-.16,1.81-.49a1.6,1.6,0,0,0-.69-1.08,11.53,11.53,0,0,0-1.51-1.11,7.33,7.33,0,0,1-1.5-1.25,2.19,2.19,0,0,1-.69-1.45c0-.87.79-1.83,2.38-2.86A7.69,7.69,0,0,1,164.29,176.41Z"/><path d="M170.62,176.38a1.88,1.88,0,0,1,1.52,1,3.37,3.37,0,0,1,.67,1.87,22.15,22.15,0,0,1-.84,3.32c-.56,1.91-1.11,3.71-1.66,5.42a1.18,1.18,0,0,1-1.19.95,1.25,1.25,0,0,1-.93-.41,1.39,1.39,0,0,1-.41-1,20.24,20.24,0,0,1,.62-3.21c.42-1.72.73-3.18.95-4.38a20.75,20.75,0,0,1,.61-2.66Q170.23,176.38,170.62,176.38Zm-.36-3a2,2,0,0,1,.57-1.3,1.54,1.54,0,0,1,1.11-.67c.37,0,.8.44,1.3,1.31a4.69,4.69,0,0,1,.75,1.91,1.14,1.14,0,0,1-.38.92,1.26,1.26,0,0,1-.8.31,3.55,3.55,0,0,1-2.55-2.48Z"/><path d="M174.19,185.12a8.09,8.09,0,0,1,1.07-3.75,11.37,11.37,0,0,1,2.8-3.5,5.29,5.29,0,0,1,3.41-1.46,2.43,2.43,0,0,1,1.74,1.1,3.32,3.32,0,0,1,.9,2c0,.42-.19.63-.58.63a1.86,1.86,0,0,1-.8-.27,2.22,2.22,0,0,0-1-.27,2.76,2.76,0,0,0-1.51.92,9.85,9.85,0,0,0-1.75,2.19,4.33,4.33,0,0,0-.76,2c0,.48.09.8.28.94a2.5,2.5,0,0,0,1.35.22,9.21,9.21,0,0,0,2-.19,6.11,6.11,0,0,0,1.31-.4,1.75,1.75,0,0,1,.76-.21c.46,0,.68.2.68.58,0,.72-.62,1.44-1.87,2.18a7.24,7.24,0,0,1-3.73,1.11,4.37,4.37,0,0,1-2.71-1.33A3.56,3.56,0,0,1,174.19,185.12Z"/><path d="M131.87,270.58a4.34,4.34,0,0,1-2,3.55,7.26,7.26,0,0,1-4.49,1.49,6.25,6.25,0,0,1-4.06-1.25,3.45,3.45,0,0,1-1.54-2.6c0-.89.25-1.34.75-1.34a1.83,1.83,0,0,1,1.21.59,16.13,16.13,0,0,0,1.42,1.17,2.9,2.9,0,0,0,1.78.58,4.2,4.2,0,0,0,2.26-.83q1.26-.82,1.26-1.38c0-.38-.46-1-1.37-1.88s-1.83-1.78-2.74-2.71S123,264.31,123,263.8a5.61,5.61,0,0,1,.28-1.67,2.56,2.56,0,0,1,.69-1.24,11.4,11.4,0,0,1,3.38-2.22,9,9,0,0,1,3.65-.94,1.83,1.83,0,0,1,1.53.79,2.71,2.71,0,0,1,.61,1.64c0,.23-.19.41-.55.55a11.37,11.37,0,0,1-1.58.43,12.68,12.68,0,0,0-2.09.63c-1.65.62-2.48,1.14-2.48,1.56,0,.19.28.55.85,1.06s1.18,1,1.86,1.6a9.68,9.68,0,0,1,1.85,2.12A4.46,4.46,0,0,1,131.87,270.58Z"/><path d="M135.52,265.79c1.25-1.82,2.5-2.73,3.72-2.73a4.15,4.15,0,0,1,3.11,1.3,4.36,4.36,0,0,1,1.26,3.14,8.94,8.94,0,0,1-.87,3.74,8.66,8.66,0,0,1-2.45,3.15,5.36,5.36,0,0,1-3.37,1.25,2.89,2.89,0,0,1-2.31-1.19,4.42,4.42,0,0,1-1-2.9A10,10,0,0,1,135.52,265.79Zm3.94,5a7,7,0,0,0,1-3.33,3.82,3.82,0,0,0-.43-2.15,6.33,6.33,0,0,0-2.08,2.56,7.51,7.51,0,0,0-1,3.42,3.73,3.73,0,0,0,.29,1.86A5.07,5.07,0,0,0,139.46,270.8Z"/><path d="M153.34,263.69a.77.77,0,0,1,.77-.61c.39,0,.84.34,1.35,1a3,3,0,0,1,.76,1.73,36.1,36.1,0,0,1-1.11,3.58c-.75,2.2-1.32,3.95-1.72,5.23q-.34,1-1.14,1a1.05,1.05,0,0,1-.82-.35,1.58,1.58,0,0,1-.32-1.11,10.82,10.82,0,0,1,.29-2.14q-2.51,3.6-4,3.6a3,3,0,0,1-1.87-1,2.77,2.77,0,0,1-1.09-2,18.34,18.34,0,0,1,1.32-6q1.32-3.63,2.49-3.63a1.64,1.64,0,0,1,1.25.64,2.08,2.08,0,0,1,.54,1.38,6.68,6.68,0,0,1-.6,1.64q-1.85,4-1.85,5.67c0,.09,0,.14.12.14.25,0,.7-.38,1.37-1.15a21.31,21.31,0,0,0,2.26-3.31A23.25,23.25,0,0,0,153.34,263.69Z"/><path d="M165.54,263.08a2.84,2.84,0,0,1,2.22,1.14,3.67,3.67,0,0,1,1,2.42,15.36,15.36,0,0,1-.67,4.32,13.87,13.87,0,0,1-1.46,3.47c-.52.81-1.06,1.21-1.6,1.21s-.81-.38-.81-1.14A15.93,15.93,0,0,1,165,271a14,14,0,0,0,.61-3.14c0-.63-.08-.95-.25-.95a.86.86,0,0,0-.61.32,5.65,5.65,0,0,0-.5.56c-.13.16-.28.37-.45.62s-.32.48-.44.68l-.46.78-.45.78c-.11.2-.26.46-.43.79q-2.26,4.23-3.54,4.23c-.34,0-.77-.29-1.29-.89a2.55,2.55,0,0,1-.78-1.3,4.19,4.19,0,0,1,.36-1.15c.23-.6.4-1.05.5-1.37a7.07,7.07,0,0,0,.27-1c.07-.35.13-.74.18-1.15s.09-.74.11-1,.05-.59.09-1.07a22.25,22.25,0,0,1,.37-3.51c.11-.23.23-.34.36-.34a2.65,2.65,0,0,1,1.77.77,2.06,2.06,0,0,1,.84,1.4,17.6,17.6,0,0,1-.77,4.33,48.33,48.33,0,0,1,2.87-4.54C164.21,263.67,164.94,263.08,165.54,263.08Z"/><path d="M180.41,256.27c.39,0,.89.35,1.53,1.06a3.08,3.08,0,0,1,.94,2,32.42,32.42,0,0,1-.85,3.85c-.56,2.25-.9,3.62-1,4.09-1.29,5.59-2.24,8.39-2.83,8.39A1.74,1.74,0,0,1,177,275a1.68,1.68,0,0,1-.64-1.19.5.5,0,0,1,0-.19c-1.62,1.33-2.78,2-3.48,2a2.75,2.75,0,0,1-2-1.13,3.31,3.31,0,0,1-1-2.06,9.36,9.36,0,0,1,.25-2.05A14.58,14.58,0,0,1,171,268a17.65,17.65,0,0,1,1.23-2.37,6.54,6.54,0,0,1,1.67-1.83,3.38,3.38,0,0,1,2-.72,2.93,2.93,0,0,1,2.54,1.59A38.46,38.46,0,0,0,179.7,257,.64.64,0,0,1,180.41,256.27Zm-7.16,16.28a4.55,4.55,0,0,0,2.05-1,6.47,6.47,0,0,0,2.15-2.66,7.23,7.23,0,0,1,0-.85,2,2,0,0,0-.43-1.24c-.29-.39-.56-.58-.8-.58a1.86,1.86,0,0,0-1.4.77,6.07,6.07,0,0,0-1,1.85,11.19,11.19,0,0,0-.83,3.44.36.36,0,0,0,.06.25A.44.44,0,0,0,173.25,272.55Z"/><path d="M201.72,269.78a6.49,6.49,0,0,1-3.31,1,12.54,12.54,0,0,1-2.79-.25,4.06,4.06,0,0,0-.22,1.32,1.48,1.48,0,0,0,.22.93c.14.19.51.28,1.09.28a12.21,12.21,0,0,0,3.11-.34l1.35-.34c.66,0,1,.22,1,.66,0,.63-.53,1.23-1.57,1.8a7.41,7.41,0,0,1-3.61.85,4.34,4.34,0,0,1-3.29-1.29,4.25,4.25,0,0,1-1.24-3.05,7.88,7.88,0,0,1,1-3.69,10.84,10.84,0,0,1,2.59-3.22,4.81,4.81,0,0,1,3.09-1.31,3.74,3.74,0,0,1,2.85,1.53,4.67,4.67,0,0,1,1.31,3C203.33,268.43,202.79,269.14,201.72,269.78ZM200,266.54a1.47,1.47,0,0,0-1-.46,1.92,1.92,0,0,0-1.15.64,7.83,7.83,0,0,0-1.34,1.67,5.46,5.46,0,0,0,.63,0c2.22,0,3.33-.39,3.33-1.16C200.52,267.08,200.35,266.85,200,266.54Z"/><path d="M213.7,261.13a3.86,3.86,0,0,0-.33-1c-.14-.31-.32-.47-.52-.47s-.4.15-.61.44a5.15,5.15,0,0,0-.59,1.44c-.31,1-.62,2.24-.92,3.62,1.23-.06,2.15-.09,2.77-.09a2.72,2.72,0,0,1,1.4.28.78.78,0,0,1,.46.67c0,.5-.45.89-1.36,1.16a28.38,28.38,0,0,1-3.93.81c-.81,3.39-1.37,5.51-1.7,6.36s-.67,1.28-1.06,1.28-.67-.26-1.08-.77a2.27,2.27,0,0,1-.62-1.15,3.29,3.29,0,0,1,.17-.93,29,29,0,0,0,1.14-4.09,5.15,5.15,0,0,1-1.3.2,1.69,1.69,0,0,1-1.13-.53,1.66,1.66,0,0,1-.55-1.27c0-.59,1.16-1.09,3.49-1.51a19.55,19.55,0,0,1,2-6.78,4,4,0,0,1,3.64-2.11,2.75,2.75,0,0,1,2.09,1.12,4,4,0,0,1,.94,2.66,3.32,3.32,0,0,1-.31,1.57.94.94,0,0,1-.83.57.93.93,0,0,1-.81-.47A2.75,2.75,0,0,1,213.7,261.13Z"/><path d="M224.25,261.13a3.86,3.86,0,0,0-.33-1c-.14-.31-.32-.47-.52-.47s-.4.15-.6.44a5.11,5.11,0,0,0-.6,1.44c-.31,1-.61,2.24-.92,3.62,1.23-.06,2.15-.09,2.78-.09a2.7,2.7,0,0,1,1.39.28.78.78,0,0,1,.46.67c0,.5-.45.89-1.36,1.16a28.38,28.38,0,0,1-3.93.81c-.8,3.39-1.37,5.51-1.69,6.36s-.68,1.28-1.07,1.28-.67-.26-1.08-.77a2.27,2.27,0,0,1-.62-1.15,3.29,3.29,0,0,1,.17-.93,29,29,0,0,0,1.14-4.09,5.09,5.09,0,0,1-1.3.2,1.88,1.88,0,0,1-1.68-1.8c0-.59,1.16-1.09,3.49-1.51a19.55,19.55,0,0,1,2-6.78,4,4,0,0,1,3.64-2.11,2.75,2.75,0,0,1,2.09,1.12,4,4,0,0,1,1,2.66,3.31,3.31,0,0,1-.32,1.57.93.93,0,0,1-.82.57.94.94,0,0,1-.82-.47A2.75,2.75,0,0,1,224.25,261.13Z"/><path d="M234.66,269.78a6.49,6.49,0,0,1-3.31,1,12.54,12.54,0,0,1-2.79-.25,4.06,4.06,0,0,0-.22,1.32,1.48,1.48,0,0,0,.22.93c.14.19.51.28,1.09.28a12.21,12.21,0,0,0,3.11-.34l1.35-.34c.66,0,1,.22,1,.66,0,.63-.53,1.23-1.57,1.8a7.41,7.41,0,0,1-3.61.85,4.34,4.34,0,0,1-3.29-1.29,4.29,4.29,0,0,1-1.24-3.05,7.88,7.88,0,0,1,1-3.69,10.84,10.84,0,0,1,2.59-3.22,4.81,4.81,0,0,1,3.09-1.31,3.74,3.74,0,0,1,2.85,1.53,4.67,4.67,0,0,1,1.31,3C236.27,268.43,235.73,269.14,234.66,269.78ZM233,266.54a1.47,1.47,0,0,0-1-.46,2,2,0,0,0-1.15.64,7.83,7.83,0,0,0-1.34,1.67,5.46,5.46,0,0,0,.63,0c2.22,0,3.33-.39,3.33-1.16C233.46,267.08,233.29,266.85,233,266.54Z"/><path d="M237.24,271.82a8.28,8.28,0,0,1,1.07-3.75,11.37,11.37,0,0,1,2.8-3.5,5.34,5.34,0,0,1,3.41-1.46,2.42,2.42,0,0,1,1.74,1.11,3.29,3.29,0,0,1,.9,2c0,.42-.19.63-.58.63a1.86,1.86,0,0,1-.8-.27,2.33,2.33,0,0,0-1.05-.26,2.73,2.73,0,0,0-1.51.91,9.85,9.85,0,0,0-1.75,2.19,4.33,4.33,0,0,0-.76,2,1.2,1.2,0,0,0,.28.95,2.65,2.65,0,0,0,1.36.22,9.09,9.09,0,0,0,2-.2,6.11,6.11,0,0,0,1.31-.4,1.75,1.75,0,0,1,.76-.21c.46,0,.68.2.68.59,0,.71-.62,1.44-1.86,2.18a7.35,7.35,0,0,1-3.74,1.1,4.38,4.38,0,0,1-2.7-1.32A3.61,3.61,0,0,1,237.24,271.82Z"/><path d="M254.81,267.82c-.25.79-.55,1.77-.92,3s-.54,1.81-.54,1.88.13.11.4.11a7.92,7.92,0,0,0,1.9-.55,9.48,9.48,0,0,1,1.77-.54c.41,0,.61.27.61.82s-.54,1.22-1.63,2a5.75,5.75,0,0,1-3.39,1.15,3.16,3.16,0,0,1-1.85-.85,2.31,2.31,0,0,1-1.06-1.73,13.38,13.38,0,0,1,.74-3.08c.49-1.56.82-2.64,1-3.22a5.76,5.76,0,0,1-1.43.27,1.46,1.46,0,0,1-1-.67,2.12,2.12,0,0,1-.53-1.28c0-.52,1.25-1,3.76-1.31a19.87,19.87,0,0,0,.46-3.92.64.64,0,0,1,.73-.73,2.89,2.89,0,0,1,1.61.76,2.08,2.08,0,0,1,1,1.51,9.63,9.63,0,0,1-.31,2.08c.77,0,1.36,0,1.77,0,1.21,0,1.82.27,1.82.82,0,.36-.35.66-1.06.92a24.86,24.86,0,0,1-3.24.81C255.25,266.42,255.06,267,254.81,267.82Z"/><path d="M267.78,263.11a2.46,2.46,0,0,1,1.82,1.09,3.27,3.27,0,0,1,.9,2c0,.38-.17.58-.51.58a2.52,2.52,0,0,1-.85-.23,2.86,2.86,0,0,0-1.13-.23,5.51,5.51,0,0,0-1.67.39q-1.11.39-1.11,1c0,.16.22.4.66.7s.91.63,1.43.95a5.65,5.65,0,0,1,1.43,1.35,3,3,0,0,1,.65,1.88c0,.67-.49,1.35-1.46,2a5.9,5.9,0,0,1-3.45,1,6.13,6.13,0,0,1-3.38-.9c-.94-.6-1.41-1.21-1.41-1.85s.26-.95.78-.95a1.54,1.54,0,0,1,.75.25,5.92,5.92,0,0,0,3,.7c1.2,0,1.81-.16,1.81-.48a1.58,1.58,0,0,0-.7-1.09,13.18,13.18,0,0,0-1.5-1.1,7.72,7.72,0,0,1-1.5-1.26,2.17,2.17,0,0,1-.69-1.45c0-.87.79-1.83,2.37-2.86A7.72,7.72,0,0,1,267.78,263.11Z"/><path class="cls-2" d="M373.7,252.32h8.16a0,0,0,0,1,0,0V267a0,0,0,0,1,0,0H373.7a4.81,4.81,0,0,1-4.81-4.81v-5a4.81,4.81,0,0,1,4.81-4.81Z"/><polygon class="cls-2" points="397.75 274.12 383.81 267.11 383.81 252.45 397.75 243.53 397.75 274.12"/><path class="cls-3" d="M402.78,238.81c10.92,0,15.65,8.73,15.65,19.69s-5.05,20-16,20"/><path class="cls-3" d="M402.53,244c8.16,0,11.68,6.51,11.68,14.69s-3.77,14.93-11.92,14.93"/><path class="cls-3" d="M402.49,250c5.24,0,7.5,4.18,7.5,9.44s-2.42,9.59-7.65,9.59"/><path class="cls-4" d="M312,253.11h7.26a0,0,0,0,1,0,0v13a0,0,0,0,1,0,0H312a4.28,4.28,0,0,1-4.28-4.28v-4.46A4.28,4.28,0,0,1,312,253.11Z"/><polygon class="cls-4" points="333.39 272.51 320.99 266.27 320.99 253.23 333.39 245.3 333.39 272.51"/><polygon class="cls-4" points="346.49 265.54 345.8 265.94 337.82 252.07 338.51 251.67 346.49 265.54"/><polygon class="cls-4" points="338.61 266.04 337.92 265.63 345.9 251.77 346.59 252.17 338.61 266.04"/><path d="M491.3,58.12h0a1.19,1.19,0,0,1-1.33-.33l-26.38-29.9a1.22,1.22,0,0,1,.48-1.95h0a1.21,1.21,0,0,1,1.34.33l26.38,29.9A1.22,1.22,0,0,1,491.3,58.12Z"/><path d="M464.42,58.35h0a1.22,1.22,0,0,1-.48-2l26.38-29.9a1.2,1.2,0,0,1,1.34-.33h0a1.23,1.23,0,0,1,.48,1.95L465.76,58A1.21,1.21,0,0,1,464.42,58.35Z"/></g></svg>
