<svg xmlns="http://www.w3.org/2000/svg" width="1920" height="1080" viewBox="0 0 1920 1080"><defs><style>.cls-1,.cls-2,.cls-3,.cls-4,.cls-5{fill:#f4ca92;}.cls-1{opacity:0.7;}.cls-2,.cls-6{opacity:0.9;}.cls-11,.cls-3{opacity:0.8;}.cls-12,.cls-4{opacity:0.6;}.cls-6,.cls-7,.cls-8{fill:#48515a;}.cls-8{opacity:0.95;}.cls-9{fill:#60421e;}.cls-10,.cls-11,.cls-12{fill:#f0762b;}</style></defs><title>scene_foregrund</title><g id="Layer_2" data-name="Layer 2"><path class="cls-1" d="M85.48,605.56H.51V848.74H82.77C85.3,767.74,86.6,686.7,85.48,605.56Z"/><path class="cls-2" d="M155.17,605.56H85.48c1.12,81.14-.18,162.18-2.71,243.18h73.94C156.3,767.64,155.06,686.54,155.17,605.56Z"/><path class="cls-3" d="M406.12,605.56H155.17c-.11,81,1.13,162.08,1.54,243.18H405.87C406,767.64,406.28,686.55,406.12,605.56Z"/><path class="cls-4" d="M925,605.56H406.12c.16,81-.09,162.08-.25,243.18H925Z"/><path class="cls-5" d="M1920,605.56H925V848.74h995Z"/></g><g id="Layer_4" data-name="Layer 4"><path class="cls-6" d="M.73,848.74a.22.22,0,0,0-.22.22v230.82a.22.22,0,0,0,.22.22H318V848.74Z"/><path class="cls-7" d="M318,848.74V1080H578V848.74Z"/><path class="cls-8" d="M578,848.74V1080H681V848.74Z"/><path class="cls-7" d="M1919.78,848.74H681V1080H1919.78a.22.22,0,0,0,.22-.22V849A.22.22,0,0,0,1919.78,848.74Z"/><rect class="cls-9" y="848.74" width="1920" height="35.32" rx="12"/></g><g id="Layer_5" data-name="Layer 5"><path class="cls-10" d="M495.71,905.08H393.36c.88,57.66-3.72,115.63,0,172.86H495.71A45.4,45.4,0,0,0,541,1032.68V950.33A45.39,45.39,0,0,0,495.71,905.08Z"/><path class="cls-11" d="M393.36,905.08H304c1,57.45.18,115.15-.18,172.86h89.51C389.64,1020.71,394.24,962.74,393.36,905.08Z"/><path class="cls-12" d="M304,905.08H286.39a45.38,45.38,0,0,0-45.25,45.25v82.35a45.39,45.39,0,0,0,45.25,45.26h17.45C304.2,1020.23,305,962.53,304,905.08ZM281.8,1073v0Z"/><path class="cls-10" d="M1093.88,906.11H991.52c.88,57.66-3.71,115.64,0,172.86h102.37a45.4,45.4,0,0,0,45.26-45.26V951.37A45.4,45.4,0,0,0,1093.88,906.11Z"/><path class="cls-11" d="M991.52,906.11H902.18c1,57.45.19,115.16-.17,172.86h89.5C987.81,1021.75,992.4,963.77,991.52,906.11Z"/><path class="cls-12" d="M902.18,906.11H884.56a45.4,45.4,0,0,0-45.26,45.26v82.34A45.4,45.4,0,0,0,884.56,1079H902C902.37,1021.27,903.19,963.56,902.18,906.11ZM880,1074v0Z"/><path class="cls-10" d="M1676.51,906.11H1574.15c.88,57.66-3.71,115.64,0,172.86h102.37a45.39,45.39,0,0,0,45.25-45.26V951.37A45.39,45.39,0,0,0,1676.51,906.11Z"/><path class="cls-11" d="M1574.15,906.11h-89.34c1,57.45.19,115.16-.17,172.86h89.5C1570.44,1021.75,1575,963.77,1574.15,906.11Z"/><path class="cls-12" d="M1484.81,906.11h-17.62a45.4,45.4,0,0,0-45.26,45.26v82.34a45.4,45.4,0,0,0,45.26,45.26h17.45C1485,1021.27,1485.82,963.56,1484.81,906.11ZM1462.6,1074v0Z"/><path class="cls-10" d="M1453.61,1081.32l-26-69.45c-2.7-13.33-10.11-18.59-18.94-19v85.39c2.45,1.79,4.92,3.51,7.4,5.12A261.19,261.19,0,0,1,1453.61,1081.32Z"/><path class="cls-12" d="M1365.14,1023.07c-2.63,11,18.86,37.07,43.55,55.21V992.89C1391.2,992.11,1368.15,1010.47,1365.14,1023.07Z"/><path class="cls-10" d="M871,1078.74l-26-69.45c-2.7-13.33-10.11-18.58-18.93-19v85.4q3.66,2.68,7.39,5.12A262.64,262.64,0,0,1,871,1078.74Z"/><path class="cls-12" d="M782.51,1020.49c-2.63,11,18.86,37.07,43.56,55.22v-85.4C808.57,989.54,785.52,1007.89,782.51,1020.49Z"/><path class="cls-10" d="M272.82,1076.18l-26-69.45c-2.7-13.33-10.11-18.59-18.93-19v85.39q3.66,2.7,7.4,5.13A259.6,259.6,0,0,1,272.82,1076.18Z"/><path class="cls-12" d="M184.34,1017.93c-2.63,11,18.87,37.07,43.56,55.21V987.75C210.41,987,187.35,1005.33,184.34,1017.93Z"/></g></svg>
