<svg xmlns="http://www.w3.org/2000/svg" width="1920" height="1080" viewBox="0 0 1920 1080"><defs><style>.cls-1,.cls-2,.cls-3,.cls-4{fill:#48515a;}.cls-1{opacity:0.7;}.cls-10,.cls-13,.cls-2,.cls-7{opacity:0.8;}.cls-3{opacity:0.88;}.cls-4{opacity:0.9;}.cls-5{fill:#695360;}.cls-6,.cls-7,.cls-8{fill:#60421e;}.cls-8{opacity:0.75;}.cls-9{fill:#316b0e;}.cls-10,.cls-11{fill:#e76026;}.cls-12{fill:#fff;opacity:0.4;}.cls-13{fill:#efd610;}</style></defs><title>scene_baggrund</title><g id="Layer_8" data-name="Layer 8"><path class="cls-1" d="M-1.37-3.92c-7,0-12.69,9.68-12.69,21.5V1067c0,11.83,5.71,21.5,12.69,21.5H281V-3.92Z"/><path class="cls-2" d="M433.43-3.92H281V1080H432.41C432.73,718.6,434.19,357.16,433.43-3.92Z"/><path class="cls-3" d="M945.39-3.28H432.82c.76,360.87-.7,722.09-1,1083.28H945.39Z"/><path class="cls-4" d="M1914.39-3.28H943.92V1080h970.47c6.65,0,12.09-9.6,12.09-21.33V18C1926.48,6.31,1921-3.28,1914.39-3.28Z"/><path class="cls-5" d="M1439.46,220.15a12.72,12.72,0,0,0-1-4.83c-4.1-9.8-6.42-17.83-8.27-22.29l-.74-36c-.37-2.14-.1-2.51-1.48-2.51h-13.7c-1.38,0-1.11.37-1.48,2.51l-.74,36.4,0,0c-.11.32-.21.67-.31,1l-.32-.29-2.67,11.48c-5,13-4.57,13-4.57,18.51L1404,232a1.15,1.15,0,0,0-.79,1.09v28.84l-.13,5c0,.34-.1.69-.1,1-.29,11.67-2.2,13.92,3.9,20.22a23.15,23.15,0,0,0,3.81,1.85l.35,0a10.58,10.58,0,0,0,2.65.34h15.67a10.53,10.53,0,0,0,10.49-10.5Z"/><path class="cls-5" d="M1411.69,152.46a1.67,1.67,0,0,0,1.66,1.67h15.93a1.67,1.67,0,0,0,0-3.34h3.14c0-1.63-5.05-3-11.29-3s-11.29,1.33-11.29,3h3.51A1.67,1.67,0,0,0,1411.69,152.46Z"/><path class="cls-5" d="M1415.71,235.1a12.9,12.9,0,0,0-1-4.83c-4.06-9.8-6.35-17.83-8.19-22.29l-.73-36c-.37-2.14-.1-2.51-1.47-2.51h-13.57c-1.37,0-1.1.37-1.46,2.51l-.73,36.4,0,0c-.11.32-.21.67-.31,1l-.32-.29-2.64,11.48c-4.91,13-4.53,13-4.53,18.51l-.21,7.84a1.16,1.16,0,0,0-.78,1.09v28.83l-.13,5.05c0,.34-.1.69-.1,1-.28,11.67-2.18,13.92,3.86,20.22a22.74,22.74,0,0,0,3.77,1.85l.36,0a10.28,10.28,0,0,0,2.62.34h15.52a10.48,10.48,0,0,0,10.4-10.5Z"/><path class="cls-5" d="M1388.2,167.41a1.67,1.67,0,0,0,1.66,1.67h15.77a1.67,1.67,0,0,0,0-3.34h3.12c0-1.63-5-3-11.19-3s-11.19,1.33-11.19,3h3.49A1.67,1.67,0,0,0,1388.2,167.41Z"/><path class="cls-5" d="M1463.28,230.43a12.73,12.73,0,0,0-1-4.83c-4.1-9.8-6.41-17.83-8.27-22.29l-.73-36c-.37-2.14-.1-2.51-1.48-2.51h-13.7c-1.38,0-1.11.37-1.48,2.51l-.74,36.4,0,0c-.11.32-.21.67-.31,1l-.32-.3-2.67,11.48c-5,13-4.57,13-4.57,18.52l-.21,7.83a1.15,1.15,0,0,0-.79,1.09v28.84l-.13,5c0,.35-.1.69-.11,1-.28,11.67-2.19,13.92,3.9,20.22a22.75,22.75,0,0,0,3.81,1.85l.36,0a10.58,10.58,0,0,0,2.65.34h15.67a10.52,10.52,0,0,0,10.49-10.5Z"/><path class="cls-5" d="M1435.51,162.74a1.67,1.67,0,0,0,1.66,1.67h15.92a1.67,1.67,0,1,0,0-3.33h3.15c0-1.64-5-3-11.29-3s-11.3,1.33-11.3,3h3.52A1.67,1.67,0,0,0,1435.51,162.74Z"/><path class="cls-5" d="M1486.41,216.9a12.73,12.73,0,0,0-1-4.84c-4.1-9.79-6.42-17.82-8.27-22.28l-.73-36c-.38-2.15-.1-2.52-1.49-2.52h-13.7c-1.38,0-1.11.37-1.48,2.52l-.73,36.4,0,0c-.1.33-.21.67-.31,1l-.32-.3-2.67,11.48c-5,13-4.57,13-4.57,18.52l-.21,7.84a1.15,1.15,0,0,0-.79,1.08v28.84l-.13,5c0,.35-.09.7-.1,1-.28,11.67-2.2,13.93,3.9,20.22a22,22,0,0,0,3.81,1.85l.36,0a10.44,10.44,0,0,0,2.64.34h15.67a10.53,10.53,0,0,0,10.5-10.49Z"/><path class="cls-5" d="M1458.64,149.21a1.67,1.67,0,0,0,1.67,1.66h15.92a1.67,1.67,0,1,0,0-3.33h3.15c0-1.64-5.06-3-11.3-3s-11.29,1.32-11.29,3h3.52A1.67,1.67,0,0,0,1458.64,149.21Z"/><path class="cls-5" d="M1514.45,233.76a12.72,12.72,0,0,0-1-4.83c-4.1-9.79-6.41-17.82-8.27-22.29l-.73-36c-.37-2.14-.1-2.51-1.49-2.51h-13.7c-1.38,0-1.11.37-1.48,2.51l-.73,36.41,0,0c-.11.33-.21.67-.32,1l-.32-.3-2.67,11.48c-5,13-4.57,13-4.57,18.52l-.21,7.84a1.15,1.15,0,0,0-.79,1.08v28.84l-.13,5c0,.35-.09.69-.1,1-.28,11.67-2.2,13.93,3.9,20.22a22.75,22.75,0,0,0,3.81,1.85l.36,0a10.46,10.46,0,0,0,2.65.34h15.66a10.53,10.53,0,0,0,10.5-10.49Z"/><path class="cls-5" d="M1486.68,166.07a1.67,1.67,0,0,0,1.67,1.67h15.92a1.67,1.67,0,1,0,0-3.33h3.15c0-1.64-5.06-3-11.3-3s-11.29,1.32-11.29,3h3.52A1.67,1.67,0,0,0,1486.68,166.07Z"/><path class="cls-5" d="M1540.88,223.17a12.72,12.72,0,0,0-1-4.83c-4.1-9.79-6.42-17.82-8.27-22.29l-.74-36c-.37-2.14-.09-2.51-1.48-2.51h-13.7c-1.38,0-1.11.37-1.48,2.51l-.73,36.41,0,0c-.1.32-.21.67-.31,1l-.32-.3-2.67,11.48c-5,13-4.57,13-4.57,18.52l-.21,7.84a1.15,1.15,0,0,0-.79,1.08V264.9l-.13,5c0,.35-.09.69-.1,1-.28,11.67-2.2,13.92,3.9,20.22a22.38,22.38,0,0,0,3.81,1.85l.36,0a10.44,10.44,0,0,0,2.64.34h15.67a10.53,10.53,0,0,0,10.5-10.5Z"/><path class="cls-5" d="M1513.11,155.48a1.67,1.67,0,0,0,1.67,1.67h15.92a1.67,1.67,0,1,0,0-3.33h3.15c0-1.64-5.06-3-11.3-3s-11.29,1.33-11.29,3h3.52A1.67,1.67,0,0,0,1513.11,155.48Z"/><path class="cls-5" d="M1567.92,233.76a12.72,12.72,0,0,0-1-4.83c-4.1-9.79-6.42-17.82-8.27-22.29l-.74-36c-.37-2.14-.1-2.51-1.48-2.51h-13.7c-1.38,0-1.11.37-1.48,2.51l-.74,36.41,0,0c-.11.33-.21.67-.31,1l-.32-.3-2.67,11.48c-5,13-4.57,13-4.57,18.52l-.21,7.84a1.14,1.14,0,0,0-.79,1.08v28.84l-.13,5c0,.35-.1.69-.1,1-.29,11.67-2.2,13.93,3.9,20.22a22.38,22.38,0,0,0,3.81,1.85l.35,0a10.58,10.58,0,0,0,2.65.34h15.67a10.52,10.52,0,0,0,10.49-10.49Z"/><path class="cls-5" d="M1540.15,166.07a1.67,1.67,0,0,0,1.66,1.67h15.93a1.67,1.67,0,0,0,0-3.33h3.14c0-1.64-5.05-3-11.29-3s-11.29,1.32-11.29,3h3.51A1.67,1.67,0,0,0,1540.15,166.07Z"/><path class="cls-5" d="M1598.9,226.51a12.73,12.73,0,0,0-1-4.84c-4.1-9.79-6.42-17.82-8.27-22.28l-.73-36c-.38-2.15-.1-2.52-1.49-2.52h-13.7c-1.38,0-1.11.37-1.48,2.52l-.73,36.4,0,0c-.1.33-.21.67-.31,1l-.32-.3L1568.18,212c-5,13-4.57,13-4.57,18.52l-.21,7.84a1.15,1.15,0,0,0-.79,1.08v28.84l-.13,5c0,.35-.09.7-.1,1-.28,11.67-2.2,13.93,3.9,20.22a22,22,0,0,0,3.81,1.85l.36,0a10.44,10.44,0,0,0,2.64.34h15.67a10.53,10.53,0,0,0,10.5-10.49Z"/><path class="cls-5" d="M1571.13,158.82a1.67,1.67,0,0,0,1.67,1.66h15.92a1.67,1.67,0,1,0,0-3.33h3.15c0-1.64-5.06-3-11.3-3s-11.29,1.32-11.29,3h3.52A1.67,1.67,0,0,0,1571.13,158.82Z"/><path class="cls-5" d="M1755.07,222.22a12.81,12.81,0,0,0-1-4.84c-4.1-9.79-6.41-17.82-8.27-22.28l-.73-36c-.37-2.14-.1-2.51-1.48-2.51h-13.71c-1.38,0-1.11.37-1.48,2.51l-.73,36.4,0,0c-.11.32-.21.66-.32,1l-.32-.29-2.66,11.48c-5,13-4.58,13-4.58,18.51l-.2,7.84a1.14,1.14,0,0,0-.79,1.09v28.83l-.14,5.05c0,.34-.09.69-.1,1-.28,11.67-2.2,13.92,3.9,20.22a23.55,23.55,0,0,0,3.81,1.85l.36,0a10.46,10.46,0,0,0,2.65.34h15.66a10.53,10.53,0,0,0,10.5-10.5Z"/><path class="cls-5" d="M1727.3,154.53a1.67,1.67,0,0,0,1.67,1.67h15.92a1.67,1.67,0,0,0,0-3.34H1748c0-1.63-5.06-3-11.3-3s-11.29,1.33-11.29,3H1729A1.67,1.67,0,0,0,1727.3,154.53Z"/><path class="cls-5" d="M1731.33,237.17a12.81,12.81,0,0,0-1-4.84c-4.06-9.79-6.35-17.82-8.19-22.28l-.73-36c-.36-2.14-.09-2.51-1.46-2.51h-13.57c-1.37,0-1.1.37-1.47,2.51l-.73,36.4,0,0c-.11.32-.21.66-.31,1l-.32-.29-2.64,11.48c-4.91,13-4.53,13-4.53,18.51l-.2,7.84a1.14,1.14,0,0,0-.79,1.09v28.83l-.13,5c0,.35-.09.7-.1,1.05-.28,11.67-2.18,13.92,3.86,20.22a23.24,23.24,0,0,0,3.78,1.85l.35,0a10.34,10.34,0,0,0,2.62.34h15.52a10.48,10.48,0,0,0,10.4-10.5Z"/><path class="cls-5" d="M1703.82,169.48a1.66,1.66,0,0,0,1.65,1.67h15.77a1.67,1.67,0,0,0,0-3.34h3.12c0-1.63-5-3-11.19-3s-11.19,1.33-11.19,3h3.49A1.66,1.66,0,0,0,1703.82,169.48Z"/><path class="cls-5" d="M1778.89,232.5a12.72,12.72,0,0,0-1-4.83c-4.1-9.8-6.42-17.83-8.27-22.29l-.74-36c-.37-2.14-.09-2.51-1.48-2.51h-13.7c-1.38,0-1.11.37-1.48,2.51l-.73,36.4,0,0c-.1.32-.21.67-.31,1l-.32-.3L1748.17,218c-5,13-4.57,13-4.57,18.51l-.21,7.84a1.17,1.17,0,0,0-.79,1.09v28.84l-.13,5c0,.34-.09.69-.1,1-.28,11.67-2.2,13.92,3.9,20.22a23.15,23.15,0,0,0,3.81,1.85l.36,0a10.44,10.44,0,0,0,2.64.34h15.67a10.54,10.54,0,0,0,10.5-10.5Z"/><path class="cls-5" d="M1751.12,164.81a1.67,1.67,0,0,0,1.67,1.67h15.92a1.67,1.67,0,1,0,0-3.34h3.15c0-1.63-5.06-3-11.3-3s-11.29,1.33-11.29,3h3.52A1.67,1.67,0,0,0,1751.12,164.81Z"/><path class="cls-5" d="M1802,219a12.73,12.73,0,0,0-1-4.83c-4.1-9.79-6.41-17.82-8.27-22.28l-.73-36c-.37-2.14-.1-2.51-1.48-2.51h-13.7c-1.39,0-1.11.37-1.48,2.51l-.74,36.41,0,0c-.11.33-.21.67-.31,1l-.32-.3-2.67,11.48c-5,13-4.57,13-4.57,18.52l-.21,7.84a1.14,1.14,0,0,0-.79,1.08v28.84l-.14,5c0,.35-.09.69-.1,1-.28,11.67-2.19,13.93,3.9,20.22a22.75,22.75,0,0,0,3.81,1.85l.36,0a10.52,10.52,0,0,0,2.65.34h15.66a10.52,10.52,0,0,0,10.5-10.49Z"/><path class="cls-5" d="M1774.25,151.27a1.67,1.67,0,0,0,1.67,1.67h15.92a1.67,1.67,0,1,0,0-3.33H1795c0-1.64-5-3-11.29-3s-11.3,1.32-11.3,3h3.52A1.67,1.67,0,0,0,1774.25,151.27Z"/><path class="cls-5" d="M1830.07,235.83a12.73,12.73,0,0,0-1-4.83c-4.1-9.79-6.41-17.82-8.27-22.29l-.73-36c-.37-2.14-.1-2.51-1.48-2.51h-13.7c-1.38,0-1.11.37-1.48,2.51l-.74,36.41,0,0c-.11.33-.21.67-.31,1l-.32-.3-2.67,11.48c-5,13-4.57,13-4.57,18.52l-.21,7.84a1.14,1.14,0,0,0-.79,1.08v28.84l-.13,5c0,.35-.1.69-.11,1-.28,11.67-2.19,13.92,3.9,20.22a22.75,22.75,0,0,0,3.81,1.85l.36,0a10.58,10.58,0,0,0,2.65.34h15.67a10.52,10.52,0,0,0,10.49-10.5Z"/><path class="cls-5" d="M1802.3,168.14a1.67,1.67,0,0,0,1.66,1.67h15.92a1.67,1.67,0,1,0,0-3.33H1823c0-1.64-5-3-11.29-3s-11.3,1.33-11.3,3H1804A1.67,1.67,0,0,0,1802.3,168.14Z"/><path class="cls-5" d="M1856.5,225.24a12.73,12.73,0,0,0-1-4.83c-4.1-9.79-6.41-17.83-8.27-22.29l-.73-36c-.37-2.14-.1-2.51-1.48-2.51h-13.7c-1.39,0-1.11.37-1.49,2.51l-.73,36.4,0,0c-.11.32-.21.67-.31,1l-.33-.3-2.66,11.48c-5,13-4.58,13-4.58,18.52l-.2,7.84a1.13,1.13,0,0,0-.79,1.08V267l-.14,5c0,.35-.09.69-.1,1-.28,11.67-2.2,13.92,3.9,20.22a22.75,22.75,0,0,0,3.81,1.85l.36,0a10.52,10.52,0,0,0,2.65.34h15.66a10.52,10.52,0,0,0,10.5-10.5Z"/><path class="cls-5" d="M1828.72,157.55a1.67,1.67,0,0,0,1.67,1.67h15.92a1.67,1.67,0,1,0,0-3.33h3.15c0-1.64-5.06-3-11.29-3s-11.3,1.33-11.3,3h3.52A1.67,1.67,0,0,0,1828.72,157.55Z"/><path class="cls-5" d="M1883.53,235.83a12.72,12.72,0,0,0-1-4.83c-4.1-9.79-6.41-17.82-8.27-22.29l-.73-36c-.37-2.14-.1-2.51-1.48-2.51h-13.71c-1.38,0-1.11.37-1.48,2.51l-.73,36.41,0,0c-.11.33-.21.67-.32,1l-.32-.3-2.66,11.48c-5,13-4.58,13-4.58,18.52l-.2,7.84a1.15,1.15,0,0,0-.8,1.08v28.84l-.13,5c0,.35-.09.69-.1,1-.28,11.67-2.2,13.92,3.9,20.22a22.75,22.75,0,0,0,3.81,1.85l.36,0a10.46,10.46,0,0,0,2.65.34h15.66a10.52,10.52,0,0,0,10.5-10.5Z"/><path class="cls-5" d="M1855.76,168.14a1.67,1.67,0,0,0,1.67,1.67h15.92a1.67,1.67,0,1,0,0-3.33h3.15c0-1.64-5.06-3-11.3-3s-11.29,1.33-11.29,3h3.52A1.67,1.67,0,0,0,1855.76,168.14Z"/><path class="cls-5" d="M1914.52,228.57a12.73,12.73,0,0,0-1-4.83c-4.1-9.79-6.41-17.82-8.27-22.28l-.73-36c-.37-2.14-.1-2.51-1.48-2.51h-13.7c-1.39,0-1.11.37-1.48,2.51l-.74,36.41,0,0c-.11.33-.21.67-.31,1l-.32-.3L1883.8,214c-5,13-4.57,13-4.57,18.52l-.21,7.84a1.14,1.14,0,0,0-.79,1.08V270.3l-.14,5c0,.35-.09.69-.1,1-.28,11.67-2.19,13.93,3.9,20.22a22.75,22.75,0,0,0,3.81,1.85l.36,0a10.52,10.52,0,0,0,2.65.34h15.66a10.52,10.52,0,0,0,10.5-10.49Z"/><path class="cls-5" d="M1886.74,160.89a1.67,1.67,0,0,0,1.67,1.66h15.92a1.67,1.67,0,1,0,0-3.33h3.15c0-1.64-5-3-11.29-3s-11.3,1.32-11.3,3h3.52A1.67,1.67,0,0,0,1886.74,160.89Z"/><path class="cls-5" d="M1642.57,218.38a12.81,12.81,0,0,0-1-4.84c-4.1-9.79-6.42-17.82-8.27-22.28l-.74-36c-.37-2.14-.1-2.51-1.48-2.51h-13.7c-1.38,0-1.11.37-1.48,2.51l-.74,36.4,0,0c-.11.32-.21.66-.31,1l-.32-.29-2.67,11.48c-4.95,13-4.57,13-4.57,18.51l-.21,7.84a1.14,1.14,0,0,0-.79,1.09V260.1l-.13,5c0,.35-.1.7-.1,1.05-.29,11.67-2.2,13.92,3.9,20.22a23.15,23.15,0,0,0,3.81,1.85l.35,0a10.58,10.58,0,0,0,2.65.34h15.67a10.53,10.53,0,0,0,10.49-10.5Z"/><path class="cls-5" d="M1614.8,150.69a1.67,1.67,0,0,0,1.66,1.67h15.93a1.67,1.67,0,0,0,0-3.34h3.14c0-1.63-5-3-11.29-3s-11.29,1.33-11.29,3h3.51A1.67,1.67,0,0,0,1614.8,150.69Z"/><path class="cls-5" d="M1618.82,233.33a13,13,0,0,0-1-4.84c-4.06-9.79-6.35-17.82-8.19-22.28l-.73-36c-.37-2.14-.1-2.51-1.47-2.51h-13.57c-1.37,0-1.1.37-1.47,2.51l-.72,36.4,0,0c-.11.32-.21.66-.31,1l-.32-.29-2.64,11.48c-4.91,13-4.53,13-4.53,18.51l-.21,7.84a1.15,1.15,0,0,0-.78,1.09v28.83l-.13,5c0,.35-.1.7-.1,1.05-.28,11.67-2.18,13.92,3.86,20.21a22,22,0,0,0,3.77,1.86l.36,0a10.28,10.28,0,0,0,2.62.34h15.52a10.48,10.48,0,0,0,10.39-10.5Z"/><path class="cls-5" d="M1591.31,165.64a1.67,1.67,0,0,0,1.65,1.67h15.78a1.67,1.67,0,0,0,0-3.34h3.11c0-1.63-5-3-11.18-3s-11.19,1.33-11.19,3H1593A1.67,1.67,0,0,0,1591.31,165.64Z"/><path class="cls-5" d="M1666.39,228.66a12.73,12.73,0,0,0-1-4.83c-4.1-9.8-6.41-17.83-8.27-22.29l-.73-36c-.37-2.14-.1-2.51-1.48-2.51h-13.7c-1.39,0-1.11.37-1.48,2.51l-.74,36.4,0,0c-.11.32-.21.67-.31,1l-.32-.29-2.67,11.48c-5,13-4.57,13-4.57,18.51l-.21,7.84a1.15,1.15,0,0,0-.79,1.09v28.83l-.14,5.05c0,.34-.09.69-.1,1-.28,11.67-2.19,13.92,3.9,20.22a23.55,23.55,0,0,0,3.81,1.85l.36,0a10.58,10.58,0,0,0,2.65.34h15.66a10.53,10.53,0,0,0,10.5-10.5Z"/><path class="cls-5" d="M1638.62,161a1.66,1.66,0,0,0,1.66,1.67h15.92a1.67,1.67,0,0,0,0-3.34h3.15c0-1.63-5-3-11.29-3s-11.3,1.33-11.3,3h3.52A1.66,1.66,0,0,0,1638.62,161Z"/><path class="cls-5" d="M1689.52,215.12a12.72,12.72,0,0,0-1-4.83c-4.1-9.79-6.42-17.82-8.27-22.29l-.74-36c-.37-2.14-.09-2.51-1.48-2.51h-13.7c-1.38,0-1.11.37-1.48,2.51l-.73,36.41,0,0c-.1.33-.21.67-.31,1l-.32-.3-2.67,11.48c-5,13-4.57,13-4.57,18.52l-.21,7.84a1.15,1.15,0,0,0-.79,1.08v28.84l-.13,5c0,.35-.09.69-.1,1-.28,11.67-2.2,13.93,3.9,20.22a22.38,22.38,0,0,0,3.81,1.85l.36,0a10.44,10.44,0,0,0,2.64.34h15.67a10.53,10.53,0,0,0,10.5-10.49Z"/><path class="cls-5" d="M1661.75,147.43a1.67,1.67,0,0,0,1.67,1.67h15.92a1.67,1.67,0,1,0,0-3.33h3.15c0-1.64-5.06-3-11.3-3s-11.29,1.32-11.29,3h3.52A1.67,1.67,0,0,0,1661.75,147.43Z"/><path class="cls-5" d="M1717.56,232a12.72,12.72,0,0,0-1-4.83c-4.1-9.79-6.42-17.82-8.27-22.29l-.73-36c-.38-2.14-.1-2.51-1.49-2.51h-13.7c-1.38,0-1.11.37-1.48,2.51l-.73,36.41,0,0c-.1.32-.21.67-.31,1l-.32-.3-2.67,11.48c-4.95,13-4.57,13-4.57,18.52l-.21,7.84a1.15,1.15,0,0,0-.79,1.08v28.84l-.13,5c0,.35-.09.69-.1,1-.28,11.67-2.2,13.92,3.9,20.22a22.75,22.75,0,0,0,3.81,1.85l.36,0a10.44,10.44,0,0,0,2.64.34h15.67a10.53,10.53,0,0,0,10.5-10.5Z"/><path class="cls-5" d="M1689.79,164.3a1.67,1.67,0,0,0,1.67,1.67h15.92a1.67,1.67,0,1,0,0-3.33h3.15c0-1.64-5.06-3-11.3-3s-11.29,1.33-11.29,3h3.52A1.67,1.67,0,0,0,1689.79,164.3Z"/><path class="cls-5" d="M68.87,224.31a12.72,12.72,0,0,0-1-4.83c-4.1-9.8-6.42-17.83-8.27-22.29l-.74-36c-.37-2.14-.1-2.51-1.48-2.51H43.69c-1.38,0-1.11.37-1.48,2.51l-.74,36.4,0,0c-.11.32-.21.67-.31,1l-.32-.3-2.67,11.48c-4.95,13-4.57,13-4.57,18.52l-.21,7.84a1.13,1.13,0,0,0-.79,1.08V266l-.13,5c0,.35-.1.69-.1,1-.29,11.67-2.2,13.92,3.9,20.22a22.38,22.38,0,0,0,3.81,1.85l.35,0a10.58,10.58,0,0,0,2.65.34H58.73a10.52,10.52,0,0,0,10.49-10.5Z"/><path class="cls-5" d="M41.1,156.62a1.67,1.67,0,0,0,1.66,1.67H58.69a1.67,1.67,0,0,0,0-3.33h3.14c0-1.64-5-3-11.29-3s-11.29,1.33-11.29,3h3.51A1.67,1.67,0,0,0,41.1,156.62Z"/><path class="cls-5" d="M45.12,239.26a12.9,12.9,0,0,0-1-4.83c-4.06-9.8-6.35-17.83-8.19-22.29l-.73-36c-.37-2.14-.1-2.51-1.47-2.51H20.18c-1.37,0-1.1.37-1.46,2.51L18,212.52l0,0c-.11.32-.21.67-.31,1l-.32-.3L14.7,224.71c-4.91,13-4.53,13-4.53,18.52L10,251.06a1.16,1.16,0,0,0-.78,1.09V281l-.13,5c0,.35-.1.69-.1,1-.28,11.67-2.18,13.92,3.86,20.22a22,22,0,0,0,3.77,1.85l.36,0a10.28,10.28,0,0,0,2.62.34H35.08A10.48,10.48,0,0,0,45.48,299Z"/><path class="cls-5" d="M17.61,171.57a1.67,1.67,0,0,0,1.66,1.67H35a1.67,1.67,0,0,0,0-3.33h3.12c0-1.64-5-3-11.19-3s-11.19,1.33-11.19,3h3.49A1.67,1.67,0,0,0,17.61,171.57Z"/><path class="cls-5" d="M92.69,234.59a12.73,12.73,0,0,0-1-4.83c-4.1-9.79-6.41-17.82-8.27-22.29l-.73-36c-.37-2.14-.1-2.51-1.48-2.51H67.51c-1.38,0-1.11.37-1.48,2.51l-.74,36.41,0,0c-.11.32-.21.67-.31,1l-.32-.3L62,220c-5,13-4.57,13-4.57,18.52l-.21,7.84a1.14,1.14,0,0,0-.79,1.08v28.84l-.13,5c0,.35-.1.69-.11,1-.28,11.67-2.19,13.92,3.9,20.22a22.75,22.75,0,0,0,3.81,1.85l.36,0a10.58,10.58,0,0,0,2.65.34H82.55A10.52,10.52,0,0,0,93,294.34Z"/><path class="cls-5" d="M64.92,166.9a1.67,1.67,0,0,0,1.66,1.67H82.5a1.67,1.67,0,1,0,0-3.33h3.15c0-1.64-5.05-3-11.29-3s-11.3,1.33-11.3,3h3.52A1.67,1.67,0,0,0,64.92,166.9Z"/><path class="cls-5" d="M115.82,221.06a12.77,12.77,0,0,0-1-4.84c-4.1-9.79-6.42-17.82-8.27-22.28l-.74-36c-.37-2.15-.09-2.52-1.48-2.52H90.64c-1.38,0-1.11.37-1.48,2.52l-.73,36.4,0,0c-.1.32-.21.66-.31,1l-.32-.29L85.1,206.51c-4.95,13-4.57,13-4.57,18.51l-.21,7.84a1.16,1.16,0,0,0-.79,1.09v28.83l-.13,5c0,.35-.09.7-.1,1.05-.28,11.66-2.2,13.92,3.9,20.21A22,22,0,0,0,87,290.93l.36,0a10,10,0,0,0,2.64.34h15.67a10.53,10.53,0,0,0,10.5-10.49Z"/><path class="cls-5" d="M88.05,153.37A1.67,1.67,0,0,0,89.72,155h15.92a1.67,1.67,0,1,0,0-3.33h3.15c0-1.64-5.06-3-11.3-3s-11.29,1.32-11.29,3h3.52A1.67,1.67,0,0,0,88.05,153.37Z"/><path class="cls-5" d="M143.86,237.93a12.73,12.73,0,0,0-1-4.84c-4.1-9.79-6.41-17.82-8.27-22.28l-.73-36c-.37-2.15-.1-2.52-1.49-2.52h-13.7c-1.38,0-1.11.37-1.48,2.52l-.73,36.4,0,0c-.11.33-.21.67-.32,1l-.32-.3-2.67,11.48c-5,13-4.57,13-4.57,18.52l-.21,7.84a1.15,1.15,0,0,0-.79,1.08v28.84l-.13,5c0,.35-.09.7-.1,1-.28,11.67-2.2,13.93,3.9,20.22a22,22,0,0,0,3.81,1.85l.36,0a10.46,10.46,0,0,0,2.65.34h15.66a10.53,10.53,0,0,0,10.5-10.49Z"/><path class="cls-5" d="M116.09,170.24a1.67,1.67,0,0,0,1.67,1.66h15.92a1.67,1.67,0,1,0,0-3.33h3.15c0-1.64-5.06-3-11.3-3s-11.29,1.32-11.29,3h3.52A1.67,1.67,0,0,0,116.09,170.24Z"/><path class="cls-5" d="M170.29,227.33a12.72,12.72,0,0,0-1-4.83c-4.1-9.79-6.42-17.82-8.27-22.29l-.74-36c-.37-2.14-.09-2.51-1.48-2.51h-13.7c-1.38,0-1.11.37-1.48,2.51l-.73,36.41,0,0c-.1.33-.21.67-.31,1l-.32-.3-2.67,11.48c-4.95,13-4.57,13-4.57,18.52l-.21,7.84a1.15,1.15,0,0,0-.79,1.08v28.84l-.13,5c0,.35-.09.69-.1,1-.28,11.67-2.2,13.93,3.9,20.22a22.38,22.38,0,0,0,3.81,1.85l.36,0a10.44,10.44,0,0,0,2.64.34h15.67a10.53,10.53,0,0,0,10.5-10.49Z"/><path class="cls-5" d="M142.52,159.64a1.67,1.67,0,0,0,1.67,1.67h15.92a1.67,1.67,0,1,0,0-3.33h3.15c0-1.64-5.06-3-11.3-3s-11.29,1.32-11.29,3h3.52A1.67,1.67,0,0,0,142.52,159.64Z"/><path class="cls-5" d="M197.33,237.93a12.73,12.73,0,0,0-1-4.84c-4.1-9.79-6.42-17.82-8.27-22.28l-.74-36c-.37-2.15-.1-2.52-1.48-2.52h-13.7c-1.38,0-1.11.37-1.48,2.52l-.74,36.4,0,0c-.11.33-.21.67-.31,1l-.32-.3-2.67,11.48c-5,13-4.57,13-4.57,18.52l-.21,7.84a1.14,1.14,0,0,0-.79,1.08v28.84l-.13,5c0,.35-.1.7-.1,1-.29,11.67-2.2,13.93,3.9,20.22a21.65,21.65,0,0,0,3.81,1.85l.35,0a10.58,10.58,0,0,0,2.65.34h15.67a10.52,10.52,0,0,0,10.49-10.49Z"/><path class="cls-5" d="M169.56,170.24a1.67,1.67,0,0,0,1.66,1.66h15.93a1.67,1.67,0,0,0,0-3.33h3.14c0-1.64-5-3-11.29-3s-11.29,1.32-11.29,3h3.51A1.67,1.67,0,0,0,169.56,170.24Z"/><path class="cls-5" d="M228.31,230.67a12.77,12.77,0,0,0-1-4.84c-4.1-9.79-6.42-17.82-8.27-22.28l-.73-36c-.38-2.15-.1-2.52-1.49-2.52h-13.7c-1.38,0-1.11.37-1.48,2.52l-.73,36.4,0,0c-.1.32-.21.66-.31,1l-.32-.29-2.67,11.48c-5,13-4.57,13-4.57,18.51l-.21,7.84a1.16,1.16,0,0,0-.79,1.09v28.83l-.13,5c0,.35-.09.7-.1,1.05-.28,11.67-2.2,13.92,3.9,20.21a22,22,0,0,0,3.81,1.85l.36,0a10,10,0,0,0,2.64.35h15.67a10.54,10.54,0,0,0,10.5-10.5Z"/><path class="cls-5" d="M200.54,163a1.67,1.67,0,0,0,1.67,1.66h15.92a1.67,1.67,0,1,0,0-3.33h3.15c0-1.64-5.06-3-11.3-3s-11.29,1.32-11.29,3h3.52A1.67,1.67,0,0,0,200.54,163Z"/><path class="cls-5" d="M384.48,226.38a12.72,12.72,0,0,0-1-4.83c-4.1-9.8-6.41-17.83-8.27-22.29l-.73-36c-.37-2.14-.1-2.51-1.48-2.51H359.3c-1.38,0-1.11.37-1.48,2.51l-.73,36.4,0,0c-.11.32-.21.67-.32,1l-.32-.3-2.67,11.48c-4.95,13-4.57,13-4.57,18.51l-.2,7.84a1.16,1.16,0,0,0-.8,1.09v28.84l-.13,5c0,.35-.09.69-.1,1-.28,11.67-2.2,13.92,3.9,20.22a22.75,22.75,0,0,0,3.81,1.85l.36,0a10.46,10.46,0,0,0,2.65.34h15.66a10.52,10.52,0,0,0,10.5-10.5Z"/><path class="cls-5" d="M356.71,158.69a1.67,1.67,0,0,0,1.67,1.67H374.3a1.67,1.67,0,1,0,0-3.34h3.15c0-1.63-5.06-3-11.3-3s-11.29,1.33-11.29,3h3.52A1.67,1.67,0,0,0,356.71,158.69Z"/><path class="cls-5" d="M360.74,241.33a12.72,12.72,0,0,0-1-4.83c-4.06-9.8-6.35-17.83-8.19-22.29l-.73-36c-.36-2.14-.09-2.51-1.46-2.51H335.8c-1.37,0-1.1.37-1.47,2.51l-.73,36.4,0,0c-.11.32-.21.67-.31,1l-.32-.3-2.64,11.48c-4.91,13-4.53,13-4.53,18.51l-.2,7.84a1.15,1.15,0,0,0-.79,1.09v28.84l-.13,5c0,.34-.09.69-.1,1-.28,11.67-2.18,13.92,3.86,20.22a23.24,23.24,0,0,0,3.78,1.85l.35,0a10.34,10.34,0,0,0,2.62.34h15.52a10.48,10.48,0,0,0,10.4-10.5Z"/><path class="cls-5" d="M333.23,173.64a1.66,1.66,0,0,0,1.65,1.67h15.77a1.67,1.67,0,0,0,0-3.34h3.12c0-1.63-5-3-11.19-3s-11.19,1.33-11.19,3h3.49A1.66,1.66,0,0,0,333.23,173.64Z"/><path class="cls-5" d="M408.3,236.66a12.72,12.72,0,0,0-1-4.83c-4.1-9.8-6.42-17.83-8.27-22.29l-.74-36c-.37-2.14-.09-2.51-1.48-2.51h-13.7c-1.38,0-1.11.37-1.48,2.51l-.73,36.4,0,0c-.1.32-.21.67-.31,1l-.32-.3-2.67,11.48c-4.95,13-4.57,13-4.57,18.52l-.21,7.84a1.14,1.14,0,0,0-.79,1.08v28.84l-.13,5c0,.35-.09.69-.1,1-.28,11.67-2.2,13.92,3.9,20.22a22.38,22.38,0,0,0,3.81,1.85l.36,0a10.44,10.44,0,0,0,2.64.34h15.67a10.53,10.53,0,0,0,10.5-10.5Z"/><path class="cls-5" d="M380.53,169a1.67,1.67,0,0,0,1.67,1.67h15.92a1.67,1.67,0,1,0,0-3.33h3.15c0-1.64-5.06-3-11.3-3s-11.29,1.33-11.29,3h3.52A1.67,1.67,0,0,0,380.53,169Z"/><path class="cls-5" d="M431.44,223.13a12.74,12.74,0,0,0-1-4.84c-4.1-9.79-6.41-17.82-8.27-22.28l-.73-36c-.37-2.15-.1-2.52-1.48-2.52h-13.7c-1.39,0-1.11.37-1.48,2.52l-.74,36.4,0,0c-.11.33-.21.67-.31,1l-.32-.29-2.67,11.47c-5,13-4.57,13-4.57,18.52l-.21,7.84a1.14,1.14,0,0,0-.79,1.08v28.84l-.14,5c0,.35-.09.7-.1,1-.28,11.67-2.19,13.93,3.9,20.22a22,22,0,0,0,3.81,1.85l.36,0a10.52,10.52,0,0,0,2.65.34h15.66a10.52,10.52,0,0,0,10.5-10.49Z"/><path class="cls-5" d="M403.66,155.44a1.67,1.67,0,0,0,1.67,1.66h15.92a1.67,1.67,0,1,0,0-3.33h3.15c0-1.64-5.06-3-11.29-3s-11.3,1.32-11.3,3h3.52A1.67,1.67,0,0,0,403.66,155.44Z"/><path class="cls-5" d="M459.48,240a12.73,12.73,0,0,0-1-4.83c-4.1-9.79-6.41-17.82-8.27-22.28l-.73-36c-.37-2.14-.1-2.51-1.48-2.51H434.3c-1.38,0-1.11.37-1.48,2.51l-.74,36.41,0,0c-.11.33-.21.67-.31,1l-.32-.3-2.67,11.48c-5,13-4.57,13-4.57,18.52L424,251.8a1.14,1.14,0,0,0-.79,1.08v28.84l-.13,5c0,.35-.1.69-.11,1-.28,11.67-2.19,13.93,3.9,20.22a22.75,22.75,0,0,0,3.81,1.85l.36,0a10.58,10.58,0,0,0,2.65.34h15.67a10.52,10.52,0,0,0,10.49-10.49Z"/><path class="cls-5" d="M431.71,172.3a1.67,1.67,0,0,0,1.66,1.67h15.92a1.67,1.67,0,1,0,0-3.33h3.15c0-1.64-5.05-3-11.29-3s-11.3,1.32-11.3,3h3.52A1.67,1.67,0,0,0,431.71,172.3Z"/><path class="cls-5" d="M485.91,229.4a12.73,12.73,0,0,0-1-4.83c-4.1-9.79-6.41-17.82-8.27-22.29l-.73-36c-.37-2.14-.1-2.51-1.48-2.51h-13.7c-1.39,0-1.11.37-1.49,2.51l-.73,36.41,0,0c-.11.33-.21.67-.31,1l-.33-.3-2.66,11.48c-5,13-4.58,13-4.58,18.52l-.2,7.84a1.14,1.14,0,0,0-.79,1.08v28.84l-.14,5c0,.35-.09.69-.1,1-.28,11.67-2.2,13.92,3.9,20.22a22.75,22.75,0,0,0,3.81,1.85l.36,0a10.52,10.52,0,0,0,2.65.34h15.66a10.52,10.52,0,0,0,10.5-10.5Z"/><path class="cls-5" d="M458.13,161.71a1.67,1.67,0,0,0,1.67,1.67h15.92a1.67,1.67,0,1,0,0-3.33h3.15c0-1.64-5.06-3-11.29-3s-11.3,1.33-11.3,3h3.52A1.67,1.67,0,0,0,458.13,161.71Z"/><path class="cls-5" d="M512.94,240a12.72,12.72,0,0,0-1-4.83c-4.1-9.79-6.41-17.82-8.27-22.28l-.73-36c-.37-2.14-.1-2.51-1.48-2.51H487.76c-1.38,0-1.11.37-1.48,2.51l-.73,36.41,0,0c-.11.33-.21.67-.32,1l-.32-.3-2.67,11.48c-5,13-4.57,13-4.57,18.52l-.2,7.84a1.15,1.15,0,0,0-.8,1.08v28.84l-.13,5c0,.35-.09.69-.1,1-.28,11.67-2.2,13.93,3.9,20.22a22.75,22.75,0,0,0,3.81,1.85l.36,0a10.46,10.46,0,0,0,2.65.34H502.8a10.52,10.52,0,0,0,10.5-10.49Z"/><path class="cls-5" d="M485.17,172.3a1.67,1.67,0,0,0,1.67,1.67h15.92a1.67,1.67,0,1,0,0-3.33h3.15c0-1.64-5.06-3-11.3-3s-11.29,1.32-11.29,3h3.52A1.67,1.67,0,0,0,485.17,172.3Z"/><path class="cls-5" d="M543.93,232.74a12.74,12.74,0,0,0-1-4.84c-4.1-9.79-6.41-17.82-8.27-22.28l-.73-36c-.37-2.15-.1-2.52-1.48-2.52h-13.7c-1.39,0-1.11.37-1.48,2.52l-.74,36.4,0,0c-.11.33-.21.67-.31,1l-.32-.29-2.67,11.47c-5,13-4.57,13-4.57,18.52l-.21,7.84a1.14,1.14,0,0,0-.79,1.08v28.84l-.14,5c0,.35-.09.7-.1,1-.28,11.67-2.19,13.93,3.9,20.22a22,22,0,0,0,3.81,1.85l.36,0a10.52,10.52,0,0,0,2.65.34h15.66a10.52,10.52,0,0,0,10.5-10.49Z"/><path class="cls-5" d="M516.15,165.05a1.67,1.67,0,0,0,1.67,1.66h15.92a1.67,1.67,0,1,0,0-3.33h3.15c0-1.64-5-3-11.29-3s-11.3,1.32-11.3,3h3.52A1.67,1.67,0,0,0,516.15,165.05Z"/><path class="cls-5" d="M272,222.54a12.54,12.54,0,0,0-1-4.83c-4.09-9.8-6.41-17.83-8.26-22.29l-.74-36c-.37-2.14-.1-2.51-1.48-2.51H246.8c-1.38,0-1.11.37-1.48,2.51l-.74,36.4,0,0c-.11.32-.21.67-.31,1l-.32-.29L241.26,208c-4.95,13-4.57,13-4.57,18.51l-.21,7.84a1.15,1.15,0,0,0-.79,1.09v28.84l-.13,5c0,.34-.1.69-.1,1-.29,11.67-2.2,13.92,3.9,20.22a22.77,22.77,0,0,0,3.81,1.85l.35,0a10.58,10.58,0,0,0,2.65.34h15.67a10.53,10.53,0,0,0,10.49-10.5Z"/><path class="cls-5" d="M244.21,154.85a1.67,1.67,0,0,0,1.66,1.67H261.8a1.67,1.67,0,0,0,0-3.34h3.14c0-1.63-5.05-3-11.29-3s-11.29,1.33-11.29,3h3.51A1.67,1.67,0,0,0,244.21,154.85Z"/><path class="cls-5" d="M248.23,237.49a12.9,12.9,0,0,0-1-4.83c-4.06-9.8-6.35-17.83-8.19-22.29l-.73-36c-.37-2.14-.1-2.51-1.47-2.51H223.29c-1.37,0-1.1.37-1.47,2.51l-.72,36.4,0,0c-.11.32-.21.67-.31,1l-.32-.29-2.64,11.48c-4.91,13-4.53,13-4.53,18.51l-.21,7.84a1.16,1.16,0,0,0-.78,1.09v28.83l-.13,5.05c0,.34-.1.69-.1,1-.28,11.67-2.18,13.92,3.86,20.22a22.74,22.74,0,0,0,3.77,1.85l.36,0a10.28,10.28,0,0,0,2.62.34h15.52a10.48,10.48,0,0,0,10.39-10.5Z"/><path class="cls-5" d="M220.72,169.8a1.67,1.67,0,0,0,1.65,1.67h15.78a1.67,1.67,0,0,0,0-3.34h3.11c0-1.63-5-3-11.18-3s-11.19,1.33-11.19,3h3.48A1.67,1.67,0,0,0,220.72,169.8Z"/><path class="cls-5" d="M295.8,232.82a12.73,12.73,0,0,0-1-4.83c-4.1-9.8-6.41-17.83-8.27-22.29l-.73-36c-.37-2.14-.1-2.51-1.48-2.51h-13.7c-1.39,0-1.11.37-1.48,2.51l-.74,36.4,0,0c-.11.32-.21.67-.31,1l-.32-.3-2.67,11.48c-5,13-4.57,13-4.57,18.52l-.21,7.83a1.15,1.15,0,0,0-.79,1.09v28.84l-.14,5c0,.35-.09.69-.1,1-.28,11.67-2.19,13.92,3.9,20.22A22.75,22.75,0,0,0,267,302.7l.36,0a10.52,10.52,0,0,0,2.65.34h15.66a10.52,10.52,0,0,0,10.5-10.5Z"/><path class="cls-5" d="M268,165.13a1.67,1.67,0,0,0,1.67,1.67h15.92a1.67,1.67,0,1,0,0-3.33h3.15c0-1.64-5.05-3-11.29-3s-11.3,1.33-11.3,3h3.52A1.67,1.67,0,0,0,268,165.13Z"/><path class="cls-5" d="M318.93,219.28a12.72,12.72,0,0,0-1-4.83c-4.1-9.79-6.42-17.82-8.27-22.28l-.74-36c-.37-2.15-.09-2.52-1.48-2.52h-13.7c-1.38,0-1.11.37-1.48,2.52l-.73,36.4,0,0c-.1.33-.21.67-.31,1l-.32-.3-2.67,11.48c-4.95,13-4.57,13-4.57,18.52l-.21,7.84a1.15,1.15,0,0,0-.79,1.08V261l-.13,5c0,.35-.09.7-.1,1-.28,11.67-2.2,13.93,3.9,20.22a21.65,21.65,0,0,0,3.81,1.85l.36,0a10.44,10.44,0,0,0,2.64.34h15.67A10.53,10.53,0,0,0,319.29,279Z"/><path class="cls-5" d="M291.16,151.6a1.67,1.67,0,0,0,1.67,1.66h15.92a1.67,1.67,0,1,0,0-3.33h3.15c0-1.64-5.06-3-11.3-3s-11.29,1.32-11.29,3h3.52A1.67,1.67,0,0,0,291.16,151.6Z"/><path class="cls-5" d="M347,236.15a12.72,12.72,0,0,0-1-4.83c-4.1-9.79-6.42-17.82-8.27-22.29L337,173c-.38-2.14-.1-2.51-1.49-2.51h-13.7c-1.38,0-1.11.37-1.48,2.51l-.73,36.41,0,0c-.1.33-.21.67-.31,1l-.32-.3-2.67,11.48c-4.95,13-4.57,13-4.57,18.52l-.21,7.84a1.15,1.15,0,0,0-.79,1.08v28.84l-.13,5c0,.35-.09.69-.1,1-.28,11.67-2.2,13.93,3.9,20.22a22.75,22.75,0,0,0,3.81,1.85l.36,0a10.44,10.44,0,0,0,2.64.34h15.67a10.53,10.53,0,0,0,10.5-10.5Z"/><path class="cls-5" d="M319.2,168.46a1.67,1.67,0,0,0,1.67,1.67h15.92a1.67,1.67,0,1,0,0-3.33h3.15c0-1.64-5.06-3-11.3-3s-11.29,1.32-11.29,3h3.52A1.67,1.67,0,0,0,319.2,168.46Z"/><path class="cls-6" d="M13.41,305.72a12,12,0,0,0-12,12v10.57a12,12,0,0,0,12,12H275V305.72Z"/><path class="cls-7" d="M275,305.72v34.57H431V305.72Z"/><path class="cls-8" d="M547.93,305.72H431v34.57H547.93a12,12,0,0,0,12-12V317.72A12,12,0,0,0,547.93,305.72Z"/><path class="cls-6" d="M1380,303.21a12,12,0,0,0-12,12v10.57a12,12,0,0,0,12,12h261.59V303.21Z"/><path class="cls-7" d="M1641.55,303.21v34.57h156V303.21Z"/><path class="cls-8" d="M1914.48,303.21H1797.55v34.57h116.93a12,12,0,0,0,12-12V315.21A12,12,0,0,0,1914.48,303.21Z"/><rect class="cls-9" x="1097.82" y="-2.27" width="46.65" height="131.54"/><rect class="cls-9" x="1217.43" y="5.21" width="46.65" height="201.46" transform="translate(1134.81 1346.7) rotate(-90)"/><rect class="cls-9" x="1341.42" y="-2.27" width="46.65" height="131.54"/><rect class="cls-9" x="723.67" y="-2.27" width="46.65" height="131.54"/><rect class="cls-9" x="843.28" y="5.21" width="46.65" height="201.46" transform="translate(760.66 972.55) rotate(-90)"/><rect class="cls-9" x="967.27" y="-2.27" width="46.65" height="131.54"/><rect class="cls-9" x="354.75" y="-2.27" width="46.65" height="131.54"/><rect class="cls-9" x="474.36" y="5.21" width="46.65" height="201.46" transform="translate(391.74 603.63) rotate(-90)"/><rect class="cls-9" x="598.35" y="-2.27" width="46.65" height="131.54"/><rect class="cls-9" x="-14.06" y="-2.27" width="46.65" height="131.54"/><rect class="cls-9" x="105.55" y="5.21" width="46.65" height="201.46" transform="translate(22.93 234.82) rotate(-90)"/><rect class="cls-9" x="229.54" y="-2.27" width="46.65" height="131.54"/><rect class="cls-9" x="1476.59" y="-2.27" width="46.65" height="131.54"/><rect class="cls-9" x="1596.2" y="5.21" width="46.65" height="201.46" transform="translate(1513.58 1725.47) rotate(-90)"/><rect class="cls-9" x="1720.19" y="-2.27" width="46.65" height="131.54"/><rect class="cls-9" x="1853.91" y="-2.27" width="46.65" height="131.54"/><rect class="cls-9" x="1887.97" y="90.76" width="46.65" height="30.37" transform="translate(1805.36 2017.25) rotate(-90)"/><path class="cls-10" d="M514.79,2.33,453.22,35.38l-28.87,15.5c-10.17,5.46-6,20.1,5.71,20l90.61-1.06C521,46.84,521,23.91,521,1A11.84,11.84,0,0,0,514.79,2.33Z"/><path class="cls-11" d="M617.29,48.63,588.07,33.81,525.74,2.2A11.78,11.78,0,0,0,521,1c0,22.94,0,45.87-.33,68.81h.39l91-1.06C623.74,68.58,627.59,53.84,617.29,48.63Z"/><path class="cls-12" d="M573.26,36a6.66,6.66,0,0,1-3.33,12.43l-48.94,0-48.93,0a6.66,6.66,0,0,1-3.31-12.43l15.31-8.78L517.71,7.87a6.67,6.67,0,0,1,6.64,0L558,27.22Z"/><path class="cls-13" d="M542.4,69.78c0,8.7-10,15.76-22.31,15.76s-22.3-7.06-22.3-15.76"/><path class="cls-10" d="M855,1,793.38,34,764.51,49.53c-10.17,5.46-6,20.1,5.71,20l90.61-1c.3-22.94.33-45.88.33-68.82A12,12,0,0,0,855,1Z"/><path class="cls-11" d="M957.45,47.28,928.23,32.46,865.9.86a11.79,11.79,0,0,0-4.74-1.24c0,22.94,0,45.88-.33,68.82h.38l91-1.06C963.9,67.23,967.75,52.5,957.45,47.28Z"/><path class="cls-12" d="M913.42,34.68a6.66,6.66,0,0,1-3.33,12.43l-48.94,0-48.93,0a6.66,6.66,0,0,1-3.31-12.43l15.31-8.78L857.87,6.52a6.69,6.69,0,0,1,6.64,0l33.61,19.35Z"/><path class="cls-13" d="M882.56,68.44c0,8.7-10,15.76-22.31,15.76s-22.31-7.06-22.31-15.76"/><path class="cls-10" d="M1205.46,1,1143.89,34,1115,49.53c-10.16,5.46-6,20.1,5.71,20l90.62-1c.3-22.94.32-45.88.32-68.82A11.89,11.89,0,0,0,1205.46,1Z"/><path class="cls-11" d="M1308,47.28l-29.23-14.82L1216.41.86a11.84,11.84,0,0,0-4.75-1.24c0,22.94,0,45.88-.32,68.82h.38l91-1.06C1314.41,67.23,1318.25,52.5,1308,47.28Z"/><path class="cls-12" d="M1263.92,34.68a6.66,6.66,0,0,1-3.32,12.43l-48.94,0-48.94,0a6.65,6.65,0,0,1-3.3-12.43l15.31-8.78,33.65-19.29a6.68,6.68,0,0,1,6.63,0l33.62,19.35Z"/><path class="cls-13" d="M1233.06,68.44c0,8.7-10,15.76-22.3,15.76s-22.31-7.06-22.31-15.76"/><path class="cls-10" d="M1572.57.19,1511,33.24l-28.87,15.49c-10.17,5.46-6,20.1,5.71,20l90.61-1.06c.3-22.94.33-45.88.33-68.81A11.84,11.84,0,0,0,1572.57.19Z"/><path class="cls-11" d="M1675.08,46.48l-29.23-14.82L1583.52.06a11.74,11.74,0,0,0-4.74-1.23c0,22.93,0,45.87-.33,68.81h.39l91-1.06C1681.52,66.44,1685.37,51.7,1675.08,46.48Z"/><path class="cls-12" d="M1631,33.88a6.66,6.66,0,0,1-3.33,12.43l-48.94,0-48.93-.05a6.66,6.66,0,0,1-3.31-12.43L1541.84,25,1575.5,5.72a6.68,6.68,0,0,1,6.63,0l33.61,19.35Z"/><path class="cls-13" d="M1600.18,67.64c0,8.7-10,15.76-22.31,15.76s-22.3-7.06-22.3-15.76"/><path class="cls-10" d="M190.6,2.35,129,35.4,100.15,50.89c-10.16,5.46-6,20.1,5.71,20l90.62-1.06c.3-22.94.32-45.88.32-68.82A11.89,11.89,0,0,0,190.6,2.35Z"/><path class="cls-11" d="M293.1,48.64,263.87,33.82,201.55,2.22A11.84,11.84,0,0,0,196.8,1c0,22.94,0,45.88-.32,68.82h.38l91-1.06C299.55,68.59,303.39,53.86,293.1,48.64Z"/><path class="cls-12" d="M249.06,36a6.66,6.66,0,0,1-3.32,12.43l-48.94,0-48.94,0A6.65,6.65,0,0,1,144.56,36l15.31-8.78L193.52,7.88a6.68,6.68,0,0,1,6.63,0l33.62,19.35Z"/><path class="cls-13" d="M218.2,69.8c0,8.7-10,15.76-22.3,15.76S173.59,78.5,173.59,69.8"/><path class="cls-10" d="M1907.31.19l-61.57,33.05-28.87,15.49c-10.17,5.46-6,20.1,5.71,20l90.62-1.06c.29-22.94.32-45.88.32-68.81A11.84,11.84,0,0,0,1907.31.19Z"/><path class="cls-11" d="M2009.82,46.48l-29.23-14.82L1918.27.06a11.82,11.82,0,0,0-4.75-1.23c0,22.93,0,45.87-.32,68.81h.38l91-1.06C2016.26,66.44,2020.11,51.7,2009.82,46.48Z"/><path class="cls-12" d="M1965.78,33.88a6.66,6.66,0,0,1-3.33,12.43l-48.93,0-48.94-.05a6.66,6.66,0,0,1-3.31-12.43L1876.59,25l33.65-19.29a6.68,6.68,0,0,1,6.63,0l33.61,19.35Z"/><path class="cls-13" d="M1934.92,67.64c0,8.7-10,15.76-22.31,15.76s-22.3-7.06-22.3-15.76"/></g></svg>
