<svg xmlns="http://www.w3.org/2000/svg" width="65" height="65" viewBox="0 0 65 65"><defs><style>.cls-1{fill:none;stroke:#c1272d;stroke-miterlimit:10;stroke-width:12px;}.cls-2{fill:#c1272d;}</style></defs><title>settings</title><g id="Layer_6" data-name="Layer 6"><ellipse class="cls-1" cx="32.19" cy="32.07" rx="15.14" ry="15.39"/><path class="cls-2" d="M29.61,0h4.85a3.2,3.2,0,0,1,3.2,3.2v8.88A5.89,5.89,0,0,1,31.77,18h0a5.89,5.89,0,0,1-5.89-5.89V3.73A3.73,3.73,0,0,1,29.61,0Z"/><path class="cls-2" d="M53.37,7.12,56.8,10.6a3.28,3.28,0,0,1,0,4.59l-7.21,7.33a5.85,5.85,0,0,1-8.34,0h0a6.09,6.09,0,0,1,0-8.46l6.84-6.94A3.69,3.69,0,0,1,53.37,7.12Z"/><path class="cls-2" d="M53.28,22.61h5a3.2,3.2,0,0,1,3.2,3.2v9.84a5.89,5.89,0,0,1-5.89,5.89h-.18a5.89,5.89,0,0,1-5.89-5.89v-9.3a3.73,3.73,0,0,1,3.73-3.73Z" transform="translate(87.61 -23.46) rotate(90)"/><path class="cls-2" d="M56.37,54l-3.43,3.49a3.17,3.17,0,0,1-4.53,0l-6.76-6.88a6.06,6.06,0,0,1,0-8.45h0a5.85,5.85,0,0,1,8.34,0l6.38,6.49A3.83,3.83,0,0,1,56.37,54Z"/><path class="cls-2" d="M29.61,47h4.85a3.2,3.2,0,0,1,3.2,3.2v8.88A5.89,5.89,0,0,1,31.77,65h0a5.89,5.89,0,0,1-5.89-5.89V50.77A3.73,3.73,0,0,1,29.61,47Z" transform="translate(63.54 112.04) rotate(180)"/><path class="cls-2" d="M10.79,7.12,7.36,10.6a3.28,3.28,0,0,0,0,4.59l7.21,7.33a5.84,5.84,0,0,0,8.33,0h0a6.07,6.07,0,0,0,0-8.46L16.07,7.12A3.69,3.69,0,0,0,10.79,7.12Z"/><path class="cls-2" d="M9.37,22.61h.18a5.89,5.89,0,0,1,5.89,5.89v9.84a3.2,3.2,0,0,1-3.2,3.2h-5A3.73,3.73,0,0,1,3.48,37.8V28.5a5.89,5.89,0,0,1,5.89-5.89Z" transform="translate(41.54 22.61) rotate(90)"/><path class="cls-2" d="M7.79,54l3.43,3.49a3.16,3.16,0,0,0,4.52,0l6.77-6.88a6.06,6.06,0,0,0,0-8.45h0a5.85,5.85,0,0,0-8.34,0L7.79,48.62A3.83,3.83,0,0,0,7.79,54Z"/></g></svg>
