<svg xmlns="http://www.w3.org/2000/svg" width="100" height="110" viewBox="0 0 100 110"><defs><style>.cls-1{opacity:0.8;}.cls-2{fill:#feb751;}.cls-3{fill:#ffcc81;opacity:0.3;}.cls-4{fill:#52cbdc;opacity:0.7;}.cls-5{fill:#fff;}.cls-6{fill:#1a1a1a;}.cls-7,.cls-9{fill:none;stroke-miterlimit:10;}.cls-7{stroke:#1a1a1a;stroke-width:0.5px;}.cls-8{fill:#efab4c;}.cls-9{stroke:#000;}</style></defs><title>shot</title><g id="Layer_6" data-name="Layer 6"><g class="cls-1"><path class="cls-2" d="M25.91,18.05l39,.86c20.22,0,38.95-15.47,34.46-12L74.61,99.69c0,5.67-4,10.31-9,10.31H31.16c-4.95,0-9-4.64-9-10.31L3.44,8.59C1.19,0,9.43,16.33,25.91,18.05Z"/></g><path class="cls-3" d="M49.89,109.93H30.58c-5.22.78-9.26-4.88-9.92-12.41a60.82,60.82,0,0,0-1.08-7l-9-44.11C10.56,41.15,1.23,5.12,3,6c1.12.56,17,11.31,18.47,11.2l27,1.72"/><path class="cls-4" d="M31.91,90.23l11.56,3.41c3.92,1.15,6.42.89,11.94,0l11.33-3.38c4.87-1.71,15.36-18.9,13.86-12.89-.62,2.48-4.5,18.91-5.24,22.78h0c0,5.43-3.88,9.88-8.62,9.88H31.53c-4.74,0-7.86-.86-10.11-8.59L20.67,98a47.6,47.6,0,0,1-.92-6.14c-.67-4.86-3-15.28-1.33-12.77C20.67,82.5,22.92,85.94,31.91,90.23Z"/><path class="cls-4" d="M78.8,76.57l-3,5.23c.87.33,5.14-3.77,5.53-6.89L97.83,13.75c.34-1.25,2.28-7.55,1.5-6.88l-2.87.68c-.86-.33-.07,2-.39,3.12"/><path class="cls-4" d="M18.32,77.79l2.95,5.48c-1,.3.15,12.12-5.63-7.27L1.94,13.75C1.68,12.61-1,5.91.45,6H4.19c1-.31,0,2.4.22,3.54"/><path class="cls-4" d="M99.33,6.87c-16.48,10.32-21.91,12.44-47.95,12C27.31,18.53,16.93,19.77.45,6-3.24,2.94,25.73,0,51.38,0S103.32,4.38,99.33,6.87Z"/><path d="M29.25,35.23h0c2.91,0,5.3,2.74,5.3,6.08V60.1c0,.62.05,1.24.11,1.86.28,3-1.8,1.59-5.41.84h0c-2.92,0-6.72,2.83-6.72-.81L24,41.31C24,38,26.33,35.23,29.25,35.23Z"/><path d="M63.31,36.09h0c2.92,0,5.3,2.74,5.3,6.08V61c0,.62,0,1.24.11,1.86.29,3-1.8,1.59-5.41.84h0c-2.91,0-6.71,2.83-6.71-.81L58,42.17C58,38.83,60.4,36.09,63.31,36.09Z"/><ellipse class="cls-5" cx="27.41" cy="55.86" rx="1.5" ry="5.16"/><ellipse class="cls-5" cx="60.37" cy="56.72" rx="1.5" ry="5.16"/><path class="cls-6" d="M41.65,81.64c-.75,5.16-6.13,7-9,5.1s-5.25-8.54.75-12.83"/><path class="cls-7" d="M42.85,78.92a2,2,0,0,1,2.42,1.6,2.32,2.32,0,0,1-1.39,2.78"/><path class="cls-7" d="M31.08,73.17A1.9,1.9,0,0,1,32.56,71a1.76,1.76,0,0,1,1.87,1.7"/><polygon class="cls-5" points="35.11 80.01 34.16 79.06 36.11 76.47 37.06 77.43 35.11 80.01"/><polygon class="cls-5" points="36.87 80.31 36.02 79.59 37.27 77.64 38.12 78.36 36.87 80.31"/><ellipse class="cls-8" cx="35.65" cy="84.03" rx="3.75" ry="2.39"/><path class="cls-9" d="M24,37.38c0-4.56,3.16-8.89,6-9.45,2.19-.43,3.45,2,3.75,6.87"/><path class="cls-9" d="M68.64,36.79c-.42-4.54-3.94-8.47-6.81-8.7-2.21-.18-3.24,2.41-3.11,7.27"/></g></svg>
