<svg xmlns="http://www.w3.org/2000/svg" width="105" height="195" viewBox="0 0 105 195"><defs><style>.cls-1{opacity:0.5;}.cls-2{fill:#09448b;}.cls-3{fill:#52cbdc;}.cls-4,.cls-5{fill:#e2f1fe;}.cls-4,.cls-8{opacity:0.7;}.cls-6{fill:red;}.cls-7{fill:#fff;}</style></defs><title>soberpill</title><g id="Layer_6" data-name="Layer 6"><g class="cls-1"><path class="cls-2" d="M89,35.16H52.5q0,78.81.22,157.34H89a13.77,13.77,0,0,0,13.53-13.92V49.08A13.77,13.77,0,0,0,89,35.16Z"/><path class="cls-3" d="M16,35.16A13.77,13.77,0,0,0,2.5,49.08v129.5A13.77,13.77,0,0,0,16,192.5H52.72q-.09-78.57-.22-157.34Z"/></g><path class="cls-4" d="M24.62,2.5A11.74,11.74,0,0,0,13.08,14.38V25.26A11.75,11.75,0,0,0,24.62,37.14H52.5V2.5Z"/><path class="cls-5" d="M78.46,2.5h-26V37.14h26A11.75,11.75,0,0,0,90,25.26V14.38A11.74,11.74,0,0,0,78.46,2.5Z"/><path class="cls-6" d="M79.73,95.57H61.83V77.15a4.33,4.33,0,0,0-4.26-4.39H47.43a4.33,4.33,0,0,0-4.26,4.39V95.57H25.27A4.32,4.32,0,0,0,21,100v10.42a4.32,4.32,0,0,0,4.26,4.39h17.9v18.42a4.33,4.33,0,0,0,4.26,4.39H57.57a4.33,4.33,0,0,0,4.26-4.39V114.77h17.9A4.32,4.32,0,0,0,84,110.38V100A4.32,4.32,0,0,0,79.73,95.57Z"/><polygon points="47.96 77.64 46.48 75.31 44.94 72.97 47.56 72.92 50.12 72.87 49.04 75.25 47.96 77.64"/><polygon points="52.66 77.63 51.25 75.25 49.78 72.86 52.4 72.9 54.96 72.93 53.81 75.28 52.66 77.63"/><polygon points="55.54 77.63 54.13 75.25 52.67 72.86 55.29 72.9 57.85 72.93 56.7 75.28 55.54 77.63"/><polygon points="49.77 77.63 48.37 75.25 46.9 72.86 49.52 72.9 52.08 72.93 50.92 75.28 49.77 77.63"/><polygon points="54.88 131.33 56.32 134.16 57.81 137 55.19 137 52.63 137.01 53.76 134.17 54.88 131.33"/><polygon points="50.18 131.24 51.55 134.13 52.97 137.02 50.35 136.92 47.79 136.82 48.99 134.03 50.18 131.24"/><polygon points="47.3 131.17 48.66 134.06 50.08 136.95 47.47 136.85 44.91 136.75 46.1 133.96 47.3 131.17"/><polygon points="53.06 131.3 54.43 134.19 55.85 137.08 53.23 136.99 50.68 136.89 51.87 134.09 53.06 131.3"/><polygon points="16.3 50.08 14.96 52.47 34.81 64.27 36.15 61.88 16.3 50.08"/><polygon points="68.8 61.88 70.14 64.27 90 52.47 88.66 50.08 68.8 61.88"/><path d="M87.36,53.59c3,5.33,3.39,11.48-1.21,14.22s-12.42,1-15.42-4.28"/><path d="M34.38,62.94c-2.73,5.48-7.56,9.13-12.28,6.63s-7.56-10.2-4.82-15.68"/><ellipse class="cls-7" cx="78.46" cy="64.35" rx="1.92" ry="3.46"/><ellipse class="cls-7" cx="27.5" cy="65.34" rx="1.92" ry="3.46"/><rect class="cls-8" x="19.81" y="8.44" width="1.92" height="24.74"/><rect class="cls-8" x="26.54" y="8.44" width="1.92" height="24.74"/><rect class="cls-8" x="33.27" y="8.44" width="1.92" height="24.74"/><rect class="cls-8" x="40" y="8.44" width="1.92" height="24.74"/><rect class="cls-8" x="46.73" y="8.44" width="1.92" height="24.74"/><rect class="cls-8" x="54.42" y="8.44" width="1.92" height="24.74"/><rect class="cls-8" x="61.15" y="8.44" width="1.92" height="24.74"/><rect class="cls-8" x="67.88" y="8.44" width="1.92" height="24.74"/><rect class="cls-8" x="75.58" y="8.44" width="1.92" height="24.74"/><rect class="cls-8" x="82.31" y="8.44" width="1.92" height="24.74"/></g></svg>
