<svg xmlns="http://www.w3.org/2000/svg" width="210" height="80" viewBox="0 0 210 80"><defs><style>.cls-1{stroke:#000;stroke-miterlimit:10;opacity:0.7;}.cls-2,.cls-3,.cls-4{fill:#efab4c;}.cls-2{opacity:0.9;}.cls-3{opacity:0.95;}</style></defs><title>spil_igen</title><g id="Layer_19" data-name="Layer 19"><rect class="cls-1" x="9.5" y="1" width="200" height="78" rx="34.71"/><path class="cls-2" d="M32.6.5A32.7,32.7,0,0,0,0,33.1v9.8A32.7,32.7,0,0,0,32.6,75.5H48V.5Z"/><path class="cls-3" d="M76.4.5H48v75H76.24C76.46,50.43,76.47,25.46,76.4.5Z"/><path class="cls-4" d="M172.4.5h-96c.07,25,.06,49.93-.16,75H172.4A32.7,32.7,0,0,0,205,42.9V33.1A32.7,32.7,0,0,0,172.4.5Z"/><path d="M47.1,28.14q-3.24.18-3.54.18a2,2,0,0,1-1.44-.88,2.9,2.9,0,0,1-.72-1.85q0-1.47,8.55-1.47a17.19,17.19,0,0,1,6.45.9q2.07.9,2.07,2.19A1,1,0,0,1,58,28a1.82,1.82,0,0,1-1.14.34q-.69,0-2.52-.09T51,28.08a2.66,2.66,0,0,1,.12.84,9.89,9.89,0,0,1-.34,1.89c-.23.94-.56,2.25-1,3.92s-.88,3.69-1.38,6.06a36.71,36.71,0,0,1-1,4.23c-.19.45-.38.67-.56.67-.42,0-.94-.38-1.57-1.15a3.39,3.39,0,0,1-.95-1.88,54.2,54.2,0,0,1,1.23-5.95A64.43,64.43,0,0,0,47.1,28.14Z"/><path d="M58.47,35.46l-.18-3.39q0-1.68,1.05-1.68a2,2,0,0,1,1.19.45,2.74,2.74,0,0,1,.88,1.41,9,9,0,0,1,2.24-1.45,5.28,5.28,0,0,1,2.14-.56q2.19,0,2.19,1.05a1.33,1.33,0,0,1-.19.8l-.3.37a2.59,2.59,0,0,1-.36.32l-.38.28-1,.63a9.22,9.22,0,0,0-2.31,2A8,8,0,0,0,62,39a30.22,30.22,0,0,1-1.57,5.15c-.51,1.13-1.08,1.69-1.71,1.69a1.5,1.5,0,0,1-1.41-.9,3.7,3.7,0,0,1-.47-1.69,7.8,7.8,0,0,1,.59-2.39,18.27,18.27,0,0,0,.81-2.74A14.08,14.08,0,0,0,58.47,35.46Z"/><path d="M78.87,31.14a.91.91,0,0,1,1-.75,2.32,2.32,0,0,1,1.67,1,3.49,3.49,0,0,1,.85,2.31,8.56,8.56,0,0,1-.54,2.37c-.36,1.08-.61,1.85-.76,2.31s-.37,1.09-.65,1.88-.53,1.52-.76,2.19l-.93,2.68c-.39,1.12-.75,2.16-1.07,3.12a12,12,0,0,1-2.26,4.17,4.47,4.47,0,0,1-3.47,1.47,6.69,6.69,0,0,1-3.81-1.12C67,52,66.45,51.28,66.45,50.52A2.69,2.69,0,0,1,67.07,49q.62-.84,1.05-.84a1.94,1.94,0,0,1,1.14.71c.47.47.95.93,1.45,1.41A2.09,2.09,0,0,0,72,51a.77.77,0,0,0,.65-.36c.17-.24.31-.45.42-.64a5.1,5.1,0,0,0,.34-.78l.33-.92q.15-.42.36-1.11t.36-1.23q.51-1.62.87-2.88a10.22,10.22,0,0,1-2,2.06,3.35,3.35,0,0,1-1.93.76,3.53,3.53,0,0,1-2.19-1.33,4.13,4.13,0,0,1-1.31-2.94,18.15,18.15,0,0,1,.71-4.31,24.66,24.66,0,0,1,1.75-4.8q1.05-2.1,1.86-2.1a2.52,2.52,0,0,1,1.76.8,2.21,2.21,0,0,1,.82,1.53,6.63,6.63,0,0,1-.73,2.35c-.49,1.08-1,2.26-1.49,3.54a9.29,9.29,0,0,0-.75,3.27q0,.18.15.18c.26,0,.81-.48,1.65-1.45a28.55,28.55,0,0,0,2.84-4.14A26.33,26.33,0,0,0,78.87,31.14Z"/><path d="M107.58,37.35a1.29,1.29,0,0,1,.54.87,7.57,7.57,0,0,1-.36,1.62,19.45,19.45,0,0,0-.48,1.91c-.08.45-.14.8-.19,1.06s-.09.47-.11.62,0,.33-.1.55l-.12.53q0,.2-.12.45a1.45,1.45,0,0,1-.17.39l-.21.28a.7.7,0,0,1-.6.24c-.28,0-.62-.28-1-.84a5.8,5.8,0,0,1-.92-2q-2.82,2.88-4.74,2.88a4.25,4.25,0,0,1-2.79-1.42,4,4,0,0,1-1.5-2.85A10.33,10.33,0,0,1,96,37.53a18.4,18.4,0,0,1,3.53-4.89,6.38,6.38,0,0,1,4.42-2.25,4.71,4.71,0,0,1,2.91,1.47,4,4,0,0,1,1.65,2.69A5.86,5.86,0,0,1,107.58,37.35Zm-8.73,4.74a5.79,5.79,0,0,0,3.2-1.63,6.88,6.88,0,0,0,2.47-4.13q0-.36.51-.42-.09-1.71-.57-1.71a4,4,0,0,0-2.68,1.56,15.24,15.24,0,0,0-2.43,3.33,6.53,6.53,0,0,0-.95,2.61.48.48,0,0,0,.08.32S98.65,42.09,98.85,42.09Z"/><path d="M122,36.87a1.79,1.79,0,0,1,.45,1.23,3.77,3.77,0,0,1-.6,1.77,25.79,25.79,0,0,0-1.32,4.47,38.46,38.46,0,0,1-1.12,4.28,16.6,16.6,0,0,1-1.2,2.74,5.58,5.58,0,0,1-1.76,1.89,4.45,4.45,0,0,1-2.55.75,5.48,5.48,0,0,1-3.6-1.32c-1.06-.88-1.59-1.63-1.59-2.26a3,3,0,0,1,.51-1.71c.34-.51.66-.77,1-.77a1.13,1.13,0,0,1,.84.48,8.13,8.13,0,0,1,.75,1,4.35,4.35,0,0,0,.91,1,1.91,1.91,0,0,0,1.26.48,1.57,1.57,0,0,0,1.26-.9,7.45,7.45,0,0,0,.87-2,33.25,33.25,0,0,0,.93-3.51,6.86,6.86,0,0,1-3.31,1.26,3.35,3.35,0,0,1-2.48-1.39,4.16,4.16,0,0,1-1.2-2.64,9.63,9.63,0,0,1,.68-3.12A24.19,24.19,0,0,1,112.4,35a11.54,11.54,0,0,1,2.7-3.23,5.15,5.15,0,0,1,3.28-1.35,3.12,3.12,0,0,1,3,2,10,10,0,0,1,.63,3.66A6.56,6.56,0,0,1,122,36.87Zm-8.31,4.83q0,.39.33.39.87,0,2.82-1.59a8.62,8.62,0,0,0,2.61-3.15v-.57a4.54,4.54,0,0,0-.36-2.37.6.6,0,0,0-.48-.21q-1.44,0-3.18,3A10.62,10.62,0,0,0,113.67,41.7Z"/><path d="M137.31,37.35a1.29,1.29,0,0,1,.54.87,7.57,7.57,0,0,1-.36,1.62,19.45,19.45,0,0,0-.48,1.91c-.08.45-.14.8-.19,1.06s-.09.47-.11.62-.05.33-.1.55l-.12.53q0,.2-.12.45a1.45,1.45,0,0,1-.17.39l-.21.28a.7.7,0,0,1-.6.24c-.28,0-.62-.28-1-.84a5.8,5.8,0,0,1-.92-2q-2.82,2.88-4.74,2.88a4.25,4.25,0,0,1-2.79-1.42,4,4,0,0,1-1.5-2.85,10.33,10.33,0,0,1,1.29-4.07,18.4,18.4,0,0,1,3.53-4.89,6.38,6.38,0,0,1,4.42-2.25,4.71,4.71,0,0,1,2.91,1.47,4,4,0,0,1,1.65,2.69A5.86,5.86,0,0,1,137.31,37.35Zm-8.73,4.74a5.79,5.79,0,0,0,3.2-1.63,6.88,6.88,0,0,0,2.47-4.13q0-.36.51-.42-.09-1.71-.57-1.71a4,4,0,0,0-2.68,1.56,15.24,15.24,0,0,0-2.43,3.33,6.53,6.53,0,0,0-1,2.61.48.48,0,0,0,.08.32S128.38,42.09,128.58,42.09Z"/><path d="M143.25,30.39a2.32,2.32,0,0,1,1.88,1.2A4.09,4.09,0,0,1,146,33.9a27.25,27.25,0,0,1-1,4.1q-1,3.53-2.06,6.67a1.45,1.45,0,0,1-1.47,1.17,1.57,1.57,0,0,1-1.15-.49,1.75,1.75,0,0,1-.5-1.29,24.74,24.74,0,0,1,.77-4q.77-3.16,1.17-5.4a26,26,0,0,1,.75-3.27C142.66,30.74,142.93,30.39,143.25,30.39Zm-.45-3.75a2.51,2.51,0,0,1,.71-1.6,1.93,1.93,0,0,1,1.38-.83c.45,0,1,.54,1.6,1.62a5.71,5.71,0,0,1,.93,2.36,1.36,1.36,0,0,1-.48,1.12,1.56,1.56,0,0,1-1,.39,3.13,3.13,0,0,1-2-1.14A3.11,3.11,0,0,1,142.8,26.64Z"/><path d="M158.7,30.39a3.54,3.54,0,0,1,2.75,1.4,4.52,4.52,0,0,1,1.18,3,18.69,18.69,0,0,1-.82,5.33,16.78,16.78,0,0,1-1.8,4.27q-1,1.5-2,1.5c-.67,0-1-.47-1-1.41a19.38,19.38,0,0,1,1-4.35,16.75,16.75,0,0,0,.75-3.87q0-1.17-.3-1.17a1.07,1.07,0,0,0-.76.39c-.25.26-.46.49-.62.69s-.34.46-.55.77-.39.59-.54.84l-.57,1c-.23.39-.42.71-.56,1l-.54,1q-2.79,5.22-4.38,5.22c-.42,0-.95-.36-1.59-1.09a3.19,3.19,0,0,1-1-1.61,5.38,5.38,0,0,1,.44-1.42q.43-1.09.63-1.68a10.84,10.84,0,0,0,.33-1.25c.09-.44.16-.91.22-1.42s.11-.91.14-1.19.06-.72.1-1.32a26.35,26.35,0,0,1,.47-4.32c.13-.28.27-.42.43-.42a3.26,3.26,0,0,1,2.19,1,2.54,2.54,0,0,1,1,1.72,21.86,21.86,0,0,1-1,5.34A57.67,57.67,0,0,1,156,32.57C157.06,31.12,158,30.39,158.7,30.39Z"/><path d="M166.71,43.19a2.44,2.44,0,0,1,.69-1.59,1.91,1.91,0,0,1,1.38-.8c.46,0,1,.54,1.61,1.62a5.7,5.7,0,0,1,.91,2.43,1.31,1.31,0,0,1-.49.87,1.44,1.44,0,0,1-1,.48,3.07,3.07,0,0,1-2-1.11A3,3,0,0,1,166.71,43.19Zm3.09-20.78q0-.87.93-.87a4.46,4.46,0,0,1,2.48,1.32c1,.88,1.54,1.52,1.54,1.92A47.94,47.94,0,0,1,173.36,33c-.94,4.13-1.74,6.19-2.42,6.19a2.21,2.21,0,0,1-1.59-.84,2.69,2.69,0,0,1-.81-1.74,8.42,8.42,0,0,1,.24-1.93q.3-1.61.66-4.95A68.33,68.33,0,0,0,169.8,22.41Z"/></g></svg>
