<svg xmlns="http://www.w3.org/2000/svg" width="210" height="80" viewBox="0 0 210 80"><defs><style>.cls-1{stroke:#000;stroke-miterlimit:10;opacity:0.7;}.cls-2,.cls-3,.cls-4{fill:#efab4c;}.cls-2{opacity:0.9;}.cls-3{opacity:0.95;}</style></defs><title>start_spil</title><g id="Layer_19" data-name="Layer 19"><rect class="cls-1" x="9" y="1" width="200" height="78" rx="34.71"/><path class="cls-2" d="M33.1.5A32.7,32.7,0,0,0,.5,33.1v9.8A32.7,32.7,0,0,0,33.1,75.5H46.5V.5Z"/><path class="cls-3" d="M46.5.5v75H74.85c-.09-25-.24-49.94-.31-75Z"/><path class="cls-4" d="M172.9.5H74.54c.07,25.06.22,50,.31,75H172.9a32.7,32.7,0,0,0,32.6-32.6V33.1A32.7,32.7,0,0,0,172.9.5Z"/><path d="M38.15,39q0-.63,1.44-1a11.9,11.9,0,0,1,3.12-.39A2.87,2.87,0,0,1,45.27,39a5.36,5.36,0,0,1,.89,3,20.87,20.87,0,0,1-1.4,5.69q-1.4,4-2.41,4a1,1,0,0,1-.7-.25.81.81,0,0,1-.29-.65,23.53,23.53,0,0,1,1.2-6.18,13.34,13.34,0,0,1-3.08,2.91,6.07,6.07,0,0,1-3.42,1.11,6,6,0,0,1-3.67-1.53,4.32,4.32,0,0,1-1.92-3.36,16.62,16.62,0,0,1,1.92-7.18,23.15,23.15,0,0,1,4.86-6.74Q40.19,27,42.8,27c.6,0,1.22.47,1.87,1.41a4.67,4.67,0,0,1,1,2.58q0,.54-.39.54l-.57-.12a5.6,5.6,0,0,0-1.26-.12,6,6,0,0,0-4.11,2.06,16,16,0,0,0-3.42,5.05,14,14,0,0,0-1.32,5.64q0,.78,1,.78a7,7,0,0,0,3.46-1.26,10.63,10.63,0,0,0,3.17-2.82c-.44,0-1,0-1.61,0a2.74,2.74,0,0,1-1.7-.57A1.54,1.54,0,0,1,38.15,39Z"/><path d="M59.94,41.63a8,8,0,0,1-4.09,1.17,16.35,16.35,0,0,1-3.45-.3,5.1,5.1,0,0,0-.27,1.62,1.92,1.92,0,0,0,.27,1.16c.18.23.63.34,1.35.34a15.36,15.36,0,0,0,3.85-.42c1.07-.28,1.63-.42,1.67-.42q1.23,0,1.23.81c0,.78-.65,1.52-1.94,2.22a9.23,9.23,0,0,1-4.47,1A5.37,5.37,0,0,1,50,47.27a5.24,5.24,0,0,1-1.53-3.76A9.61,9.61,0,0,1,49.77,39,13.35,13.35,0,0,1,53,35a6,6,0,0,1,3.82-1.61,4.67,4.67,0,0,1,3.53,1.88A5.74,5.74,0,0,1,61.94,39C61.94,40,61.27,40.85,59.94,41.63Zm-2.11-4a1.84,1.84,0,0,0-1.19-.57,2.44,2.44,0,0,0-1.42.8,9.59,9.59,0,0,0-1.65,2.05,7.59,7.59,0,0,0,.78,0q4.11,0,4.11-1.44Q58.46,38.21,57.83,37.64Z"/><path d="M70.2,39.22c-.31,1-.69,2.18-1.14,3.64s-.67,2.24-.67,2.33.16.13.49.13a9.91,9.91,0,0,0,2.36-.67A12,12,0,0,1,73.43,44q.75,0,.75,1c0,.68-.67,1.5-2,2.45A7.15,7.15,0,0,1,68,48.86a3.94,3.94,0,0,1-2.28-1,2.86,2.86,0,0,1-1.32-2.13,16.61,16.61,0,0,1,.91-3.79c.61-1.93,1-3.26,1.25-4a7.18,7.18,0,0,1-1.77.33,1.75,1.75,0,0,1-1.26-.82,2.58,2.58,0,0,1-.66-1.58q0-1,4.65-1.62a24.62,24.62,0,0,0,.57-4.83.8.8,0,0,1,.9-.9,3.62,3.62,0,0,1,2,1,2.55,2.55,0,0,1,1.22,1.86,12,12,0,0,1-.39,2.56q1.44-.06,2.19-.06,2.25,0,2.25,1c0,.44-.44.82-1.31,1.13a31.16,31.16,0,0,1-4,1C70.75,37.49,70.51,38.25,70.2,39.22Z"/><path d="M101,25c.48,0,1.11.44,1.89,1.31a3.79,3.79,0,0,1,1.17,2.44,40.74,40.74,0,0,1-1,4.74q-1,4.17-1.26,5-2.4,10.35-3.51,10.35a2.18,2.18,0,0,1-1.41-.75,2.11,2.11,0,0,1-.78-1.47.78.78,0,0,1,0-.24q-3,2.46-4.31,2.46a3.4,3.4,0,0,1-2.52-1.39,4.07,4.07,0,0,1-1.21-2.54,11.53,11.53,0,0,1,.31-2.53,17.64,17.64,0,0,1,1-3,20.59,20.59,0,0,1,1.51-2.92,8,8,0,0,1,2.07-2.25,4.23,4.23,0,0,1,2.51-.89,3.64,3.64,0,0,1,3.15,1.95q1.62-7.11,1.56-9.45A.78.78,0,0,1,101,25ZM92.18,45.05a5.62,5.62,0,0,0,2.53-1.29,7.9,7.9,0,0,0,2.66-3.27q0-.24,0-1.05a2.51,2.51,0,0,0-.54-1.53q-.54-.72-1-.72a2.32,2.32,0,0,0-1.73,1,7.26,7.26,0,0,0-1.3,2.28,13.67,13.67,0,0,0-1,4.23.49.49,0,0,0,.07.32A.55.55,0,0,0,92.18,45.05Z"/><path d="M106,38.45l-.18-3.39q0-1.68,1-1.68a1.92,1.92,0,0,1,1.18.45,2.75,2.75,0,0,1,.89,1.41,9,9,0,0,1,2.23-1.45,5.32,5.32,0,0,1,2.15-.56q2.19,0,2.19,1.05a1.32,1.32,0,0,1-.2.8l-.3.37a2.59,2.59,0,0,1-.36.32l-.37.28-1,.63a9.22,9.22,0,0,0-2.31,2A8,8,0,0,0,109.58,42,30.06,30.06,0,0,1,108,47.14c-.51,1.13-1.08,1.69-1.71,1.69a1.5,1.5,0,0,1-1.41-.9,3.68,3.68,0,0,1-.46-1.69,7.72,7.72,0,0,1,.58-2.39,18.27,18.27,0,0,0,.81-2.74A14,14,0,0,0,106,38.45Z"/><path d="M125.78,34.13a1,1,0,0,1,1-.75c.48,0,1,.41,1.66,1.23a3.75,3.75,0,0,1,.95,2.13A44.1,44.1,0,0,1,128,41.15q-1.38,4.08-2.13,6.45-.42,1.26-1.41,1.26a1.32,1.32,0,0,1-1-.43,2,2,0,0,1-.4-1.37,13.82,13.82,0,0,1,.36-2.64q-3.09,4.44-4.92,4.44a3.77,3.77,0,0,1-2.31-1.24,3.45,3.45,0,0,1-1.35-2.42,22.43,22.43,0,0,1,1.63-7.35q1.63-4.47,3.08-4.47a2,2,0,0,1,1.54.78,2.56,2.56,0,0,1,.68,1.71,8.11,8.11,0,0,1-.75,2q-2.28,4.95-2.28,7,0,.18.15.18c.3,0,.86-.47,1.69-1.42a27,27,0,0,0,2.79-4.08A28.11,28.11,0,0,0,125.78,34.13Z"/><path d="M140.87,33.38a3.52,3.52,0,0,1,2.74,1.4,4.53,4.53,0,0,1,1.19,3,18.72,18.72,0,0,1-.83,5.33,16.78,16.78,0,0,1-1.8,4.27q-1,1.5-2,1.5c-.67,0-1-.47-1-1.41a19.38,19.38,0,0,1,1-4.35,16.75,16.75,0,0,0,.75-3.87q0-1.17-.3-1.17a1.09,1.09,0,0,0-.77.39c-.25.26-.45.49-.61.69s-.35.46-.56.77-.39.59-.54.84l-.57,1c-.23.39-.41.71-.55,1l-.54,1q-2.79,5.22-4.38,5.22c-.42,0-1-.36-1.59-1.09a3.19,3.19,0,0,1-1-1.61,5.21,5.21,0,0,1,.43-1.42q.44-1.1.63-1.68a10.84,10.84,0,0,0,.33-1.25c.09-.44.17-.91.23-1.42s.1-.91.13-1.19.07-.72.11-1.32a27,27,0,0,1,.46-4.32c.13-.28.28-.42.44-.42a3.26,3.26,0,0,1,2.19,1,2.54,2.54,0,0,1,1.05,1.72,21.86,21.86,0,0,1-1,5.34,57.82,57.82,0,0,1,3.55-5.59C139.22,34.11,140.13,33.38,140.87,33.38Z"/><path d="M149.24,48.86c-.46,0-1-.37-1.73-1.11a3.08,3.08,0,0,1-1-1.77c0-.12.33-1.31,1-3.57s1.34-5,2-8.16a41.2,41.2,0,0,0,1-8.34q0-.93.84-.93c.48,0,1.11.44,1.9,1.31a3.78,3.78,0,0,1,1.19,2.44A31,31,0,0,1,153.24,35a48.44,48.44,0,0,1-2.35,7.23L152,40.84l1.1-1.4,1-1.32c.41-.52.76-.94,1-1.27l.93-1.11c.34-.41.63-.74.88-1s.51-.49.77-.71a2,2,0,0,1,1.11-.66,2.44,2.44,0,0,1,1.65,1,2.85,2.85,0,0,1,.9,1.75c0,.2-.43.66-1.28,1.38s-1.7,1.52-2.55,2.4a3.67,3.67,0,0,0-1.27,2.36,3.71,3.71,0,0,0,.61,2,5.14,5.14,0,0,0,1.34,1.48c.48.34.92.69,1.33,1s.62.64.62.88q0,1.17-1.59,1.17-1.89,0-5-3.18l-.72-.72Q150.14,48.86,149.24,48.86Z"/><path d="M163.67,46.18a2.44,2.44,0,0,1,.69-1.59,1.91,1.91,0,0,1,1.38-.8c.46,0,1,.54,1.6,1.62a5.75,5.75,0,0,1,.92,2.43,1.33,1.33,0,0,1-.5.87,1.42,1.42,0,0,1-1,.48,3.07,3.07,0,0,1-2-1.11A3,3,0,0,1,163.67,46.18Zm3.09-20.78q0-.87.93-.87a4.41,4.41,0,0,1,2.47,1.32c1,.88,1.55,1.52,1.55,1.92a48.33,48.33,0,0,1-1.4,8.18q-1.4,6.19-2.41,6.19a2.21,2.21,0,0,1-1.59-.84,2.69,2.69,0,0,1-.81-1.74,8.42,8.42,0,0,1,.24-1.93q.3-1.6.66-5A68.33,68.33,0,0,0,166.76,25.4Z"/></g></svg>
