<svg xmlns="http://www.w3.org/2000/svg" xmlns:xlink="http://www.w3.org/1999/xlink" width="1920" height="1080" viewBox="0 0 1920 1080"><defs><style>.cls-1,.cls-2,.cls-3{fill:#48515a;}.cls-1,.cls-10,.cls-6{opacity:0.85;}.cls-2{opacity:0.92;}.cls-4,.cls-5,.cls-6,.cls-7{fill:#f7d095;}.cls-4,.cls-40{opacity:0.9;}.cls-23,.cls-24,.cls-25,.cls-26,.cls-59,.cls-7{opacity:0.6;}.cls-10,.cls-8,.cls-9{fill:#60421e;}.cls-15,.cls-28,.cls-31,.cls-46,.cls-48,.cls-58,.cls-8{opacity:0.8;}.cls-11{opacity:0.45;}.cls-12,.cls-15{fill:#583413;}.cls-13,.cls-16{opacity:0.5;}.cls-14,.cls-20{fill:#316b0e;}.cls-14,.cls-34,.cls-53,.cls-56{opacity:0.7;}.cls-16{fill:#22aa30;}.cls-17,.cls-21,.cls-22,.cls-36,.cls-38,.cls-43,.cls-49{fill:none;}.cls-18,.cls-45{fill:#fff;}.cls-19,.cls-35{fill:#1a1a1a;}.cls-19{stroke:#ddb17a;}.cls-19,.cls-21,.cls-22,.cls-36,.cls-38,.cls-39,.cls-43,.cls-44,.cls-49{stroke-miterlimit:10;}.cls-21{stroke:#fff;}.cls-22,.cls-38,.cls-39,.cls-43,.cls-49{stroke:#000;}.cls-22,.cls-44{stroke-width:2px;}.cls-23,.cls-28{fill:#086cb6;}.cls-24{fill:#0c3f96;}.cls-25,.cls-27{fill:#09448b;}.cls-26{fill:#14bddc;}.cls-29{fill:#6ad0df;}.cls-29,.cls-33,.cls-50{opacity:0.3;}.cls-30{fill:#050505;}.cls-32{fill:#feb751;}.cls-33{fill:#ffcc81;}.cls-34,.cls-52{fill:#52cbdc;}.cls-36{stroke:#1a1a1a;}.cls-36,.cls-43{stroke-width:0.5px;}.cls-37{fill:#efab4c;}.cls-40,.cls-41,.cls-48{fill:#c7b299;}.cls-42{fill:#dfebfb;}.cls-44{fill:#010102;stroke:#583413;}.cls-45{opacity:0.96;}.cls-46,.cls-47{fill:#6148b0;}.cls-49{stroke-linecap:round;stroke-width:3px;}.cls-51{opacity:0.4;}.cls-53,.cls-54{fill:#e2f1fe;}.cls-55{fill:red;}.cls-57,.cls-58,.cls-59{fill:#f0762b;}</style></defs><title>startskaerm</title><g id="Layer_6" data-name="Layer 6"><path class="cls-1" d="M335,360C332,239.59,323.79,119.76,320.86.07H-.19V703.14H336.94C338.17,589.05,337.91,475.05,335,360Z"/><path class="cls-2" d="M759,.07H320.86C323.79,119.76,332,239.59,335,360c2.91,115.05,3.17,229,1.94,343.14H761C761.07,468.78,759.32,234.42,759,.07Z"/><path class="cls-3" d="M1926.63.07H759c.28,234.35,2,468.71,1.91,703.07H1926.63Z"/><path class="cls-4" d="M-.49,703.14v324.13H24.44q.22-162,.53-324.13Z"/><path class="cls-5" d="M90.29,703.14H25q-.13,162.2-.53,324.13H87.79C90.54,919.2,90.66,811.33,90.29,703.14Z"/><path class="cls-6" d="M227,703.14H90.29c.37,108.19.25,216.06-2.5,324.13H227Z"/><path class="cls-5" d="M369,703.14H227v324.13h3v0H369Z"/><path class="cls-5" d="M1920.19,703.14H828.88v324.13h.34q-.11-6.63-.22-13.27.12,6.63.22,13.27h1091Z"/><rect class="cls-7" x="369.04" y="703.14" width="459.84" height="324.13"/><path class="cls-8" d="M829.22,1027.27H368.06q.1,28.53.11,57.07H829.55Q829.6,1055.8,829.22,1027.27Z"/><path class="cls-9" d="M-.49,1027.27v57.07H87v-57.07Z"/><path class="cls-10" d="M230,1027.27H87v57.07H230Z"/><path class="cls-9" d="M368.06,1027.27H230v57.07H368.17Q368.16,1055.8,368.06,1027.27Z"/><path class="cls-9" d="M1919.45,1027.27H829.22q.4,28.53.33,57.07h1089.9Z"/><rect class="cls-9" x="1311.82" y="172.4" width="608.37" height="26.2" rx="12"/><rect class="cls-9" x="-13.44" y="172.4" width="608.37" height="26.2" rx="12"/><g class="cls-11"><path class="cls-12" d="M1396.83,80.62a12.47,12.47,0,0,0-1.08-5c-4.48-10.11-7-18.4-9-23l-.8-37.18c-.4-2.21-.1-2.59-1.61-2.59h-15c-1.51,0-1.21.38-1.62,2.59l-.8,37.57,0,0c-.12.33-.23.68-.34,1.07l-.35-.31-2.91,11.85c-5.41,13.37-5,13.37-5,19.11l-.23,8.09a1.2,1.2,0,0,0-.86,1.12v29.76l-.14,5.2c0,.36-.11.72-.11,1.08-.31,12-2.4,14.37,4.25,20.86a25,25,0,0,0,4.16,1.91l.39,0a11.92,11.92,0,0,0,2.89.36h17.09c6.29,0,11.45-4.88,11.45-10.84Z"/><path class="cls-12" d="M1366.53,10.76a1.78,1.78,0,0,0,1.82,1.72h17.37a1.78,1.78,0,0,0,1.82-1.72A1.78,1.78,0,0,0,1385.72,9h3.44c0-1.69-5.52-3.06-12.33-3.06S1364.51,7.35,1364.51,9h3.84A1.78,1.78,0,0,0,1366.53,10.76Z"/><path class="cls-12" d="M1370.93,96a12.9,12.9,0,0,0-1.08-5c-4.43-10.1-6.93-18.39-8.94-23l-.79-37.18c-.4-2.21-.11-2.59-1.6-2.59h-14.8c-1.5,0-1.21.38-1.61,2.59l-.79,37.57,0,0c-.12.34-.23.69-.34,1.07l-.35-.3L1337.73,81c-5.35,13.37-4.94,13.37-4.94,19.11l-.23,8.09a1.18,1.18,0,0,0-.85,1.12v29.76l-.14,5.2c0,.36-.1.72-.11,1.08-.31,12-2.38,14.36,4.21,20.86a25,25,0,0,0,4.12,1.91l.38,0a11.81,11.81,0,0,0,2.87.35H1360a11.13,11.13,0,0,0,11.34-10.83Z"/><path class="cls-12" d="M1340.91,26.18a1.76,1.76,0,0,0,1.8,1.72h17.21a1.72,1.72,0,1,0,0-3.43h3.4c0-1.69-5.46-3.06-12.2-3.06s-12.21,1.37-12.21,3.06h3.8A1.76,1.76,0,0,0,1340.91,26.18Z"/><path class="cls-12" d="M1422.82,91.23a12.66,12.66,0,0,0-1.09-5c-4.47-10.11-7-18.4-9-23l-.8-37.18c-.41-2.21-.11-2.59-1.62-2.59h-15c-1.5,0-1.21.38-1.61,2.59l-.8,37.57,0,0c-.11.33-.23.68-.34,1.07-.11-.11-.23-.21-.35-.31l-2.91,11.85c-5.4,13.37-5,13.37-5,19.11l-.22,8.09a1.19,1.19,0,0,0-.86,1.12v29.76l-.15,5.2c0,.36-.1.72-.11,1.08-.31,12-2.4,14.37,4.25,20.86a25,25,0,0,0,4.16,1.91l.39,0a11.92,11.92,0,0,0,2.89.36h17.09c6.3,0,11.45-4.88,11.45-10.84Z"/><path class="cls-12" d="M1392.52,21.37a1.77,1.77,0,0,0,1.81,1.72h17.38a1.72,1.72,0,1,0,0-3.44h3.43c0-1.69-5.52-3.06-12.32-3.06S1390.5,18,1390.5,19.65h3.83A1.77,1.77,0,0,0,1392.52,21.37Z"/><path class="cls-12" d="M1448.05,77.26a12.47,12.47,0,0,0-1.08-5c-4.47-10.11-7-18.4-9-23l-.8-37.18c-.41-2.21-.11-2.59-1.62-2.59h-15c-1.5,0-1.21.38-1.61,2.59l-.8,37.57,0,0c-.12.33-.23.69-.34,1.07l-.35-.31-2.91,11.85c-5.4,13.37-5,13.37-5,19.11l-.22,8.09a1.2,1.2,0,0,0-.87,1.12v29.76l-.14,5.2c0,.36-.1.72-.11,1.08-.31,12-2.4,14.37,4.25,20.86a25,25,0,0,0,4.16,1.91l.39,0a11.92,11.92,0,0,0,2.89.36H1437c6.3,0,11.45-4.88,11.45-10.84Z"/><path class="cls-12" d="M1417.76,7.4a1.77,1.77,0,0,0,1.81,1.72h17.37a1.78,1.78,0,0,0,1.82-1.72,1.78,1.78,0,0,0-1.82-1.72h3.44c0-1.69-5.52-3.06-12.32-3.06S1415.74,4,1415.74,5.68h3.83A1.77,1.77,0,0,0,1417.76,7.4Z"/><path class="cls-12" d="M1478.65,94.67a12.66,12.66,0,0,0-1.09-5c-4.47-10.11-7-18.4-9-23l-.8-37.18c-.41-2.21-.11-2.59-1.62-2.59h-14.95c-1.5,0-1.21.38-1.61,2.59l-.8,37.57,0,0c-.11.33-.23.68-.34,1.07-.11-.11-.23-.21-.35-.31l-2.91,11.85c-5.4,13.37-5,13.37-5,19.11l-.22,8.09a1.19,1.19,0,0,0-.86,1.12v29.76l-.15,5.2c0,.36-.1.72-.11,1.08-.31,12-2.4,14.37,4.25,20.86a25,25,0,0,0,4.16,1.91l.39,0a11.92,11.92,0,0,0,2.89.36h17.09c6.3,0,11.45-4.88,11.45-10.84Z"/><path class="cls-12" d="M1448.35,24.81a1.77,1.77,0,0,0,1.81,1.72h17.38a1.72,1.72,0,1,0,0-3.44H1471c0-1.69-5.52-3.06-12.32-3.06s-12.32,1.37-12.32,3.06h3.83A1.77,1.77,0,0,0,1448.35,24.81Z"/><path class="cls-12" d="M1507.48,83.73a12.47,12.47,0,0,0-1.09-5c-4.47-10.11-7-18.4-9-23l-.8-37.18c-.4-2.21-.11-2.59-1.62-2.59H1480c-1.51,0-1.22.38-1.62,2.59l-.8,37.57,0,0c-.12.33-.23.68-.35,1.06l-.35-.3L1474,68.72c-5.4,13.37-5,13.37-5,19.11l-.23,8.09a1.18,1.18,0,0,0-.86,1.12V126.8l-.15,5.2c0,.36-.1.72-.11,1.08-.31,12-2.4,14.36,4.26,20.86a24.9,24.9,0,0,0,4.15,1.91l.39,0a12,12,0,0,0,2.89.35h17.09c6.3,0,11.45-4.87,11.45-10.83Z"/><path class="cls-12" d="M1477.18,13.88A1.78,1.78,0,0,0,1479,15.6h17.37a1.72,1.72,0,1,0,0-3.44h3.43c0-1.69-5.51-3.06-12.32-3.06s-12.32,1.37-12.32,3.06H1479A1.78,1.78,0,0,0,1477.18,13.88Z"/><path class="cls-12" d="M1537,94.67a12.47,12.47,0,0,0-1.08-5c-4.47-10.11-7-18.4-9-23l-.8-37.18c-.41-2.21-.11-2.59-1.62-2.59h-15c-1.5,0-1.21.38-1.61,2.59l-.8,37.57,0,0c-.12.33-.23.68-.34,1.07-.11-.11-.23-.21-.35-.31l-2.91,11.85c-5.4,13.37-5,13.37-5,19.11l-.22,8.09a1.19,1.19,0,0,0-.87,1.12v29.76l-.14,5.2c0,.36-.1.72-.11,1.08-.31,12-2.4,14.37,4.25,20.86a25,25,0,0,0,4.16,1.91l.39,0a11.92,11.92,0,0,0,2.89.36h17.09c6.3,0,11.45-4.88,11.45-10.84Z"/><path class="cls-12" d="M1506.68,24.81a1.77,1.77,0,0,0,1.81,1.72h17.38a1.72,1.72,0,1,0,0-3.44h3.43c0-1.69-5.52-3.06-12.32-3.06s-12.32,1.37-12.32,3.06h3.83A1.77,1.77,0,0,0,1506.68,24.81Z"/><path class="cls-12" d="M1570.78,87.17a12.73,12.73,0,0,0-1.09-5c-4.47-10.1-7-18.39-9-23l-.8-37.18c-.41-2.21-.11-2.59-1.62-2.59h-15c-1.5,0-1.21.38-1.61,2.59l-.8,37.57,0,0c-.11.33-.23.68-.34,1.06l-.35-.3-2.91,11.85c-5.4,13.37-5,13.37-5,19.11l-.22,8.09a1.18,1.18,0,0,0-.86,1.12v29.76l-.15,5.2c0,.36-.1.72-.11,1.08-.31,12-2.4,14.36,4.25,20.86a25,25,0,0,0,4.16,1.91l.39,0a11.91,11.91,0,0,0,2.89.35h17.09c6.3,0,11.45-4.87,11.45-10.83Z"/><path class="cls-12" d="M1540.48,17.32a1.76,1.76,0,0,0,1.81,1.71h17.38a1.72,1.72,0,1,0,0-3.43h3.43c0-1.69-5.52-3.06-12.32-3.06s-12.32,1.37-12.32,3.06h3.83A1.77,1.77,0,0,0,1540.48,17.32Z"/></g><g class="cls-11"><path class="cls-12" d="M1751.89,82.3a12.56,12.56,0,0,0-1.09-5c-4.47-10.1-7-18.39-9-23l-.8-37.18c-.4-2.21-.11-2.59-1.62-2.59h-14.94c-1.51,0-1.21.38-1.62,2.59l-.8,37.57,0,0c-.12.34-.23.69-.34,1.07l-.36-.3-2.91,11.85c-5.4,13.37-5,13.37-5,19.1l-.23,8.1a1.18,1.18,0,0,0-.86,1.12v29.76l-.15,5.2c0,.36-.1.71-.11,1.07-.31,12.05-2.4,14.37,4.26,20.87a25.27,25.27,0,0,0,4.15,1.91l.39,0a12,12,0,0,0,2.89.35h17.09c6.3,0,11.45-4.87,11.45-10.83Z"/><path class="cls-12" d="M1721.59,12.44a1.78,1.78,0,0,0,1.82,1.72h17.37a1.72,1.72,0,1,0,0-3.44h3.43c0-1.68-5.51-3.05-12.32-3.05s-12.32,1.37-12.32,3.05h3.84A1.78,1.78,0,0,0,1721.59,12.44Z"/><path class="cls-12" d="M1726,97.73a12.67,12.67,0,0,0-1.07-5c-4.43-10.1-6.93-18.39-8.94-23l-.79-37.17c-.4-2.21-.11-2.59-1.6-2.59h-14.81c-1.49,0-1.2.38-1.6,2.59l-.79,37.57,0,0c-.11.34-.22.69-.33,1.07l-.35-.3-2.88,11.84c-5.36,13.38-5,13.38-5,19.11l-.22,8.09a1.2,1.2,0,0,0-.85,1.12v29.76l-.15,5.21c0,.36-.1.71-.11,1.07-.3,12.05-2.37,14.37,4.22,20.87a24.22,24.22,0,0,0,4.12,1.91l.38,0a11.79,11.79,0,0,0,2.86.35H1715a11.12,11.12,0,0,0,11.34-10.83Z"/><path class="cls-12" d="M1696,27.87a1.76,1.76,0,0,0,1.8,1.72H1715a1.72,1.72,0,1,0,0-3.44h3.4c0-1.69-5.47-3-12.21-3s-12.2,1.36-12.2,3h3.8A1.77,1.77,0,0,0,1696,27.87Z"/><path class="cls-12" d="M1777.87,92.91a12.55,12.55,0,0,0-1.08-5c-4.48-10.1-7-18.39-9-23l-.8-37.18c-.4-2.21-.1-2.59-1.61-2.59H1750.4c-1.51,0-1.21.38-1.61,2.59L1748,65.32l0,0c-.12.34-.23.69-.34,1.07l-.35-.3-2.91,11.85c-5.41,13.37-5,13.37-5,19.11l-.23,8.09a1.19,1.19,0,0,0-.86,1.12V136l-.14,5.2c0,.36-.1.72-.11,1.08-.31,12-2.4,14.36,4.25,20.86a25,25,0,0,0,4.16,1.91l.39,0a11.91,11.91,0,0,0,2.89.35h17.09c6.3,0,11.45-4.87,11.45-10.83Z"/><path class="cls-12" d="M1747.57,23.05a1.78,1.78,0,0,0,1.82,1.72h17.37a1.72,1.72,0,1,0,0-3.43h3.44c0-1.69-5.52-3.06-12.33-3.06s-12.32,1.37-12.32,3.06h3.84A1.77,1.77,0,0,0,1747.57,23.05Z"/><path class="cls-12" d="M1803.11,78.94a12.55,12.55,0,0,0-1.08-5c-4.48-10.1-7-18.39-9-23l-.8-37.18c-.4-2.21-.1-2.59-1.61-2.59h-14.95c-1.51,0-1.21.38-1.62,2.59l-.8,37.57,0,0c-.12.33-.23.68-.34,1.06l-.35-.3-2.91,11.85c-5.41,13.37-5,13.37-5,19.11l-.23,8.09a1.19,1.19,0,0,0-.86,1.12V122l-.14,5.2c0,.36-.11.72-.11,1.08-.31,12-2.4,14.36,4.25,20.86a25,25,0,0,0,4.16,1.91l.39,0a11.91,11.91,0,0,0,2.89.35h17.09c6.29,0,11.45-4.87,11.45-10.83Z"/><path class="cls-12" d="M1772.81,9.09a1.77,1.77,0,0,0,1.82,1.71H1792a1.77,1.77,0,0,0,1.82-1.71A1.78,1.78,0,0,0,1792,7.37h3.44c0-1.69-5.52-3.06-12.33-3.06s-12.32,1.37-12.32,3.06h3.84A1.78,1.78,0,0,0,1772.81,9.09Z"/><path class="cls-12" d="M1833.7,96.35a12.55,12.55,0,0,0-1.08-5c-4.48-10.1-7-18.39-9-23l-.8-37.18c-.4-2.21-.1-2.59-1.61-2.59h-15c-1.51,0-1.21.38-1.61,2.59l-.81,37.57,0,0c-.12.34-.23.69-.34,1.07l-.35-.3-2.91,11.85c-5.41,13.37-5,13.37-5,19.1l-.23,8.1a1.19,1.19,0,0,0-.86,1.12v29.76l-.14,5.2c0,.36-.1.71-.11,1.07-.31,12.05-2.4,14.37,4.25,20.87a25,25,0,0,0,4.16,1.91l.39,0a11.91,11.91,0,0,0,2.89.35h17.09c6.3,0,11.45-4.87,11.45-10.83Z"/><path class="cls-12" d="M1803.4,26.49a1.78,1.78,0,0,0,1.82,1.72h17.37a1.72,1.72,0,1,0,0-3.44H1826c0-1.68-5.52-3.05-12.33-3.05s-12.32,1.37-12.32,3.05h3.84A1.78,1.78,0,0,0,1803.4,26.49Z"/><path class="cls-12" d="M1862.53,85.42a12.55,12.55,0,0,0-1.08-5c-4.47-10.1-7-18.39-9-23l-.8-37.17c-.41-2.21-.11-2.59-1.62-2.59h-15c-1.5,0-1.21.38-1.61,2.59l-.8,37.57,0,0c-.12.34-.23.69-.34,1.07l-.35-.3L1829,70.41c-5.4,13.37-5,13.37-5,19.1l-.22,8.09a1.2,1.2,0,0,0-.87,1.12v29.77l-.14,5.2c0,.36-.1.71-.11,1.07-.31,12.05-2.4,14.37,4.25,20.87a25,25,0,0,0,4.16,1.91l.39,0a11.91,11.91,0,0,0,2.89.35h17.09c6.3,0,11.45-4.87,11.45-10.83Z"/><path class="cls-12" d="M1832.24,15.56a1.77,1.77,0,0,0,1.81,1.72h17.37a1.72,1.72,0,1,0,0-3.44h3.44c0-1.68-5.52-3.05-12.32-3.05s-12.32,1.37-12.32,3.05h3.83A1.77,1.77,0,0,0,1832.24,15.56Z"/><path class="cls-12" d="M1892,96.35a12.55,12.55,0,0,0-1.08-5c-4.48-10.1-7-18.39-9-23l-.8-37.18c-.4-2.21-.1-2.59-1.61-2.59h-15c-1.51,0-1.21.38-1.62,2.59l-.8,37.57,0,0c-.12.34-.23.69-.34,1.07l-.35-.3-2.91,11.85c-5.41,13.37-5,13.37-5,19.1l-.23,8.1a1.19,1.19,0,0,0-.86,1.12v29.76l-.14,5.2c0,.36-.11.71-.11,1.07-.31,12.05-2.4,14.37,4.25,20.87a25,25,0,0,0,4.16,1.91l.39,0a11.91,11.91,0,0,0,2.89.35H1881c6.29,0,11.45-4.87,11.45-10.83Z"/><path class="cls-12" d="M1861.73,26.49a1.78,1.78,0,0,0,1.82,1.72h17.37a1.72,1.72,0,1,0,0-3.44h3.44c0-1.68-5.52-3.05-12.33-3.05s-12.32,1.37-12.32,3.05h3.84A1.78,1.78,0,0,0,1861.73,26.49Z"/><path class="cls-12" d="M1925.83,88.86a12.51,12.51,0,0,0-1.08-5c-4.48-10.1-7-18.39-9-23l-.8-37.17c-.4-2.21-.1-2.59-1.61-2.59h-15c-1.51,0-1.21.38-1.61,2.59l-.81,37.57,0,0c-.12.34-.23.69-.34,1.07l-.35-.3-2.91,11.85c-5.41,13.37-5,13.37-5,19.1l-.23,8.09a1.21,1.21,0,0,0-.86,1.12v29.76l-.14,5.21c0,.36-.1.71-.11,1.07-.31,12.05-2.4,14.37,4.25,20.87a25,25,0,0,0,4.16,1.91l.39,0a11.91,11.91,0,0,0,2.89.35h17.09c6.3,0,11.45-4.87,11.45-10.83Z"/><path class="cls-12" d="M1895.53,19a1.78,1.78,0,0,0,1.82,1.72h17.37a1.72,1.72,0,1,0,0-3.44h3.44c0-1.68-5.52-3.05-12.33-3.05s-12.32,1.37-12.32,3.05h3.84A1.78,1.78,0,0,0,1895.53,19Z"/></g><g class="cls-11"><path class="cls-12" d="M1618.41,78.79a12.47,12.47,0,0,0-1.08-5c-4.47-10.11-7-18.4-9-23l-.8-37.18c-.41-2.21-.11-2.59-1.62-2.59h-15c-1.51,0-1.21.38-1.61,2.59l-.8,37.57,0,0c-.12.33-.23.69-.34,1.07l-.35-.31-2.91,11.85c-5.4,13.38-5,13.38-5,19.11l-.22,8.09a1.2,1.2,0,0,0-.87,1.12v29.76l-.14,5.2c0,.36-.1.72-.11,1.08-.31,12-2.4,14.37,4.25,20.86a25,25,0,0,0,4.16,1.91l.39,0a11.92,11.92,0,0,0,2.89.36h17.09c6.3,0,11.45-4.88,11.45-10.84Z"/><path class="cls-12" d="M1588.11,8.93a1.78,1.78,0,0,0,1.82,1.72h17.37a1.78,1.78,0,0,0,1.82-1.72,1.78,1.78,0,0,0-1.82-1.72h3.44c0-1.69-5.52-3.06-12.32-3.06s-12.33,1.37-12.33,3.06h3.84A1.78,1.78,0,0,0,1588.11,8.93Z"/><path class="cls-12" d="M1592.51,94.22a12.47,12.47,0,0,0-1.08-5c-4.43-10.11-6.93-18.4-8.93-23l-.8-37.18c-.4-2.21-.1-2.59-1.6-2.59h-14.8c-1.5,0-1.2.38-1.6,2.59l-.8,37.57,0,0c-.12.33-.23.68-.34,1.07-.11-.11-.23-.21-.35-.31l-2.88,11.85c-5.35,13.37-4.94,13.37-4.94,19.11l-.22,8.09a1.19,1.19,0,0,0-.86,1.12v29.76l-.14,5.2c0,.36-.1.72-.11,1.08-.31,12-2.38,14.37,4.21,20.86a25,25,0,0,0,4.12,1.91l.39,0a11.67,11.67,0,0,0,2.86.36h16.93a11.13,11.13,0,0,0,11.34-10.84Z"/><path class="cls-12" d="M1562.5,24.36a1.77,1.77,0,0,0,1.8,1.72h17.2a1.72,1.72,0,1,0,0-3.44h3.4c0-1.69-5.46-3.06-12.2-3.06s-12.2,1.37-12.2,3.06h3.8A1.76,1.76,0,0,0,1562.5,24.36Z"/><path class="cls-12" d="M1644.4,89.4a12.48,12.48,0,0,0-1.09-5c-4.47-10.11-7-18.4-9-23l-.8-37.18c-.4-2.21-.11-2.59-1.62-2.59h-14.94c-1.51,0-1.22.38-1.62,2.59l-.8,37.57,0,0c-.12.33-.23.69-.35,1.07l-.35-.31-2.91,11.85c-5.4,13.38-5,13.38-5,19.11l-.23,8.09a1.19,1.19,0,0,0-.86,1.12v29.76l-.15,5.2c0,.36-.1.72-.11,1.08-.31,12-2.4,14.37,4.26,20.86a24.93,24.93,0,0,0,4.15,1.92l.39,0a12.5,12.5,0,0,0,2.89.35h17.09c6.3,0,11.45-4.88,11.45-10.84Z"/><path class="cls-12" d="M1614.1,19.54a1.78,1.78,0,0,0,1.82,1.72h17.37a1.72,1.72,0,1,0,0-3.44h3.43c0-1.69-5.51-3.06-12.32-3.06s-12.32,1.37-12.32,3.06h3.84A1.78,1.78,0,0,0,1614.1,19.54Z"/><path class="cls-12" d="M1669.64,75.43a12.48,12.48,0,0,0-1.09-5c-4.47-10.11-7-18.4-9-23l-.8-37.18c-.41-2.21-.11-2.59-1.62-2.59h-14.94c-1.51,0-1.22.38-1.62,2.59l-.8,37.57,0,0c-.11.33-.22.69-.34,1.07l-.35-.31-2.91,11.85c-5.4,13.38-5,13.38-5,19.11l-.22,8.09a1.19,1.19,0,0,0-.86,1.12v29.76l-.15,5.2c0,.36-.1.72-.11,1.08-.31,12-2.4,14.37,4.25,20.86a25,25,0,0,0,4.16,1.92l.39,0a12.5,12.5,0,0,0,2.89.35h17.09c6.3,0,11.45-4.88,11.45-10.84Z"/><path class="cls-12" d="M1639.34,5.57a1.78,1.78,0,0,0,1.82,1.72h17.37a1.77,1.77,0,0,0,1.81-1.72,1.77,1.77,0,0,0-1.81-1.72H1662c0-1.69-5.52-3.06-12.32-3.06s-12.32,1.37-12.32,3.06h3.84A1.78,1.78,0,0,0,1639.34,5.57Z"/><path class="cls-12" d="M1700.23,92.84a12.48,12.48,0,0,0-1.09-5c-4.47-10.11-7-18.4-9-23l-.8-37.18c-.4-2.21-.11-2.59-1.62-2.59h-14.94c-1.51,0-1.22.38-1.62,2.59l-.8,37.57,0,0c-.12.33-.23.69-.35,1.07l-.35-.31-2.91,11.85c-5.4,13.38-5,13.38-5,19.11l-.23,8.09a1.19,1.19,0,0,0-.86,1.12V135.9l-.15,5.2c0,.36-.1.72-.11,1.08-.31,12-2.4,14.37,4.26,20.86a24.9,24.9,0,0,0,4.15,1.91l.39,0a12,12,0,0,0,2.89.36h17.09c6.3,0,11.45-4.88,11.45-10.84Z"/><path class="cls-12" d="M1669.93,23a1.78,1.78,0,0,0,1.82,1.72h17.37a1.72,1.72,0,1,0,0-3.44h3.43c0-1.69-5.51-3.06-12.32-3.06s-12.32,1.37-12.32,3.06h3.84A1.78,1.78,0,0,0,1669.93,23Z"/></g><g class="cls-13"><path class="cls-12" d="M68.13,83A12.48,12.48,0,0,0,67,78c-4.47-10.11-7-18.4-9-23l-.8-37.18c-.41-2.21-.11-2.59-1.62-2.59H40.66c-1.51,0-1.22.38-1.62,2.59l-.8,37.57,0,0c-.11.33-.23.69-.34,1.07l-.35-.31L34.61,68c-5.4,13.38-5,13.38-5,19.11l-.22,8.09a1.19,1.19,0,0,0-.86,1.12v29.76l-.15,5.2c0,.36-.1.72-.11,1.08-.31,12-2.4,14.37,4.25,20.86a25,25,0,0,0,4.16,1.92l.39,0a12.43,12.43,0,0,0,2.89.35H57.06c6.3,0,11.45-4.88,11.45-10.84Z"/><path class="cls-12" d="M37.83,13.17a1.78,1.78,0,0,0,1.82,1.72H57a1.72,1.72,0,1,0,0-3.44h3.43c0-1.69-5.52-3.06-12.32-3.06S35.81,9.76,35.81,11.45h3.84A1.78,1.78,0,0,0,37.83,13.17Z"/><path class="cls-12" d="M42.22,98.46a12.47,12.47,0,0,0-1.08-5c-4.42-10.11-6.93-18.4-8.93-23l-.79-37.18c-.4-2.21-.11-2.59-1.6-2.59H15c-1.49,0-1.2.38-1.6,2.59l-.79,37.57,0,0c-.12.33-.23.69-.34,1.07l-.34-.31L9,83.44C3.67,96.81,4.08,96.81,4.08,102.55l-.22,8.09A1.2,1.2,0,0,0,3,111.76v29.76l-.15,5.2c0,.36-.1.72-.11,1.08-.3,12-2.37,14.37,4.22,20.86a24.48,24.48,0,0,0,4.11,1.91l.39,0a11.67,11.67,0,0,0,2.86.36H31.26A11.13,11.13,0,0,0,42.6,160.12Z"/><path class="cls-12" d="M12.21,28.6A1.77,1.77,0,0,0,14,30.32H31.22a1.72,1.72,0,1,0,0-3.44h3.4c0-1.69-5.47-3.06-12.21-3.06s-12.2,1.37-12.2,3.06H14A1.76,1.76,0,0,0,12.21,28.6Z"/><path class="cls-12" d="M94.11,93.64a12.48,12.48,0,0,0-1.09-5c-4.47-10.11-7-18.4-9-23l-.8-37.18c-.4-2.21-.11-2.59-1.61-2.59h-15c-1.51,0-1.21.38-1.62,2.59L64.22,66l0,0c-.12.33-.23.69-.34,1.07l-.35-.31L60.6,78.62c-5.41,13.38-5,13.38-5,19.11l-.23,8.09a1.19,1.19,0,0,0-.86,1.12V136.7l-.15,5.2c0,.36-.1.72-.11,1.08-.3,12-2.39,14.37,4.26,20.87a26.13,26.13,0,0,0,4.15,1.91l.39,0a12,12,0,0,0,2.89.35H83c6.3,0,11.46-4.88,11.46-10.84Z"/><path class="cls-12" d="M63.81,23.78a1.78,1.78,0,0,0,1.82,1.72H83a1.72,1.72,0,1,0,0-3.44h3.43c0-1.69-5.51-3.06-12.32-3.06s-12.32,1.37-12.32,3.06h3.84A1.78,1.78,0,0,0,63.81,23.78Z"/><path class="cls-12" d="M119.35,79.67a12.48,12.48,0,0,0-1.09-5c-4.47-10.11-7-18.39-9-23l-.8-37.17c-.4-2.22-.11-2.6-1.61-2.6h-15c-1.51,0-1.21.38-1.62,2.6l-.8,37.56,0,0c-.12.33-.23.69-.34,1.07l-.35-.31L85.84,64.65c-5.41,13.38-5,13.38-5,19.11l-.23,8.09A1.19,1.19,0,0,0,79.76,93v29.76l-.15,5.2c0,.36-.1.72-.11,1.08-.31,12-2.39,14.37,4.26,20.87a26.13,26.13,0,0,0,4.15,1.91l.39,0a12,12,0,0,0,2.89.35h17.09c6.3,0,11.46-4.88,11.46-10.84Z"/><path class="cls-12" d="M89.05,9.81a1.78,1.78,0,0,0,1.82,1.72h17.37a1.78,1.78,0,0,0,1.82-1.72,1.78,1.78,0,0,0-1.82-1.72h3.43C111.67,6.4,106.16,5,99.35,5S87,6.4,87,8.09h3.84A1.78,1.78,0,0,0,89.05,9.81Z"/><path class="cls-12" d="M149.94,97.08a12.48,12.48,0,0,0-1.09-5c-4.47-10.11-7-18.4-9-23L139,31.91c-.4-2.21-.11-2.59-1.61-2.59H122.47c-1.51,0-1.21.38-1.62,2.59l-.8,37.57,0,0c-.12.33-.23.69-.34,1.07l-.35-.31-2.91,11.85c-5.41,13.38-5,13.38-5,19.11l-.23,8.09a1.19,1.19,0,0,0-.86,1.12v29.76l-.15,5.2c0,.36-.1.72-.11,1.08-.3,12-2.39,14.37,4.26,20.86a25.31,25.31,0,0,0,4.15,1.92l.39,0a12.56,12.56,0,0,0,2.89.35h17.09c6.3,0,11.46-4.88,11.46-10.84Z"/><path class="cls-12" d="M119.64,27.22a1.78,1.78,0,0,0,1.82,1.72h17.37a1.72,1.72,0,1,0,0-3.44h3.43c0-1.69-5.51-3.06-12.32-3.06s-12.32,1.37-12.32,3.06h3.84A1.78,1.78,0,0,0,119.64,27.22Z"/><path class="cls-12" d="M178.77,86.15a12.47,12.47,0,0,0-1.08-5c-4.48-10.11-7-18.4-9-23L167.86,21c-.4-2.21-.1-2.59-1.61-2.59H151.3c-1.51,0-1.21.38-1.61,2.59l-.81,37.57,0,0c-.12.33-.23.69-.34,1.07l-.35-.31-2.91,11.85c-5.41,13.38-5,13.38-5,19.11L140,98.33a1.21,1.21,0,0,0-.86,1.12v29.76l-.14,5.2c0,.36-.1.72-.11,1.08-.31,12-2.4,14.37,4.25,20.86a25,25,0,0,0,4.16,1.91l.39,0a11.92,11.92,0,0,0,2.89.36h17.09c6.3,0,11.45-4.88,11.45-10.84Z"/><path class="cls-12" d="M148.47,16.29A1.78,1.78,0,0,0,150.29,18h17.37a1.72,1.72,0,1,0,0-3.44h3.44c0-1.69-5.52-3.06-12.33-3.06s-12.32,1.37-12.32,3.06h3.84A1.78,1.78,0,0,0,148.47,16.29Z"/><path class="cls-12" d="M208.27,97.08a12.48,12.48,0,0,0-1.09-5c-4.47-10.11-7-18.4-9-23l-.8-37.18c-.4-2.21-.11-2.59-1.61-2.59H180.8c-1.51,0-1.21.38-1.62,2.59l-.8,37.57,0,0c-.12.33-.23.69-.34,1.07l-.35-.31-2.91,11.85c-5.41,13.38-5,13.38-5,19.11l-.23,8.09a1.19,1.19,0,0,0-.86,1.12v29.76l-.15,5.2c0,.36-.1.72-.11,1.08-.31,12-2.39,14.37,4.26,20.86a25.31,25.31,0,0,0,4.15,1.92l.39,0a12.56,12.56,0,0,0,2.89.35H197.2c6.3,0,11.46-4.88,11.46-10.84Z"/><path class="cls-12" d="M178,27.22a1.78,1.78,0,0,0,1.82,1.72h17.37a1.72,1.72,0,1,0,0-3.44h3.43c0-1.69-5.51-3.06-12.32-3.06S176,23.81,176,25.5h3.84A1.78,1.78,0,0,0,178,27.22Z"/><path class="cls-12" d="M242.07,89.59a12.48,12.48,0,0,0-1.09-5c-4.47-10.11-7-18.4-9-23l-.8-37.18c-.4-2.21-.11-2.59-1.61-2.59h-15c-1.51,0-1.21.38-1.62,2.59L212.18,62l0,0c-.12.33-.23.69-.34,1.07l-.35-.31-2.91,11.85c-5.41,13.38-5,13.38-5,19.11l-.23,8.09a1.19,1.19,0,0,0-.86,1.12v29.76l-.15,5.2c0,.36-.1.72-.11,1.08-.3,12-2.39,14.37,4.26,20.86a25.27,25.27,0,0,0,4.15,1.91l.39,0a12,12,0,0,0,2.89.36H231c6.3,0,11.46-4.88,11.46-10.84Z"/><path class="cls-12" d="M211.77,19.73a1.78,1.78,0,0,0,1.82,1.72H231A1.72,1.72,0,1,0,231,18h3.43c0-1.69-5.51-3.06-12.32-3.06S209.75,16.32,209.75,18h3.84A1.78,1.78,0,0,0,211.77,19.73Z"/></g><g class="cls-13"><path class="cls-12" d="M412.44,85.16a12.55,12.55,0,0,0-1.08-5c-4.47-10.1-7-18.39-9-23L401.54,20c-.41-2.21-.11-2.59-1.62-2.59H385c-1.5,0-1.21.38-1.61,2.59l-.8,37.57,0,0c-.11.34-.23.69-.34,1.07l-.35-.3-2.91,11.85c-5.4,13.37-5,13.37-5,19.1l-.22,8.1a1.19,1.19,0,0,0-.87,1.12v29.76l-.14,5.2c0,.36-.1.71-.11,1.07-.31,12.05-2.4,14.37,4.25,20.87a25,25,0,0,0,4.16,1.91l.39,0a11.91,11.91,0,0,0,2.89.35h17.09c6.3,0,11.45-4.87,11.45-10.83Z"/><path class="cls-12" d="M382.15,15.3A1.77,1.77,0,0,0,384,17h17.38a1.72,1.72,0,1,0,0-3.44h3.43c0-1.68-5.52-3.05-12.32-3.05s-12.32,1.37-12.32,3.05H384A1.77,1.77,0,0,0,382.15,15.3Z"/><path class="cls-12" d="M386.54,100.59a12.51,12.51,0,0,0-1.08-5c-4.43-10.1-6.93-18.39-8.93-23l-.8-37.17c-.4-2.21-.1-2.6-1.6-2.6h-14.8c-1.5,0-1.2.39-1.6,2.6L356.93,73l0,0c-.12.34-.23.69-.34,1.07l-.34-.3-2.89,11.84C348,99,348.4,99,348.4,104.68l-.22,8.09a1.19,1.19,0,0,0-.86,1.12v29.76l-.14,5.21c0,.36-.1.71-.11,1.07-.3,12-2.37,14.37,4.21,20.87a25,25,0,0,0,4.12,1.91l.39,0a11.67,11.67,0,0,0,2.86.35h16.93a11.12,11.12,0,0,0,11.34-10.83Z"/><path class="cls-12" d="M356.53,30.73a1.76,1.76,0,0,0,1.8,1.72h17.2a1.72,1.72,0,1,0,0-3.44h3.41c0-1.69-5.47-3.05-12.21-3.05s-12.2,1.36-12.2,3.05h3.8A1.77,1.77,0,0,0,356.53,30.73Z"/><path class="cls-12" d="M438.43,95.77a12.56,12.56,0,0,0-1.09-5c-4.47-10.1-7-18.39-9-23l-.8-37.18c-.4-2.21-.11-2.59-1.61-2.59H411c-1.51,0-1.21.38-1.62,2.59l-.8,37.57,0,0c-.12.34-.23.69-.34,1.07l-.35-.3-2.91,11.85c-5.41,13.37-5,13.37-5,19.1l-.23,8.1a1.18,1.18,0,0,0-.86,1.12v29.76l-.15,5.2c0,.36-.1.71-.11,1.07-.31,12-2.39,14.37,4.26,20.87a25.27,25.27,0,0,0,4.15,1.91l.39,0a12,12,0,0,0,2.89.35h17.09c6.3,0,11.46-4.87,11.46-10.83Z"/><path class="cls-12" d="M408.13,25.91A1.78,1.78,0,0,0,410,27.63h17.37a1.72,1.72,0,1,0,0-3.44h3.43c0-1.68-5.51-3.05-12.32-3.05s-12.32,1.37-12.32,3.05H410A1.78,1.78,0,0,0,408.13,25.91Z"/><path class="cls-12" d="M463.67,81.8a12.56,12.56,0,0,0-1.09-5c-4.47-10.1-7-18.39-9-23l-.8-37.18c-.4-2.21-.11-2.59-1.62-2.59H436.2c-1.51,0-1.21.38-1.62,2.59l-.8,37.57,0,0c-.12.34-.23.69-.34,1.07l-.36-.3-2.91,11.85c-5.4,13.37-5,13.37-5,19.11L424.94,94a1.18,1.18,0,0,0-.86,1.12v29.76l-.15,5.2c0,.36-.1.72-.11,1.08-.31,12-2.4,14.36,4.26,20.86a24.9,24.9,0,0,0,4.15,1.91l.39,0a12,12,0,0,0,2.89.35H452.6c6.3,0,11.45-4.87,11.45-10.83Z"/><path class="cls-12" d="M433.37,11.94a1.78,1.78,0,0,0,1.82,1.72h17.37a1.72,1.72,0,1,0,0-3.44H456c0-1.68-5.51-3.05-12.32-3.05s-12.32,1.37-12.32,3.05h3.84A1.78,1.78,0,0,0,433.37,11.94Z"/><path class="cls-12" d="M494.26,99.21a12.56,12.56,0,0,0-1.09-5c-4.47-10.1-7-18.39-9-23l-.8-37.17c-.4-2.21-.11-2.59-1.61-2.59H466.79c-1.51,0-1.21.38-1.62,2.59l-.8,37.57,0,0c-.12.34-.23.69-.34,1.07l-.35-.3L460.75,84.2c-5.41,13.37-5,13.37-5,19.1l-.23,8.1a1.18,1.18,0,0,0-.86,1.12v29.76l-.15,5.2c0,.36-.1.71-.11,1.07-.31,12-2.39,14.37,4.26,20.87a25.27,25.27,0,0,0,4.15,1.91l.39,0a12,12,0,0,0,2.89.35h17.09c6.3,0,11.46-4.87,11.46-10.83Z"/><path class="cls-12" d="M464,29.35a1.78,1.78,0,0,0,1.82,1.72h17.37a1.72,1.72,0,1,0,0-3.44h3.43c0-1.68-5.51-3.05-12.32-3.05S461.94,26,461.94,27.63h3.84A1.78,1.78,0,0,0,464,29.35Z"/><path class="cls-12" d="M523.09,88.28a12.51,12.51,0,0,0-1.08-5c-4.48-10.1-7-18.39-9-23l-.8-37.17c-.4-2.21-.1-2.59-1.61-2.59H495.62c-1.51,0-1.21.38-1.62,2.59l-.8,37.57,0,0c-.12.34-.23.69-.34,1.07l-.35-.3-2.91,11.84c-5.41,13.38-5,13.38-5,19.11l-.23,8.09a1.19,1.19,0,0,0-.86,1.12v29.76l-.14,5.21c0,.36-.11.71-.11,1.07-.31,12-2.4,14.37,4.25,20.87a25,25,0,0,0,4.16,1.91l.39,0a11.89,11.89,0,0,0,2.88.35H512c6.29,0,11.45-4.87,11.45-10.83Z"/><path class="cls-12" d="M492.79,18.42a1.78,1.78,0,0,0,1.82,1.72H512a1.72,1.72,0,1,0,0-3.44h3.44c0-1.69-5.52-3-12.33-3s-12.32,1.36-12.32,3h3.84A1.78,1.78,0,0,0,492.79,18.42Z"/><path class="cls-12" d="M552.59,99.21a12.56,12.56,0,0,0-1.09-5c-4.47-10.1-7-18.39-9-23l-.8-37.17c-.4-2.21-.11-2.59-1.62-2.59H525.12c-1.51,0-1.21.38-1.62,2.59l-.8,37.57,0,0c-.12.34-.23.69-.34,1.07l-.36-.3L519.07,84.2c-5.4,13.37-5,13.37-5,19.1l-.23,8.1a1.18,1.18,0,0,0-.86,1.12v29.76l-.15,5.2c0,.36-.1.71-.11,1.07-.31,12-2.4,14.37,4.26,20.87a24.9,24.9,0,0,0,4.15,1.91l.39,0a12,12,0,0,0,2.89.35h17.09c6.3,0,11.45-4.87,11.45-10.83Z"/><path class="cls-12" d="M522.29,29.35a1.78,1.78,0,0,0,1.82,1.72h17.37a1.72,1.72,0,1,0,0-3.44h3.43c0-1.68-5.51-3.05-12.32-3.05S520.27,26,520.27,27.63h3.84A1.78,1.78,0,0,0,522.29,29.35Z"/><path class="cls-12" d="M586.39,91.72a12.52,12.52,0,0,0-1.09-5c-4.47-10.1-7-18.39-9-23l-.8-37.17c-.4-2.21-.11-2.6-1.61-2.6h-15c-1.51,0-1.21.39-1.62,2.6l-.8,37.57,0,0c-.12.34-.23.69-.34,1.07l-.35-.3L552.88,76.7c-5.41,13.38-5,13.38-5,19.11l-.23,8.09a1.19,1.19,0,0,0-.86,1.12v29.76l-.15,5.21c0,.36-.1.71-.11,1.07-.31,12.05-2.39,14.37,4.26,20.87a25.27,25.27,0,0,0,4.15,1.91l.39,0a12,12,0,0,0,2.89.35h17.09c6.3,0,11.46-4.87,11.46-10.83Z"/><path class="cls-12" d="M556.09,21.86a1.78,1.78,0,0,0,1.82,1.72h17.37a1.72,1.72,0,1,0,0-3.44h3.43c0-1.69-5.51-3.05-12.32-3.05s-12.32,1.36-12.32,3.05h3.84A1.78,1.78,0,0,0,556.09,21.86Z"/></g><g class="cls-13"><path class="cls-12" d="M289.71,81.2a12.48,12.48,0,0,0-1.09-5c-4.47-10.11-7-18.39-9-23L278.8,16c-.4-2.22-.11-2.6-1.62-2.6H262.24c-1.51,0-1.21.38-1.62,2.6l-.8,37.57,0,0c-.12.33-.23.69-.34,1.07l-.36-.31-2.91,11.85c-5.4,13.38-5,13.38-5,19.11L251,93.38a1.19,1.19,0,0,0-.86,1.12v29.76l-.15,5.2c0,.36-.1.72-.11,1.08-.31,12-2.4,14.37,4.26,20.87a25.73,25.73,0,0,0,4.15,1.91l.39,0a12,12,0,0,0,2.89.35h17.09c6.3,0,11.45-4.88,11.45-10.83Z"/><path class="cls-12" d="M259.41,11.34a1.78,1.78,0,0,0,1.82,1.72H278.6a1.72,1.72,0,1,0,0-3.44H282c0-1.69-5.51-3.06-12.32-3.06s-12.32,1.37-12.32,3.06h3.84A1.78,1.78,0,0,0,259.41,11.34Z"/><path class="cls-12" d="M263.8,96.63a12.64,12.64,0,0,0-1.07-5c-4.43-10.11-6.93-18.4-8.94-23L253,31.46c-.4-2.21-.11-2.59-1.6-2.59H236.59c-1.49,0-1.2.38-1.6,2.59L234.2,69l0,0c-.11.33-.22.69-.33,1.07l-.35-.31-2.88,11.85c-5.36,13.38-5,13.38-5,19.11l-.22,8.09a1.2,1.2,0,0,0-.85,1.12v29.76l-.15,5.2c0,.36-.1.72-.11,1.08-.3,12-2.37,14.37,4.22,20.87a25.3,25.3,0,0,0,4.11,1.91l.39,0a11.79,11.79,0,0,0,2.86.35h16.93a11.13,11.13,0,0,0,11.34-10.84Z"/><path class="cls-12" d="M233.79,26.77a1.77,1.77,0,0,0,1.8,1.72H252.8a1.72,1.72,0,1,0,0-3.44h3.4c0-1.69-5.47-3.06-12.21-3.06s-12.2,1.37-12.2,3.06h3.8A1.76,1.76,0,0,0,233.79,26.77Z"/><path class="cls-12" d="M315.69,91.81a12.51,12.51,0,0,0-1.08-5c-4.48-10.11-7-18.39-9-23l-.8-37.17c-.4-2.22-.1-2.6-1.61-2.6H288.22c-1.51,0-1.21.38-1.61,2.6l-.81,37.57,0,0c-.12.33-.23.69-.34,1.07l-.35-.3-2.91,11.84c-5.41,13.38-5,13.38-5,19.11L277,104a1.21,1.21,0,0,0-.86,1.12v29.76l-.14,5.2c0,.36-.1.72-.11,1.08-.31,12-2.4,14.37,4.25,20.87a25.83,25.83,0,0,0,4.16,1.91l.39,0a11.91,11.91,0,0,0,2.89.35h17.09c6.3,0,11.45-4.88,11.45-10.83Z"/><path class="cls-12" d="M285.39,22a1.78,1.78,0,0,0,1.82,1.72h17.37a1.72,1.72,0,1,0,0-3.44H308c0-1.69-5.52-3.06-12.33-3.06s-12.32,1.37-12.32,3.06h3.84A1.78,1.78,0,0,0,285.39,22Z"/><path class="cls-12" d="M340.93,77.84a12.51,12.51,0,0,0-1.08-5c-4.48-10.11-7-18.39-9-23L330,12.68c-.4-2.21-.1-2.6-1.61-2.6h-15c-1.51,0-1.21.39-1.62,2.6L311,50.25l0,0c-.12.33-.23.69-.34,1.07l-.35-.3-2.91,11.84c-5.41,13.38-5,13.38-5,19.11L302.2,90a1.19,1.19,0,0,0-.86,1.12V120.9l-.14,5.21c0,.35-.11.71-.11,1.07-.31,12-2.4,14.37,4.25,20.87A25,25,0,0,0,309.5,150l.39,0a11.91,11.91,0,0,0,2.89.35h17.09c6.29,0,11.45-4.87,11.45-10.83Z"/><path class="cls-12" d="M310.63,8a1.78,1.78,0,0,0,1.82,1.72h17.37A1.78,1.78,0,0,0,331.64,8a1.78,1.78,0,0,0-1.82-1.72h3.44c0-1.69-5.52-3.06-12.33-3.06s-12.32,1.37-12.32,3.06h3.84A1.78,1.78,0,0,0,310.63,8Z"/><path class="cls-12" d="M371.52,95.25a12.47,12.47,0,0,0-1.08-5c-4.48-10.11-7-18.39-9-23l-.8-37.17c-.4-2.22-.1-2.6-1.61-2.6H344.05c-1.51,0-1.21.38-1.61,2.6l-.81,37.57,0,0c-.12.33-.23.69-.34,1.07l-.35-.31L338,80.23c-5.41,13.38-5,13.38-5,19.11l-.23,8.09a1.21,1.21,0,0,0-.86,1.12v29.76l-.14,5.2c0,.36-.1.72-.11,1.08-.31,12-2.4,14.37,4.25,20.87a25.83,25.83,0,0,0,4.16,1.91l.39,0a11.91,11.91,0,0,0,2.89.35h17.09c6.3,0,11.45-4.88,11.45-10.83Z"/><path class="cls-12" d="M341.22,25.39A1.78,1.78,0,0,0,343,27.11h17.37a1.72,1.72,0,1,0,0-3.44h3.44c0-1.69-5.52-3.06-12.33-3.06S339.2,22,339.2,23.67H343A1.78,1.78,0,0,0,341.22,25.39Z"/></g><image width="107" height="204" transform="translate(1308 2)" xlink:href="startskaerm1.png"/><image width="107" height="205" transform="translate(1353 2)" xlink:href="startskaerm2.png"/><image width="107" height="204" transform="translate(1399 2)" xlink:href="startskaerm3.png"/><image width="107" height="204" transform="translate(1442 3)" xlink:href="startskaerm4.png"/><image width="108" height="205" transform="translate(1486 3)" xlink:href="startskaerm5.png"/><image width="107" height="203" transform="translate(1535 5)" xlink:href="startskaerm6.png"/><image width="107" height="203" transform="translate(1579 5)" xlink:href="startskaerm7.png"/><image width="107" height="203" transform="translate(1625 5)" xlink:href="startskaerm8.png"/><image width="107" height="202" transform="translate(1667 6)" xlink:href="startskaerm9.png"/><image width="107" height="203" transform="translate(1714 5)" xlink:href="startskaerm10.png"/><image width="107" height="201" transform="translate(1756 5)" xlink:href="startskaerm11.png"/><image width="107" height="201" transform="translate(1800 5)" xlink:href="startskaerm12.png"/><image width="107" height="202" transform="translate(1845 4)" xlink:href="startskaerm13.png"/><image width="107" height="205" transform="translate(-34)" xlink:href="startskaerm14.png"/><image width="107" height="204" transform="translate(11 1)" xlink:href="startskaerm15.png"/><image width="107" height="204" transform="translate(57)" xlink:href="startskaerm16.png"/><image width="107" height="204" transform="translate(100 1)" xlink:href="startskaerm17.png"/><image width="108" height="205" transform="translate(147)" xlink:href="startskaerm18.png"/><image width="108" height="208" transform="translate(200 -2)" xlink:href="startskaerm19.png"/><image width="108" height="208" transform="translate(246 -2)" xlink:href="startskaerm20.png"/><image width="109" height="208" transform="translate(293 -2)" xlink:href="startskaerm21.png"/><image width="109" height="209" transform="translate(337 -2)" xlink:href="startskaerm22.png"/><image width="109" height="208" transform="translate(375 -2)" xlink:href="startskaerm23.png"/><image width="108" height="206" transform="translate(419 -2)" xlink:href="startskaerm24.png"/><image width="108" height="206" transform="translate(464 -2)" xlink:href="startskaerm25.png"/><image width="108" height="206" transform="translate(511 -2)" xlink:href="startskaerm26.png"/><path class="cls-14" d="M817.37-9.43l92.79,139.71,96.65-143.59c19.39,46.72,43.57,131,86.43,233.77a133.64,133.64,0,0,1,10.39,50.67l3.7,626.19c0,60.51-49.32,110-109.59,110H834.18c-60.28,0-109.59-49.5-109.59-110l14.95-618a132.63,132.63,0,0,1,7-39.38C800,82,805.79,25.46,817.37-9.43Z"/><path class="cls-15" d="M979.92,29.38,910.33,134.16l-23.2-34.93c-3.87-3.88-10-16.94-15.46-23.29-3.27-3.77-19.52-29.76-23.2-34.92-11.26-15.78-30.93-33.9-30.93-46.57l7.73-385c3.87-22.45,1-26.33,15.47-26.33h143c14.43,0,11.6,3.88,15.47,26.33L1007-9.43C1004.89-5.65,990.84,11,979.92,29.38Z"/><path class="cls-15" d="M1103.35,727.91H738.4c-1.7,0-11.54,1.71-11.54,0l8.45-330.63a3.11,3.11,0,0,1,3.09-3.11h364.95a3.11,3.11,0,0,1,3.1,3.11V724.81A3.1,3.1,0,0,1,1103.35,727.91Z"/><path class="cls-15" d="M908.22,727.91H726.86a2.12,2.12,0,0,1-2.11-2.11l10.56-324.64c0-1,2.14-3.11,3.09-3.11l169.82-3.88a2.12,2.12,0,0,1,2.11,2.11V725.8A2.12,2.12,0,0,1,908.22,727.91Z"/><path class="cls-16" d="M802.8,1003.45l47.74,3.88h63.65l-4-877c-43.76-54.34-43.76-81.5-99.45-131.95l-27.85,120.3c-51.72,135.83-47.74,135.83-47.74,194L723.36,761.24c-.08,3.65-1,7.27-1.05,10.92-2.95,122.3-22.95,145.91,40.71,211.89C767.5,988.7,796.71,1001.11,802.8,1003.45Z"/><path class="cls-17" d="M995.38,995.69H898.73l3.86-877.06C945.12,64.3,949,41,999.25-25l50.26,139.71c61.85,139.71,46.39,174.64,46.39,232.85V755.08c.08,3.65,3.5,93.38,3.86,97,3.87,38.81,0,93.14-54.12,128.07C1029.38,990.66,1001.3,993.35,995.38,995.69Z"/><path d="M827.21,258.34h0a40.8,40.8,0,0,0-40.6,40.75l-3.86,25.22c0,5.83-6.74,48.09,7.73,54.33,4.9,2.12,29.15,0,34.79,0h3.87c43.67,7,44.41-15.07,42.53-42.68l-3.87-36.87A40.79,40.79,0,0,0,827.21,258.34Z"/><path d="M1016.64,254.46h0a40.79,40.79,0,0,0-40.59,40.75l-3.87,25.22c0,5.82-6.73,48.09,7.74,54.33,4.89,2.12,29.14,0,34.79,0h3.87c43.67,7,44.41-15.07,42.52-42.68l-3.86-36.87A40.8,40.8,0,0,0,1016.64,254.46Z"/><rect class="cls-18" x="821.41" y="273.77" width="38.66" height="65.97" rx="4.04"/><rect class="cls-18" x="1010.84" y="273.77" width="38.66" height="65.97" rx="4.04"/><path class="cls-19" d="M1032.82,739.56c-.87,48.22-67.92,98.92-107.63,71.79-44.2-30.2-104.71-32.75-105-71.79"/><path class="cls-20" d="M999.25,797.77c0-18.22-38.37-46.57-61.86-46.57s-50.26,15.52-11.6,50.45c13.49,12.19,15.17,38.81,38.66,38.81S999.25,816,999.25,797.77Z"/><path class="cls-21" d="M931.59,768.66c10.12,3.94,50.26,31.05,38.66,46.57"/><path d="M879.17,452.34q19.82,0,19.81,4.78c0,1.38-1.12,2.57-3.35,3.59a45.5,45.5,0,0,1-9.69,3.26q-5.69,1.3-9.1,2.06t-5.35,1.25c-1.3.33-2.59,1.83-3.85,4.51a16.22,16.22,0,0,0-1.89,6.3,7.54,7.54,0,0,0,2.11,4.78,35.1,35.1,0,0,0,5.14,4.89c2,1.6,4,3.26,6.06,5q7.26,6.19,7.26,12.61,0,9.88-9.69,18.09t-19,8.2a25.18,25.18,0,0,1-15.86-5q-6.56-5.05-6.55-11.46a8,8,0,0,1,.76-3.59A2.31,2.31,0,0,1,838,510c.86,0,2,.65,3.35,2q6.39,6.07,11.37,6.08T863.53,514q5.79-4.13,5.79-8.26,0-3.69-7.25-8.58c-2-1.38-4-2.86-6-4.46a21.06,21.06,0,0,1-5.09-6.08,17.74,17.74,0,0,1-2.11-8.91q0-5.22,5.2-14.51t9.52-10Q867.92,452.33,879.17,452.34Z"/><path d="M915.33,530.58q0,8.58-6.61,17.54t-11.9,9c-2.17,0-3.25-.76-3.25-2.28q0-1.09,2.27-4.35,6.82-9.56,6.82-14.56a5.26,5.26,0,0,0-1.95-4,47.92,47.92,0,0,0-3.84-3.1,4,4,0,0,1-1.89-3.31c0-1.3,1-3,3.08-5.11a9.33,9.33,0,0,1,6.77-3.15q3.67,0,7.09,4.24A14.3,14.3,0,0,1,915.33,530.58Z"/><path d="M966.58,510.69A47.86,47.86,0,0,1,956,525.31q-6.39,5.93-13.75,5.92t-13.15-7.77a27.6,27.6,0,0,1-5.79-16.84,67.06,67.06,0,0,1,3.14-19.45,74.58,74.58,0,0,1,8-18.15,49.93,49.93,0,0,1,11-12.66q6.12-4.89,11.86-4.89,8.55,0,13.53,6.09t5,17.38a68.94,68.94,0,0,1-2.55,17.39A102.1,102.1,0,0,1,966.58,510.69ZM960.47,476q0-10.32-2.93-10.32c-1.22,0-2.85,1.28-4.87,3.85a63.17,63.17,0,0,0-6.06,9.67,70.57,70.57,0,0,0-5.2,13.64,55.63,55.63,0,0,0-2.16,14.78q0,10.43,3.46,10.43,2.92,0,7.15-7.23a85.29,85.29,0,0,0,7.41-17.38Q960.46,483.31,960.47,476Z"/><path d="M986.77,521.61a8.85,8.85,0,0,1,2.49-5.76q2.49-2.88,5-2.88t5.79,5.87q3.3,5.86,3.3,8.8a4.74,4.74,0,0,1-1.78,3.15,5.17,5.17,0,0,1-3.52,1.74q-3.25,0-7.25-4C988.1,525.83,986.77,523.53,986.77,521.61Zm11.15-75.25q0-3.15,3.36-3.15t8.93,4.78q5.56,4.78,5.57,7,0,7.17-5,29.61T1002,507q-2.92,0-5.73-3.05a9.7,9.7,0,0,1-2.93-6.3q-.21-1.18.87-7t2.38-17.93A246.9,246.9,0,0,0,997.92,446.36Z"/><path class="cls-22" d="M1061.1,254.46c0-26.79-11.56-77.62-42.52-77.62s-46.4,50.83-46.4,77.62"/><path class="cls-22" d="M871.67,254.46c0-26.79-11.57-77.62-42.53-77.62s-46.39,50.83-46.39,77.62"/><path class="cls-23" d="M1488.44,281.8v1c-70.1.52-110.08,39.91-110.08,104.84L1376,584.48V825.74c-26.25,96.73,48.69,116.73,116.84,118.68v-.61c69,1.59,121.39-10.68,114-117.22l2.33-155.76,1.28-85.47,2.94-196.83C1614.39,323.17,1567.32,283,1488.44,281.8Z"/><path class="cls-24" d="M1430.22,935.27h0c69.22,9.32,66.93,27.63,64.28-60.59V334c-2.17-25.47,8.33-48.37-12.36-51.27-8.3-1.16-19.12,4.43-38.41,7.74a109.09,109.09,0,0,0-14.21,3.36l-1.77.55c-15.14,8.39-20.77,17.52-28.68,28-2.85,3.76-5,9.18-7.5,13.1-8.32,12.88-11.07,21.46-13.6,37.13l-2.91,426.91c3.31,17.45,1.51,34.84-2,52l-.21,1a60.47,60.47,0,0,0,9.09,45.82C1394.84,917.48,1411,932.92,1430.22,935.27Z"/><rect class="cls-25" x="1380.31" y="429.58" width="114.89" height="130.5" rx="0.41"/><rect class="cls-26" x="1495.2" y="429.58" width="117.23" height="130.5" rx="0.41"/><rect class="cls-27" x="1414.82" y="167.45" width="151.12" height="88.68" rx="14.11"/><rect class="cls-28" x="1514.79" y="167.45" width="13.95" height="88.68" rx="3"/><rect class="cls-28" x="1545.02" y="172.11" width="9.3" height="77.01" rx="2"/><path class="cls-29" d="M1536.88,302.8h-88.35c-7,0-59.28,18.67-38.36,4.67L1435.74,269a12.85,12.85,0,0,1,12.79-12.83h88.35A12.85,12.85,0,0,1,1549.67,269l32.55,43.18C1582.22,319.2,1543.91,302.8,1536.88,302.8Z"/><polygon class="cls-30" points="1470.63 397.11 1410.39 366.7 1412.48 362.53 1472.72 392.94 1470.63 397.11"/><polygon points="1571.89 362.59 1513.5 396.43 1511.17 392.38 1569.56 358.54 1571.89 362.59"/><path d="M1560.86,368l-39.2,21.62c-.08,18.74,18.14,30.79,35.93,24.4S1573.91,383.47,1560.86,368Z"/><path d="M1428.72,419c18,5.72,35.78-7,35-25.72l-40-20.15C1411.29,389.06,1410.71,413.24,1428.72,419Z"/><ellipse class="cls-18" cx="1539.2" cy="394.99" rx="3.49" ry="10.5"/><ellipse class="cls-18" cx="1446.21" cy="397.32" rx="3.49" ry="10.5"/><polygon points="1431.58 580.75 1425.88 570.47 1420.17 560.19 1431.97 560.33 1443.77 560.46 1437.68 570.61 1431.58 580.75"/><polygon points="1455.06 580.79 1449.2 570.6 1443.35 560.41 1455.15 560.37 1466.95 560.33 1461 570.56 1455.06 580.79"/><polygon points="1478.08 580.75 1472.38 570.47 1466.67 560.19 1478.47 560.33 1490.27 560.46 1484.18 570.61 1478.08 580.75"/><polygon points="1501.56 580.79 1495.7 570.6 1489.85 560.41 1501.65 560.37 1513.45 560.33 1507.5 570.56 1501.56 580.79"/><polygon points="1524.58 580.75 1518.88 570.47 1513.17 560.19 1524.97 560.33 1536.77 560.46 1530.67 570.61 1524.58 580.75"/><polygon points="1548.06 580.79 1542.2 570.6 1536.34 560.41 1548.14 560.37 1559.94 560.33 1554 570.56 1548.06 580.79"/><polygon points="1431.71 592.18 1425.88 602.38 1420.05 612.59 1431.85 612.6 1443.65 612.61 1437.68 602.39 1431.71 592.18"/><polygon points="1455.19 592.42 1449.2 602.54 1443.22 612.66 1455.02 612.85 1466.82 613.03 1461 602.73 1455.19 592.42"/><polygon points="1478.21 592.76 1472.38 602.96 1466.54 613.17 1478.35 613.18 1490.14 613.19 1484.18 602.97 1478.21 592.76"/><polygon points="1501.68 593 1495.7 603.12 1489.72 613.24 1501.52 613.43 1513.32 613.61 1507.5 603.31 1501.68 593"/><polygon points="1524.7 593.34 1518.87 603.54 1513.04 613.75 1524.84 613.76 1536.64 613.77 1530.67 603.55 1524.7 593.34"/><polygon points="1548.18 593.58 1542.19 603.7 1536.21 613.82 1548.01 614.01 1559.81 614.19 1553.99 603.89 1548.18 593.58"/><path d="M1420.54,505.05c-.87,0-2.11-.69-3.74-2.06s-2.44-2.73-2.44-4.08a163,163,0,0,1,1.37-16.47,194.06,194.06,0,0,0,1.36-22.48c0-1.83.57-2.74,1.7-2.74,1.56,0,3.43.87,5.63,2.61s3.28,3.49,3.28,5.23q0,.92-2.14,11.14a112.62,112.62,0,0,0-2.48,16.43,39.55,39.55,0,0,1,7.39-10.58c2.84-2.83,5.18-4.25,7-4.25q2,0,2.54,8.69a30.12,30.12,0,0,0,1,6c.52,1.81,1.24,2.71,2.15,2.71q2.54,0,4.52-5.45a32.85,32.85,0,0,0,2-11.28q0-12.6-6.9-12.61a4.87,4.87,0,0,1-3.75-2.09,6.16,6.16,0,0,1-1.72-3.72q0-2.94,3.58-2.94a18.82,18.82,0,0,1,8.43,1.79,13.92,13.92,0,0,1,5.63,4.94q4,6.21,4,15.29a35.69,35.69,0,0,1-2.15,12.12,27.21,27.21,0,0,1-6,9.9q-3.81,3.92-8.1,3.92-7.95,0-9-13.53l-2,2.88Q1424.59,505.05,1420.54,505.05Z"/><path d="M1491,486.56a2.8,2.8,0,0,1,1.17,1.89,16.57,16.57,0,0,1-.78,3.53,41.82,41.82,0,0,0-1,4.15c-.18,1-.32,1.75-.43,2.32s-.18,1-.22,1.34-.12.73-.23,1.21-.2.86-.26,1.14-.15.61-.26,1a3.17,3.17,0,0,1-.36.85,7,7,0,0,1-.46.62,1.51,1.51,0,0,1-1.3.52c-.61,0-1.35-.6-2.24-1.82a12.62,12.62,0,0,1-2-4.45q-6.12,6.27-10.28,6.27-2.8,0-6.06-3.1T1463,495.8q0-3.1,2.8-8.85a39.87,39.87,0,0,1,7.64-10.65q4.86-4.91,9.61-4.9c1.82,0,3.92,1.06,6.31,3.2s3.58,4.08,3.58,5.85A12.86,12.86,0,0,1,1491,486.56ZM1472,496.88q2.6,0,6.93-3.56a15,15,0,0,0,5.37-9c0-.52.41-.82,1.11-.91-.13-2.48-.55-3.72-1.24-3.72q-2.61,0-5.83,3.39a33.36,33.36,0,0,0-5.27,7.26q-2.05,3.86-2,5.68a1,1,0,0,0,.16.69A1.3,1.3,0,0,0,1472,496.88Z"/><path d="M1511.84,484.11q-1,3.17-2.47,7.94c-1,3.18-1.47,4.86-1.47,5.06s.36.29,1.08.29a21.74,21.74,0,0,0,5.11-1.47,25.39,25.39,0,0,1,4.75-1.47c1.08,0,1.63.74,1.63,2.23s-1.46,3.25-4.36,5.32a15.5,15.5,0,0,1-9.12,3.1c-1.39,0-3-.76-4.94-2.28s-2.87-3.07-2.87-4.64c0-1.31.66-4.06,2-8.27s2.22-7.09,2.7-8.66a15.46,15.46,0,0,1-3.84.72c-.87,0-1.78-.6-2.74-1.79a5.65,5.65,0,0,1-1.43-3.44q0-2.08,10.09-3.52a53.53,53.53,0,0,0,1.24-10.52,1.73,1.73,0,0,1,2-2q1.69,0,4.33,2.05t2.64,4.05a26.5,26.5,0,0,1-.85,5.59c2.08-.09,3.67-.13,4.75-.13q4.89,0,4.89,2.22c0,1-1,1.78-2.84,2.45a65.29,65.29,0,0,1-8.69,2.19C1513,480.35,1512.52,482,1511.84,484.11Z"/><path d="M1550.71,489.37a17.32,17.32,0,0,1-8.89,2.55,35.07,35.07,0,0,1-7.49-.66,11.15,11.15,0,0,0-.58,3.53,4.17,4.17,0,0,0,.58,2.52c.39.5,1.37.75,2.93.75a33.27,33.27,0,0,0,8.37-.92c2.32-.61,3.52-.91,3.61-.91,1.78,0,2.67.59,2.67,1.76q0,2.55-4.2,4.84a20,20,0,0,1-9.7,2.28,11.64,11.64,0,0,1-8.82-3.46,11.46,11.46,0,0,1-3.32-8.2,20.9,20.9,0,0,1,2.77-9.9,29,29,0,0,1,6.93-8.66c2.78-2.33,5.54-3.49,8.3-3.49s5.31,1.36,7.65,4.08,3.52,5.44,3.52,8.14C1555,485.75,1553.59,487.67,1550.71,489.37Zm-4.59-8.69a4,4,0,0,0-2.58-1.25q-1.2,0-3.09,1.74a20.79,20.79,0,0,0-3.58,4.47,14.57,14.57,0,0,0,1.69.07q8.93,0,8.92-3.14C1547.48,482.14,1547,481.5,1546.12,480.68Z"/><path d="M1561.22,482.44l-.39-7.38q0-3.66,2.28-3.66a4.17,4.17,0,0,1,2.57,1,6,6,0,0,1,1.92,3.07,19.22,19.22,0,0,1,4.85-3.17,11.37,11.37,0,0,1,4.65-1.21q4.76,0,4.75,2.29a2.88,2.88,0,0,1-.42,1.73c-.28.37-.5.64-.65.82a5.63,5.63,0,0,1-.78.68l-.81.62c-1,.66-1.72,1.11-2.15,1.37a19.56,19.56,0,0,0-5,4.42,17.37,17.37,0,0,0-3.13,7.15,65.16,65.16,0,0,1-3.42,11.21q-1.65,3.69-3.71,3.69a3.26,3.26,0,0,1-3.06-2,8.16,8.16,0,0,1-1-3.69,17.09,17.09,0,0,1,1.27-5.2,38.92,38.92,0,0,0,1.76-6A30.11,30.11,0,0,0,1561.22,482.44Z"/><g class="cls-31"><path class="cls-32" d="M34.61,775.16l108.48,2.1c56.32,0,108.48-37.7,96-29.32L170.21,974.1a25.16,25.16,0,0,1-25,25.13h-96a25.15,25.15,0,0,1-25-25.13L-28,752.13C-34.24,731.19-11.29,771,34.61,775.16Z"/></g><path class="cls-33" d="M101.36,999.05H47.6C33.05,1001,21.82,987.16,20,968.81a134.06,134.06,0,0,0-3-17.13L-8.15,844.2c0-12.73-26-100.54-21.2-98.42,3.11,1.38,47.39,27.56,51.44,27.29l75.1,4.19"/><path class="cls-34" d="M51.3,951.06l32.21,8.29c10.9,2.81,17.85,2.18,33.23-.05l31.56-8.24c13.56-4.18,42.77-46.07,38.6-31.41-1.72,6-12.52,46.07-14.61,55.5h0a24.1,24.1,0,0,1-24,24.08H50.25c-13.19,0-21.9-2.1-28.16-20.94L20,969.91c-2.08-8.38-2-11.52-2.57-15-1.86-11.85-8.26-37.23-3.68-31.11C20,932.22,26.26,940.59,51.3,951.06Z"/><path class="cls-34" d="M181.88,917.78l-8.4,12.74c2.41.8,14.32-9.19,15.4-16.79l46-149c.94-3.05,6.36-18.4,4.17-16.75l-8,1.64c-2.41-.8-.2,4.91-1.09,7.6"/><path class="cls-34" d="M13.47,920.74l8.2,13.34c-2.77.74.42,29.55-15.67-17.71L-32.15,764.69c-.74-2.78-8.34-19.09-4.17-18.85h10.43c2.77-.74-.12,5.86.61,8.64"/><path class="cls-34" d="M239.05,747.94c-45.9,25.13-61,30.31-133.51,29.32-67.05-.92-96,2.09-141.86-31.42-10.25-7.48,70.42-14.65,141.86-14.65S250.18,741.85,239.05,747.94Z"/><path d="M43.89,817h0a14.83,14.83,0,0,1,14.76,14.82v45.78a42.89,42.89,0,0,0,.3,4.53c.8,7.41-5,3.87-15.06,2h0c-8.12,0-18.7,6.91-18.7-2l3.94-50.37A14.83,14.83,0,0,1,43.89,817Z"/><path d="M138.76,819.14h0A14.82,14.82,0,0,1,153.52,834v45.79a42.7,42.7,0,0,0,.3,4.52c.8,7.41-5,3.88-15.06,2h0c-8.12,0-18.7,6.92-18.7-2L124,834A14.82,14.82,0,0,1,138.76,819.14Z"/><ellipse class="cls-18" cx="38.78" cy="867.3" rx="4.17" ry="12.56"/><ellipse class="cls-18" cx="130.57" cy="869.4" rx="4.17" ry="12.56"/><path class="cls-35" d="M78.42,930.12c-2.09,12.57-17.05,17-25,12.42s-14.6-20.79,2.09-31.26"/><path class="cls-36" d="M81.77,923.5a5.52,5.52,0,0,1,2.86,10.66"/><path class="cls-36" d="M49,909.48a4.69,4.69,0,1,1,9.32-1.1"/><polygon class="cls-18" points="60.22 926.16 57.55 923.84 62.99 917.54 65.66 919.85 60.22 926.16"/><polygon class="cls-18" points="65.1 926.88 62.73 925.12 66.22 920.38 68.59 922.13 65.1 926.88"/><ellipse class="cls-37" cx="61.73" cy="935.96" rx="10.43" ry="5.83"/><path class="cls-38" d="M29.39,822.28c0-11.13,8.81-21.66,16.69-23,6.07-1,9.59,4.93,10.43,16.76"/><path class="cls-38" d="M153.58,820.83c-1.15-11.07-11-20.65-19-21.2-6.14-.43-9,5.88-8.66,17.73"/><path class="cls-39" d="M582.48,276.54c0-40.64-24.5-64.75-65-64.75l-89.66,1.3c-55.32,0-78,29.86-78,84.79L338.17,510.5c0,8.61,1.82,5.22,10.4,5.22l31.18-2.61,46.79-2.61,39.63,1v0l60.43,1.57,39,11.74c8.58,0,29.89,3.39,29.89-5.22ZM462.27,442v0Z"/><path class="cls-40" d="M467.72,310.21c-6.15-.37-9.2-4.24-17.79-7.11-11.7-3.92-21-23-23.39-15.66-1.3,3.92-4.66,19-10.4,23.48-12.63,9.88-23.39,6.53-29.89,3.92-3.16-1.27-13-19.57-15.59-18.26-15.23,7.64-5.2,58.76-5.2,88.7,0,53.45,47.49,105.22,100.7,105.65C465.18,431.06,466.48,370.43,467.72,310.21ZM462.27,442v0Z"/><path class="cls-41" d="M548.69,303.1c-1.17-3-7.56,4.34-10.4,2.61-5.49-3.36-29.89-13-29.89-22.18,0,0-3.89,6.52-14.29-1.3-2.7-2-1.3,15.65-3.9,18.26-.66.66-4.34,4.85-5.2,5.22-8.39,3.61-13.44,4.74-17.29,4.5-1.24,60.22-2.54,120.85-1.56,180.72h0v0h.65c53.48,0,88.37-41.55,88.37-95.23C555.19,366.36,555.19,320.06,548.69,303.1Z"/><path class="cls-42" d="M412.47,379.41c-2.29-13.46,1.7-24.88,10.12-33,9.55-9.15,14.22,13.95,12.83,33"/><path class="cls-42" d="M512.57,378.1c2.2-13.45-1.63-24.88-9.75-33-9.19-9.16-13.68,13.94-12.34,33"/><ellipse cx="500.61" cy="363.1" rx="4.55" ry="7.17"/><ellipse cx="426.54" cy="365.71" rx="4.55" ry="7.17"/><path class="cls-43" d="M476.57,401.58c0,2.88-4.37,5.22-9.75,5.22s-9.75-2.34-9.75-5.22"/><path class="cls-44" d="M503.86,442c0,6.52-14.84,24.78-33.14,24.78S437.58,455.71,437.58,442"/><path class="cls-45" d="M437.58,434.19V442h24.69v-7.83Z"/><path class="cls-18" d="M462.27,434.19V442h41.59v-7.83Z"/><path class="cls-43" d="M499.65,426.73c3.08-1.85,7.66.16,10.24,4.48s2.18,9.34-.9,11.19"/><path class="cls-43" d="M442.72,429.34c-3.08-1.85-7.67.16-10.25,4.48s-2.17,9.34.91,11.19"/><path d="M507.75,260.7a61.67,61.67,0,0,0-.65,8.83,13.6,13.6,0,0,0-5.19-1c-6.1,0-11.05,3.8-11.05,8.48a7,7,0,0,0,.07.92c-2.34.62-5,5.56-6.31,11.92a32.35,32.35,0,0,0-.68,7.4,93.28,93.28,0,0,0-2-10.38c-3.82-15.33-22.72-23-38.18-23s-28,8.29-28,18.52c0,.2,0,.39,0,.59a40.91,40.91,0,0,0-20.38-5.06c-16.87,0-30.55,8.87-30.55,19.8s13.68,19.8,30.55,19.8,30.54-8.86,30.54-19.8a13.34,13.34,0,0,0-.57-3.82c5.07,2.43,11.64,4.41,18.39,7,14.71,5.68,42.77,27.55,40.51-1,.41,2.09,1.2,3.47,2.32,3.7,2.5.51,5.7-4.85,7.14-12a30.61,30.61,0,0,0,.6-8.56,13.55,13.55,0,0,0,14.92.22c9.5,28.76,47.93,28,47.93,2.13Z"/><path class="cls-46" d="M466.17,512.46v0H410.29c-8.57,0-15.59,6.63-15.59,14.74V689.33c0,8.1,7,14.74,15.59,14.74h60.15C471.61,639.86,473.83,575.83,466.17,512.46Z"/><path class="cls-47" d="M535,512.46H466.17c7.66,63.37,5.44,127.4,4.27,191.61H535c8.58,0,15.6-6.64,15.6-14.74V527.2C550.64,519.09,543.62,512.46,535,512.46Z"/><path class="cls-46" d="M381.58,512.46h-3.13a16.32,16.32,0,0,0-16.24,16.31v77A16.32,16.32,0,0,0,378.45,622a15.79,15.79,0,0,0,3.72-.45C382,585.14,381.08,548.61,381.58,512.46Z"/><path class="cls-47" d="M381.58,512.46c-.5,36.15.46,72.68.59,109.12a16.34,16.34,0,0,0,12.53-15.85V528.35a.66.66,0,0,1,.15-.42C410.56,508.51,413.77,512.41,381.58,512.46Z"/><path class="cls-46" d="M294.4,564.94c-9.11-4-18.77-2.09-21.48,4.17s2.52,14.64,11.62,18.61l32,13.77c1.58-8.32,3.22-16.6,4.63-24.86Z"/><path class="cls-47" d="M365.35,609.41h0c2.71-6.26-2.52-14.63-11.63-18.6L321.2,576.63c-1.41,8.26-3.05,16.54-4.63,24.86l26.63,11.45C393.31,632.56,362.64,615.68,365.35,609.41Z"/><path class="cls-48" d="M255.61,528.62c-5.4,2.8-5.53,13.33-.29,23.51a35,35,0,0,0,6.6,9.08c2.64-8.82,5.64-17.58,8.15-26.4C265.25,529.24,259.57,526.57,255.61,528.62Z"/><path class="cls-41" d="M274.89,542a37,37,0,0,0-4.82-7.18c-2.51,8.82-5.51,17.58-8.15,26.4,4.39,4.25,9.19,6.1,12.67,4.3C280,562.71,280.13,552.18,274.89,542Z"/><path class="cls-48" d="M466.14,512l-.94,0,.12,8-.12-8-20-.41,11.39,30.73,9.44,25.48C465.78,549.06,465.13,530.91,466.14,512Z"/><path class="cls-41" d="M493,512.51,469.13,512l-3-.07c-1,19-.36,37.11-.08,55.78L468,573l2.41-5.84c-.84-18.27-2.18-36.5-4.25-54.68,2.07,18.18,3.41,36.41,4.25,54.68l10.09-24.39Z"/><path class="cls-41" d="M466.17,517.68h.56c-.18-1.74-.36-3.48-.56-5.22Z"/><path class="cls-41" d="M478.54,486.37H466.17v26.09c.2,1.74.38,3.48.56,5.22h12.61a5,5,0,0,0,5-5V492.22A5.84,5.84,0,0,0,478.54,486.37Z"/><path class="cls-48" d="M461.48,490.28h-7l1.29,20.88c0,2.29,5.2,1.3,5.86,1.3h4.54V490.28Z"/><path d="M474,594.31a5.52,5.52,0,0,0-2.74-4.76c.08,3.14.14,6.28.2,9.42A5.56,5.56,0,0,0,474,594.31Z"/><path d="M468.44,588.77a5.55,5.55,0,0,0,0,11.09,5.45,5.45,0,0,0,3-.89c-.06-3.14-.12-6.28-.2-9.42A5.52,5.52,0,0,0,468.44,588.77Z"/><path d="M468.44,614.11a5.55,5.55,0,1,0,3.22,10q0-4.51,0-9A5.49,5.49,0,0,0,468.44,614.11Z"/><path d="M474,619.66a5.54,5.54,0,0,0-2.34-4.52q0,4.5,0,9A5.55,5.55,0,0,0,474,619.66Z"/><path d="M474,643.94a5.52,5.52,0,0,0-2.35-4.52c0,3,0,6.07-.07,9.11A5.55,5.55,0,0,0,474,643.94Z"/><path d="M468.44,638.4a5.55,5.55,0,1,0,3.11,10.13c0-3,.05-6.07.07-9.11A5.46,5.46,0,0,0,468.44,638.4Z"/><path d="M468.44,662.69a5.55,5.55,0,0,0,0,11.09,5.41,5.41,0,0,0,2.77-.78l.15-9.46A5.48,5.48,0,0,0,468.44,662.69Z"/><path d="M474,668.23a5.54,5.54,0,0,0-2.61-4.69l-.15,9.46A5.52,5.52,0,0,0,474,668.23Z"/><path class="cls-18" d="M467.23,572.8l3.51,1.64c-.12-3.05-.25-6.09-.4-9.14Z"/><path class="cls-18" d="M493.71,512.19l-1.16-.43L470.34,565.3c.15,3.05.28,6.09.4,9.14l9.73,4.55,18.28-56.22A8.51,8.51,0,0,0,493.71,512.19Z"/><path class="cls-18" d="M443.8,512a8.51,8.51,0,0,0-5.36,10.43L455,579.15l13.42-5.78L445,511.59Z"/><rect class="cls-47" x="548.04" y="518.98" width="29.89" height="185.08" rx="11.5"/><path class="cls-49" d="M482.41,346.14c0-5,8.87-15.65,18.2-15.65s19.2,13.23,19.49,18.26"/><path class="cls-49" d="M408.34,346.14c0-5,8.87-15.65,18.2-15.65s19.19,13.23,19.49,18.26"/><path class="cls-12" d="M481.57,461.91c3.57-7.17-7.15-10.76-15.19-10.76-4.81,0-2.68,3.21-2.68,7.18s2.8,7.17,6.25,7.17S479.8,465.46,481.57,461.91Z"/><g class="cls-13"><image width="528" height="142" transform="translate(725 908)" xlink:href="startskaerm27.png"/></g><g class="cls-13"><image width="357" height="116" transform="translate(1369 871)" xlink:href="startskaerm28.png"/></g><g class="cls-50"><image width="301" height="108" transform="translate(1678 723)" xlink:href="startskaerm29.png"/></g><g class="cls-51"><image width="291" height="107" transform="translate(-6 936)" xlink:href="startskaerm30.png"/></g><g class="cls-13"><path class="cls-27" d="M1904.06,485.1h-70.34q0,148.3.41,296h69.93a26.22,26.22,0,0,0,26.1-26.19V511.29A26.22,26.22,0,0,0,1904.06,485.1Z"/><path class="cls-52" d="M1763.36,485.1a26.22,26.22,0,0,0-26.1,26.19V754.94a26.22,26.22,0,0,0,26.1,26.19h70.77q-.17-147.84-.41-296Z"/></g><path class="cls-53" d="M1779.92,423.66A22.37,22.37,0,0,0,1757.66,446v20.48a22.37,22.37,0,0,0,22.26,22.34h53.79V423.66Z"/><path class="cls-54" d="M1883.79,423.66h-50.08v65.16h50.08a22.37,22.37,0,0,0,22.26-22.34V446A22.37,22.37,0,0,0,1883.79,423.66Z"/><path class="cls-55" d="M1886.23,598.76h-34.52V564.11a8.24,8.24,0,0,0-8.23-8.26h-19.54a8.24,8.24,0,0,0-8.23,8.26v34.65h-34.52A8.23,8.23,0,0,0,1773,607v19.62a8.24,8.24,0,0,0,8.22,8.26h34.52v34.65a8.24,8.24,0,0,0,8.23,8.26h19.54a8.24,8.24,0,0,0,8.23-8.26V634.89h34.52a8.24,8.24,0,0,0,8.22-8.26V607A8.23,8.23,0,0,0,1886.23,598.76Z"/><polygon points="1824.95 565.03 1822.1 560.64 1819.13 556.25 1824.18 556.15 1829.12 556.05 1827.03 560.54 1824.95 565.03"/><polygon points="1834.01 565.01 1831.3 560.53 1828.47 556.04 1833.52 556.1 1838.46 556.16 1836.24 560.59 1834.01 565.01"/><polygon points="1839.58 565.01 1836.86 560.53 1834.04 556.04 1839.09 556.1 1844.02 556.16 1841.8 560.59 1839.58 565.01"/><polygon points="1828.45 565.01 1825.74 560.53 1822.91 556.04 1827.96 556.1 1832.89 556.16 1830.67 560.59 1828.45 565.01"/><polygon points="1838.3 666.04 1841.07 671.38 1843.96 676.71 1838.9 676.72 1833.97 676.72 1836.13 671.38 1838.3 666.04"/><polygon points="1829.24 665.87 1831.87 671.3 1834.61 676.74 1829.56 676.56 1824.63 676.38 1826.93 671.12 1829.24 665.87"/><polygon points="1823.67 665.74 1826.3 671.18 1829.05 676.62 1824 676.43 1819.07 676.25 1821.37 671 1823.67 665.74"/><polygon points="1834.8 665.99 1837.43 671.43 1840.17 676.87 1835.13 676.68 1830.19 676.5 1832.5 671.25 1834.8 665.99"/><polygon points="1763.88 513.17 1761.29 517.67 1799.59 539.87 1802.18 535.37 1763.88 513.17"/><polygon points="1865.16 535.37 1867.75 539.87 1906.05 517.67 1903.46 513.17 1865.16 535.37"/><path d="M1901,519.79c5.79,10,6.54,21.59-2.32,26.75s-24,2-29.76-8.06"/><path d="M1798.76,537.37c-5.27,10.3-14.58,17.18-23.69,12.48s-14.58-19.2-9.3-29.5"/><ellipse class="cls-18" cx="1883.79" cy="540.02" rx="3.71" ry="6.52"/><ellipse class="cls-18" cx="1785.49" cy="541.89" rx="3.71" ry="6.52"/><rect class="cls-56" x="1770.65" y="434.83" width="3.71" height="46.55"/><rect class="cls-56" x="1783.63" y="434.83" width="3.71" height="46.55"/><rect class="cls-56" x="1796.61" y="434.83" width="3.71" height="46.55"/><rect class="cls-56" x="1809.6" y="434.83" width="3.71" height="46.55"/><rect class="cls-56" x="1822.58" y="434.83" width="3.71" height="46.55"/><rect class="cls-56" x="1837.42" y="434.83" width="3.71" height="46.55"/><rect class="cls-56" x="1850.4" y="434.83" width="3.71" height="46.55"/><rect class="cls-56" x="1863.39" y="434.83" width="3.71" height="46.55"/><rect class="cls-56" x="1878.22" y="434.83" width="3.71" height="46.55"/><rect class="cls-56" x="1891.21" y="434.83" width="3.71" height="46.55"/><path class="cls-57" d="M1664.22,1026H1535.16c1.1,57.66-4.69,115.64,0,172.86h129.08c31.38,0,57.06-20.37,57.06-45.26v-82.34C1721.28,1046.34,1695.6,1026,1664.22,1026Z"/><path class="cls-58" d="M1535.16,1026H1422.51c1.26,57.45.22,115.16-.23,172.86h112.86C1530.47,1141.61,1536.26,1083.63,1535.16,1026Z"/><path class="cls-59" d="M1422.51,1026h-22.23c-31.38,0-57.06,20.37-57.06,45.26v82.34c0,24.89,25.68,45.26,57.06,45.26h22C1422.73,1141.13,1423.77,1083.42,1422.51,1026Zm-28,167.92v0Z"/><path class="cls-57" d="M1088.74,1027.27H959.68c1.11,57.66-4.69,115.64,0,172.86h129.07c31.39,0,57.07-20.37,57.07-45.26v-82.35C1145.81,1047.63,1120.13,1027.27,1088.74,1027.27Z"/><path class="cls-58" d="M959.68,1027.27H847c1.27,57.45.23,115.16-.22,172.86H959.67C955,1142.91,960.79,1084.93,959.68,1027.27Z"/><path class="cls-59" d="M847,1027.27H824.81c-31.39,0-57.06,20.36-57.06,45.25v82.35c0,24.89,25.67,45.26,57.06,45.26h22C847.26,1142.43,848.3,1084.72,847,1027.27Zm-28,167.92v0Z"/><path class="cls-57" d="M505.55,1026.32H376.49c1.1,57.66-4.69,115.64,0,172.86H505.55c31.38,0,57.06-20.37,57.06-45.26v-82.34C562.61,1046.69,536.93,1026.32,505.55,1026.32Z"/><path class="cls-58" d="M376.49,1026.32H263.83c1.27,57.45.23,115.16-.22,172.86H376.47C371.8,1142,377.59,1084,376.49,1026.32Z"/><path class="cls-59" d="M263.83,1026.32H241.61c-31.38,0-57.06,20.37-57.06,45.26v82.34c0,24.89,25.68,45.26,57.06,45.26h22C264.06,1141.48,265.1,1083.77,263.83,1026.32Zm-28,167.92v0Z"/></g></svg>
