<svg xmlns="http://www.w3.org/2000/svg" width="830" height="480" viewBox="0 0 830 480"><defs><style>.cls-1{fill:#f4ca92;}.cls-10,.cls-2,.cls-6{stroke:#000;}.cls-10,.cls-16,.cls-2,.cls-6{stroke-miterlimit:10;}.cls-2{opacity:0.7;}.cls-3,.cls-4,.cls-5{fill:#efab4c;}.cls-3,.cls-7{opacity:0.9;}.cls-4{opacity:0.95;}.cls-13,.cls-7,.cls-8{fill:#c7b299;}.cls-9{fill:#dfebfb;}.cls-10{fill:none;stroke-width:0.5px;}.cls-11,.cls-12{fill:#6148b0;}.cls-11,.cls-13,.cls-22{opacity:0.8;}.cls-14{fill:#fff;}.cls-15{fill:#150200;}.cls-16{fill:#940018;stroke:#c7b299;stroke-width:0;}.cls-17,.cls-22{fill:#086cb6;}.cls-17,.cls-18,.cls-19,.cls-20{opacity:0.6;}.cls-18{fill:#0c3f96;}.cls-19,.cls-21{fill:#09448b;}.cls-20{fill:#14bddc;}.cls-23{fill:#6ad0df;opacity:0.3;}.cls-24{fill:#050505;}</style></defs><title>taber_end</title><g id="Layer_8" data-name="Layer 8"><rect class="cls-1" x="6.49" y="7.73" width="816.13" height="465.89" rx="60.81"/><path d="M761.8,8.23a60.39,60.39,0,0,1,60.32,60.31V412.81a60.39,60.39,0,0,1-60.32,60.31H67.3A60.38,60.38,0,0,1,7,412.81V68.54A60.38,60.38,0,0,1,67.3,8.23H761.8m0-1H67.3A61.49,61.49,0,0,0,6,68.54V412.81A61.49,61.49,0,0,0,67.3,474.12H761.8a61.49,61.49,0,0,0,61.32-61.31V68.54A61.49,61.49,0,0,0,761.8,7.23Z"/><path d="M102.59,75.8a27.41,27.41,0,0,1,8.81,1.64,40.55,40.55,0,0,1,8.88,4.31,26,26,0,0,1,6.87,6.42,12.72,12.72,0,0,1,2.76,7.59q0,2.88-4.67,7.16a48.45,48.45,0,0,1-10.82,7.42q-6.15,3.14-10.07,3.13c-.59,0-1.52-.76-2.82-2.29s-1.93-2.64-1.93-3.36q0-2.1,2.81-11.72t3.49-13.22a11.8,11.8,0,0,1-3.1-2.95A5.32,5.32,0,0,1,101.56,77C101.56,76.2,101.9,75.8,102.59,75.8Zm19.89,18.53c0-1.1-1-2.54-3-4.34a27.39,27.39,0,0,0-7.08-4.49q-.3,3.85-4.39,16.47c-.13.45-.35,1.17-.64,2.18s-.51,1.69-.65,2a37.65,37.65,0,0,0,10.44-5.72Q122.48,96.43,122.48,94.33Z"/><path d="M136.34,92.74q4-5.76,7.93-5.75a8.89,8.89,0,0,1,6.61,2.74,9.13,9.13,0,0,1,2.68,6.62,18.72,18.72,0,0,1-1.85,7.88,18,18,0,0,1-5.22,6.65,11.41,11.41,0,0,1-7.18,2.64A6.21,6.21,0,0,1,134.4,111a9.37,9.37,0,0,1-2.06-6.11A20.9,20.9,0,0,1,136.34,92.74Zm8.39,10.57a14.64,14.64,0,0,0,2.07-7c0-2.19-.31-3.7-.93-4.52-1.48.86-3,2.65-4.42,5.39a15.8,15.8,0,0,0-2.19,7.21c0,2.07.21,3.38.62,3.92A10.8,10.8,0,0,0,144.73,103.31Z"/><path d="M195.29,88.32A1.58,1.58,0,0,1,197,87a4,4,0,0,1,2.86,1.74,6,6,0,0,1,1.47,4,14.59,14.59,0,0,1-.93,4.05c-.62,1.85-1.05,3.16-1.31,3.95s-.63,1.86-1.11,3.21-.92,2.6-1.32,3.74l-1.6,4.6q-1,2.86-1.83,5.33a20.56,20.56,0,0,1-3.9,7.14,7.74,7.74,0,0,1-6,2.51,11.61,11.61,0,0,1-6.56-1.92q-2.9-1.93-2.89-3.88a4.51,4.51,0,0,1,1.06-2.61c.7-1,1.31-1.44,1.81-1.44a3.3,3.3,0,0,1,2,1.21c.81.8,1.64,1.6,2.5,2.41a3.63,3.63,0,0,0,2.28,1.2,1.33,1.33,0,0,0,1.11-.61q.44-.61.72-1.11a7.91,7.91,0,0,0,.59-1.33c.21-.56.4-1.09.57-1.57s.38-1.11.62-1.89.45-1.49.62-2.11q.88-2.78,1.5-4.92a17.63,17.63,0,0,1-3.51,3.51,5.87,5.87,0,0,1-3.33,1.31q-1.53,0-3.77-2.28a7.05,7.05,0,0,1-2.25-5,30.69,30.69,0,0,1,1.21-7.37,42.49,42.49,0,0,1,3-8.21Q182.44,87,183.83,87a4.33,4.33,0,0,1,3,1.36A3.82,3.82,0,0,1,188.27,91a11.35,11.35,0,0,1-1.27,4q-1.26,2.76-2.55,6a15.81,15.81,0,0,0-1.29,5.59c0,.21.08.31.25.31.45,0,1.4-.83,2.84-2.49a48.1,48.1,0,0,0,4.88-7.08A44.53,44.53,0,0,0,195.29,88.32Z"/><path d="M206.63,92.74c2.66-3.84,5.31-5.75,7.92-5.75a8.87,8.87,0,0,1,6.61,2.74,9.13,9.13,0,0,1,2.69,6.62,18.59,18.59,0,0,1-1.86,7.88,18,18,0,0,1-5.22,6.65,11.38,11.38,0,0,1-7.17,2.64,6.2,6.2,0,0,1-4.91-2.51,9.32,9.32,0,0,1-2.07-6.11A20.91,20.91,0,0,1,206.63,92.74ZM215,103.31a14.73,14.73,0,0,0,2.06-7c0-2.19-.31-3.7-.93-4.52-1.48.86-3,2.65-4.41,5.39a15.7,15.7,0,0,0-2.2,7.21c0,2.07.21,3.38.62,3.92A10.86,10.86,0,0,0,215,103.31Z"/><path d="M244.56,88.32A1.62,1.62,0,0,1,246.21,87c.83,0,1.78.7,2.87,2.1a6.41,6.41,0,0,1,1.62,3.65,75.67,75.67,0,0,1-2.37,7.54q-2.39,7-3.67,11-.72,2.16-2.43,2.16a2.27,2.27,0,0,1-1.73-.75,3.33,3.33,0,0,1-.69-2.33,23,23,0,0,1,.62-4.52q-5.33,7.6-8.47,7.6c-1.11,0-2.43-.71-4-2.13s-2.32-2.8-2.32-4.13q0-4.94,2.81-12.57T233.76,87a3.44,3.44,0,0,1,2.66,1.33,4.36,4.36,0,0,1,1.17,2.93,14,14,0,0,1-1.3,3.44q-3.91,8.46-3.92,12c0,.21.09.31.26.31.51,0,1.49-.81,2.92-2.44a47.38,47.38,0,0,0,4.8-7A48.5,48.5,0,0,0,244.56,88.32Z"/><path d="M291.11,101.15a13.78,13.78,0,0,1-7.05,2,28.33,28.33,0,0,1-5.93-.51,8.66,8.66,0,0,0-.47,2.77,3.25,3.25,0,0,0,.47,2c.3.39,1.08.59,2.32.59a26.7,26.7,0,0,0,6.64-.72c1.84-.48,2.79-.72,2.86-.72,1.41,0,2.12.46,2.12,1.39,0,1.33-1.11,2.6-3.33,3.79a16,16,0,0,1-7.7,1.8,9.32,9.32,0,0,1-7-2.72,9,9,0,0,1-2.63-6.44,16.32,16.32,0,0,1,2.2-7.78,22.89,22.89,0,0,1,5.5-6.8A10.36,10.36,0,0,1,285.69,87q3.29,0,6.07,3.21a9.79,9.79,0,0,1,2.79,6.39C294.55,98.31,293.4,99.82,291.11,101.15Zm-3.64-6.82a3.16,3.16,0,0,0-2-1A4.17,4.17,0,0,0,283,94.71a16.32,16.32,0,0,0-2.84,3.52c.31,0,.76,0,1.34,0q7.08,0,7.08-2.47C288.56,95.47,288.2,95,287.47,94.33Z"/><path d="M314.69,87a4.35,4.35,0,0,1,2.61.95,2.58,2.58,0,0,1,1.26,2c0,1.24-1,4.09-3.07,8.57a90.92,90.92,0,0,1-5.68,10.83q-2.61,4.11-4.06,4.11a4.57,4.57,0,0,1-2.24-1,5.05,5.05,0,0,1-1.89-2,75.43,75.43,0,0,1-3-11,66.92,66.92,0,0,1-1.76-10.19c0-1.43.48-2.15,1.45-2.15a6,6,0,0,1,3.61,1.39,8.54,8.54,0,0,1,3.46,6.31c.11,1.23.19,2.74.26,4.54a33.17,33.17,0,0,0,.46,4.64,70.92,70.92,0,0,0,3.05-7q1.81-4.65,3.13-7.26C313.16,87.91,314,87,314.69,87Z"/><path d="M338.11,101.15a13.78,13.78,0,0,1-7.05,2,28.5,28.5,0,0,1-5.94-.51,8.66,8.66,0,0,0-.47,2.77,3.25,3.25,0,0,0,.47,2c.31.39,1.08.59,2.32.59a26.64,26.64,0,0,0,6.64-.72c1.84-.48,2.8-.72,2.87-.72,1.41,0,2.11.46,2.11,1.39,0,1.33-1.11,2.6-3.33,3.79a15.91,15.91,0,0,1-7.69,1.8,9.3,9.3,0,0,1-7-2.72,8.92,8.92,0,0,1-2.63-6.44,16.41,16.41,0,0,1,2.19-7.78,23,23,0,0,1,5.5-6.8A10.38,10.38,0,0,1,332.68,87q3.29,0,6.07,3.21a9.79,9.79,0,0,1,2.79,6.39C341.54,98.31,340.4,99.82,338.11,101.15Zm-3.64-6.82a3.2,3.2,0,0,0-2-1A4.19,4.19,0,0,0,330,94.71a16.63,16.63,0,0,0-2.84,3.52c.31,0,.76,0,1.35,0q7.06,0,7.07-2.47C335.55,95.47,335.19,95,334.47,94.33Z"/><path d="M362.61,87a6.09,6.09,0,0,1,4.73,2.39,7.72,7.72,0,0,1,2,5.1,32,32,0,0,1-1.42,9.11,28.64,28.64,0,0,1-3.1,7.31c-1.12,1.71-2.26,2.57-3.41,2.57s-1.73-.8-1.73-2.41a33.27,33.27,0,0,1,1.7-7.44,28.57,28.57,0,0,0,1.29-6.62c0-1.34-.17-2-.51-2a1.87,1.87,0,0,0-1.32.66c-.43.45-.78.84-1.06,1.18s-.59.78-.95,1.31-.67,1-.93,1.44-.59,1-1,1.64-.72,1.21-1,1.64l-.93,1.67q-4.8,8.93-7.54,8.93c-.72,0-1.63-.62-2.74-1.87s-1.65-2.17-1.65-2.75a9,9,0,0,1,.75-2.44c.5-1.25.86-2.2,1.09-2.87a18.37,18.37,0,0,0,.56-2.13c.16-.75.29-1.57.39-2.44s.18-1.55.23-2,.11-1.24.18-2.26q.46-6.67.8-7.39t.75-.72a5.6,5.6,0,0,1,3.77,1.62c1.21,1.07,1.81,2.06,1.81,3a37.22,37.22,0,0,1-1.65,9.13,99.7,99.7,0,0,1,6.12-9.57Q360.7,87,362.61,87Z"/><path d="M404.26,97c-.53,1.66-1.19,3.74-2,6.24s-1.16,3.82-1.16,4,.28.23.85.23a17.11,17.11,0,0,0,4.05-1.15,20.68,20.68,0,0,1,3.77-1.16c.86,0,1.29.59,1.29,1.75s-1.15,2.56-3.46,4.18a12.31,12.31,0,0,1-7.23,2.44,6.77,6.77,0,0,1-3.92-1.8c-1.52-1.19-2.27-2.41-2.27-3.64a28.32,28.32,0,0,1,1.57-6.49q1.57-4.95,2.14-6.8a12.13,12.13,0,0,1-3,.56,3,3,0,0,1-2.17-1.41,4.37,4.37,0,0,1-1.14-2.69q0-1.65,8-2.77a42.28,42.28,0,0,0,1-8.27,1.36,1.36,0,0,1,1.55-1.53,6.2,6.2,0,0,1,3.43,1.61c1.4,1.08,2.09,2.14,2.09,3.18a20.17,20.17,0,0,1-.67,4.39c1.65-.07,2.91-.1,3.77-.1q3.87,0,3.87,1.74c0,.76-.74,1.4-2.24,1.93a54.76,54.76,0,0,1-6.9,1.72C405.2,94.07,404.79,95.36,404.26,97Z"/><path d="M418.23,95.71l-.31-5.8c0-1.91.6-2.87,1.81-2.87a3.35,3.35,0,0,1,2,.77,4.68,4.68,0,0,1,1.52,2.41,15.57,15.57,0,0,1,3.85-2.49,9.15,9.15,0,0,1,3.69-1c2.51,0,3.77.6,3.77,1.8a2.2,2.2,0,0,1-.34,1.36c-.22.29-.39.5-.51.64a4.28,4.28,0,0,1-.62.54l-.65.49c-.79.51-1.36.87-1.7,1.07a15.87,15.87,0,0,0-4,3.47,13.63,13.63,0,0,0-2.48,5.62,51.07,51.07,0,0,1-2.71,8.8c-.88,1.93-1.86,2.9-2.94,2.9a2.59,2.59,0,0,1-2.43-1.54,6.36,6.36,0,0,1-.8-2.9,13.19,13.19,0,0,1,1-4.08,31.3,31.3,0,0,0,1.39-4.7A23.56,23.56,0,0,0,418.23,95.71Z"/><path d="M453.35,88.32a1.56,1.56,0,0,1,1.7-1.28,4,4,0,0,1,2.87,1.74,6,6,0,0,1,1.47,4,14.59,14.59,0,0,1-.93,4.05c-.62,1.85-1.06,3.16-1.32,3.95s-.63,1.86-1.11,3.21l-1.32,3.74q-.58,1.73-1.6,4.6t-1.83,5.33a20.56,20.56,0,0,1-3.9,7.14,7.72,7.72,0,0,1-6,2.51,11.59,11.59,0,0,1-6.56-1.92q-2.89-1.93-2.89-3.88a4.56,4.56,0,0,1,1-2.61c.71-1,1.31-1.44,1.81-1.44a3.27,3.27,0,0,1,2,1.21c.81.8,1.65,1.6,2.51,2.41a3.63,3.63,0,0,0,2.27,1.2,1.31,1.31,0,0,0,1.11-.61c.29-.41.54-.78.73-1.11a10,10,0,0,0,.59-1.33c.21-.56.39-1.09.57-1.57s.38-1.11.62-1.89.44-1.49.62-2.11q.87-2.78,1.49-4.92a17.12,17.12,0,0,1-3.51,3.51,5.82,5.82,0,0,1-3.33,1.31q-1.51,0-3.77-2.28a7.05,7.05,0,0,1-2.25-5,30.79,30.79,0,0,1,1.22-7.37,41.84,41.84,0,0,1,3-8.21q1.8-3.59,3.2-3.59a4.29,4.29,0,0,1,3,1.36A3.79,3.79,0,0,1,446.32,91a11.49,11.49,0,0,1-1.26,4q-1.28,2.76-2.56,6a15.81,15.81,0,0,0-1.29,5.59c0,.21.09.31.26.31.45,0,1.39-.83,2.84-2.49a49.7,49.7,0,0,0,4.88-7.08A45.08,45.08,0,0,0,453.35,88.32Z"/><path d="M474.16,114.08a5.28,5.28,0,0,1-3.46-1.9c-1.28-1.26-1.91-2.35-1.91-3.25a4.14,4.14,0,0,1,1.18-2.72,3.29,3.29,0,0,1,2.38-1.36c.79,0,1.71.92,2.76,2.77a9.79,9.79,0,0,1,1.58,4.15,2.25,2.25,0,0,1-.85,1.49A2.47,2.47,0,0,1,474.16,114.08Zm.23-38.72A9.82,9.82,0,0,1,480.85,73a8.68,8.68,0,0,1,6,2.15,7.55,7.55,0,0,1,2.4,5.91A8.92,8.92,0,0,1,488,85.53,15.52,15.52,0,0,1,485,89.25q-4.8,4.31-6,6.77c-1,2.12-1.6,3.46-1.91,4-.55,1-1.17,1.49-1.86,1.49q-1.86,0-1.86-4.87a7.85,7.85,0,0,1,.93-3.65,12.77,12.77,0,0,1,2.28-3.15c.89-.91,1.78-1.79,2.68-2.65q3.19-3.07,3.2-5.28a1.55,1.55,0,0,0-.62-1.31,2.55,2.55,0,0,0-1.65-.49,2.68,2.68,0,0,0-1.78.64,2.33,2.33,0,0,0-.75,1.88,1.56,1.56,0,0,1-.78,1.59,4.69,4.69,0,0,1-1.83.61c-.39,0-1.08-.52-2.06-1.56a4.36,4.36,0,0,1-1.48-2.49A7,7,0,0,1,474.39,75.36Z"/><path d="M496.52,108.93a4.1,4.1,0,0,1,1.19-2.72,3.26,3.26,0,0,1,2.37-1.36c.79,0,1.71.92,2.76,2.77a9.79,9.79,0,0,1,1.58,4.15,2.21,2.21,0,0,1-.85,1.49,2.47,2.47,0,0,1-1.68.82,5.28,5.28,0,0,1-3.46-1.9C497.16,110.92,496.52,109.83,496.52,108.93Zm5.32-35.54c0-1,.53-1.49,1.6-1.49s2.49.75,4.26,2.26,2.66,2.6,2.66,3.28q0,3.39-2.4,14T503.8,102a3.81,3.81,0,0,1-2.74-1.43,4.59,4.59,0,0,1-1.39-3,14.45,14.45,0,0,1,.41-3.31q.53-2.74,1.14-8.47A116.68,116.68,0,0,0,501.84,73.39Z"/><path d="M556.17,88.32a1.56,1.56,0,0,1,1.7-1.28,4,4,0,0,1,2.87,1.74,6,6,0,0,1,1.47,4,14.59,14.59,0,0,1-.93,4.05c-.62,1.85-1.06,3.16-1.32,3.95s-.63,1.86-1.11,3.21-.92,2.6-1.32,3.74-.93,2.68-1.6,4.6-1.28,3.69-1.83,5.33a20.56,20.56,0,0,1-3.9,7.14,7.72,7.72,0,0,1-6,2.51,11.59,11.59,0,0,1-6.56-1.92q-2.89-1.93-2.89-3.88a4.56,4.56,0,0,1,1.05-2.61c.71-1,1.31-1.44,1.81-1.44a3.3,3.3,0,0,1,2,1.21c.81.8,1.65,1.6,2.51,2.41a3.63,3.63,0,0,0,2.27,1.2,1.31,1.31,0,0,0,1.11-.61q.43-.61.72-1.11a8.71,8.71,0,0,0,.6-1.33c.2-.56.39-1.09.57-1.57s.37-1.11.62-1.89.44-1.49.62-2.11q.87-2.78,1.49-4.92a17.12,17.12,0,0,1-3.51,3.51,5.82,5.82,0,0,1-3.33,1.31c-1,0-2.27-.76-3.77-2.28a7.05,7.05,0,0,1-2.25-5,30.79,30.79,0,0,1,1.22-7.37,41.84,41.84,0,0,1,3-8.21Q543.3,87,544.7,87a4.31,4.31,0,0,1,3,1.36A3.79,3.79,0,0,1,549.14,91a11.49,11.49,0,0,1-1.26,4q-1.27,2.76-2.56,6a15.81,15.81,0,0,0-1.29,5.59c0,.21.09.31.26.31.44,0,1.39-.83,2.84-2.49A49.7,49.7,0,0,0,552,97.43,45.08,45.08,0,0,0,556.17,88.32Z"/><path d="M567.5,92.74q4-5.76,7.93-5.75A8.89,8.89,0,0,1,582,89.73a9.13,9.13,0,0,1,2.68,6.62,18.59,18.59,0,0,1-1.86,7.88,17.87,17.87,0,0,1-5.21,6.65,11.41,11.41,0,0,1-7.18,2.64,6.21,6.21,0,0,1-4.91-2.51,9.37,9.37,0,0,1-2.06-6.11A20.9,20.9,0,0,1,567.5,92.74Zm8.39,10.57a14.64,14.64,0,0,0,2.07-7c0-2.19-.31-3.7-.93-4.52-1.48.86-2.95,2.65-4.42,5.39a15.8,15.8,0,0,0-2.19,7.21c0,2.07.21,3.38.62,3.92A10.8,10.8,0,0,0,575.89,103.31Z"/><path d="M605.43,88.32A1.64,1.64,0,0,1,607.08,87c.83,0,1.79.7,2.87,2.1a6.36,6.36,0,0,1,1.63,3.65,74.38,74.38,0,0,1-2.38,7.54q-2.37,7-3.66,11-.74,2.16-2.43,2.16a2.26,2.26,0,0,1-1.73-.75,3.28,3.28,0,0,1-.7-2.33,23.8,23.8,0,0,1,.62-4.52q-5.32,7.6-8.47,7.6-1.65,0-4-2.13c-1.54-1.42-2.32-2.8-2.32-4.13q0-4.94,2.82-12.57T594.64,87a3.46,3.46,0,0,1,2.66,1.33,4.39,4.39,0,0,1,1.16,2.93,13.8,13.8,0,0,1-1.29,3.44q-3.93,8.46-3.93,12c0,.21.09.31.26.31.52,0,1.49-.81,2.92-2.44a45.88,45.88,0,0,0,4.8-7A47.3,47.3,0,0,0,605.43,88.32Z"/><path d="M648.76,87.09q2,0,3.87,2.31a6.84,6.84,0,0,1,1.91,4.16q0,1.23-1.08,1.23a5.21,5.21,0,0,1-1.81-.49,6.36,6.36,0,0,0-2.4-.49,12.12,12.12,0,0,0-3.56.82c-1.57.55-2.35,1.27-2.35,2.16,0,.34.46.84,1.39,1.49s1.95,1.31,3,2a11.45,11.45,0,0,1,3.05,2.85,6.41,6.41,0,0,1,1.39,4q0,2.13-3.12,4.28a12.6,12.6,0,0,1-7.34,2.16,13.13,13.13,0,0,1-7.2-1.9q-3-1.91-3-3.9c0-1.33.55-2,1.66-2a3.49,3.49,0,0,1,1.6.51,12.72,12.72,0,0,0,6.43,1.49c2.56,0,3.84-.34,3.84-1a3.36,3.36,0,0,0-1.47-2.28,25.49,25.49,0,0,0-3.2-2.33,15.93,15.93,0,0,1-3.2-2.65,4.55,4.55,0,0,1-1.47-3.05c0-1.85,1.68-3.86,5.06-6S646.83,87.09,648.76,87.09Z"/><path d="M674.53,88.32A1.63,1.63,0,0,1,676.18,87c.83,0,1.78.7,2.87,2.1a6.43,6.43,0,0,1,1.63,3.65,77.65,77.65,0,0,1-2.38,7.54q-2.37,7-3.67,11c-.48,1.44-1.29,2.16-2.42,2.16a2.26,2.26,0,0,1-1.73-.75,3.28,3.28,0,0,1-.7-2.33,23,23,0,0,1,.62-4.52q-5.32,7.6-8.47,7.6-1.65,0-4-2.13t-2.32-4.13q0-4.94,2.81-12.57t5.3-7.65a3.47,3.47,0,0,1,2.66,1.33,4.39,4.39,0,0,1,1.16,2.93,13.8,13.8,0,0,1-1.29,3.44q-3.93,8.46-3.93,12c0,.21.09.31.26.31.52,0,1.49-.81,2.92-2.44a45.88,45.88,0,0,0,4.8-7A47.89,47.89,0,0,0,674.53,88.32Z"/><path d="M681.5,105.46a17.22,17.22,0,0,1,2.27-7.9,24.37,24.37,0,0,1,6-7.39q3.69-3.08,7.25-3.08,1.82,0,3.72,2.34a6.9,6.9,0,0,1,1.91,4.18c0,.89-.41,1.33-1.24,1.33a4.12,4.12,0,0,1-1.7-.56,4.7,4.7,0,0,0-2.22-.57c-.76,0-1.83.64-3.23,1.93a21,21,0,0,0-3.72,4.62,9.12,9.12,0,0,0-1.62,4.23c0,1,.19,1.69.59,2a5.56,5.56,0,0,0,2.89.46,19.39,19.39,0,0,0,4.19-.41,13.27,13.27,0,0,0,2.78-.84,3.88,3.88,0,0,1,1.63-.44c1,0,1.45.41,1.45,1.23q0,2.26-4,4.59a15.55,15.55,0,0,1-8,2.34q-2.54,0-5.76-2.8C682.58,108.86,681.5,107.1,681.5,105.46Z"/><path d="M711.56,113.52c-.8,0-1.78-.63-3-1.9s-1.78-2.27-1.78-3c0-.2.57-2.24,1.73-6.1s2.3-8.52,3.46-14a70.27,70.27,0,0,0,1.73-14.27q0-1.59,1.44-1.59c.83,0,1.92.74,3.28,2.23a6.48,6.48,0,0,1,2,4.19q0,2.82-2,10.67a83,83,0,0,1-4.05,12.37c.44-.58,1.06-1.36,1.83-2.34s1.4-1.77,1.89-2.38,1.07-1.37,1.78-2.26,1.3-1.62,1.78-2.18l1.6-1.9c.59-.7,1.09-1.27,1.52-1.7s.87-.82,1.32-1.2A3.52,3.52,0,0,1,728,87a4.17,4.17,0,0,1,2.84,1.72,4.91,4.91,0,0,1,1.55,3c0,.34-.73,1.13-2.19,2.36a57.08,57.08,0,0,0-4.39,4.11q-2.21,2.25-2.2,4a6.3,6.3,0,0,0,1.06,3.43,8.71,8.71,0,0,0,2.3,2.54c.82.59,1.59,1.18,2.3,1.77s1.06,1.11,1.06,1.52c0,1.33-.92,2-2.74,2q-3.25,0-8.63-5.44l-1.24-1.23Q713.12,113.53,711.56,113.52Z"/><path d="M299.67,160.53a2.2,2.2,0,0,1,.92,1.48,12.9,12.9,0,0,1-.61,2.78,31.77,31.77,0,0,0-.83,3.25c-.14.77-.25,1.38-.34,1.83s-.14.79-.18,1a8.87,8.87,0,0,1-.18,1c-.08.37-.15.67-.2.89l-.21.78a2.3,2.3,0,0,1-.29.66,4.68,4.68,0,0,1-.36.49,1.21,1.21,0,0,1-1,.41c-.48,0-1.08-.48-1.78-1.44a9.84,9.84,0,0,1-1.58-3.49q-4.85,4.94-8.16,4.93-2.22,0-4.8-2.44c-1.72-1.62-2.58-3.25-2.58-4.87s.74-3.95,2.22-7a31.39,31.39,0,0,1,6.07-8.36q3.84-3.85,7.61-3.85,2.17,0,5,2.52c1.9,1.67,2.84,3.2,2.84,4.59A10.05,10.05,0,0,1,299.67,160.53Zm-15,8.1c1.37,0,3.21-.93,5.5-2.79a11.76,11.76,0,0,0,4.26-7.06c0-.41.32-.65.88-.72-.11-1.95-.44-2.92-1-2.92q-2.06,0-4.62,2.67a26,26,0,0,0-4.18,5.69,11,11,0,0,0-1.63,4.47.84.84,0,0,0,.13.54A1.1,1.1,0,0,0,284.64,168.63Z"/><path d="M316.22,158.6c-.54,1.66-1.19,3.74-2,6.24s-1.16,3.82-1.16,4,.29.24.85.24a17.5,17.5,0,0,0,4.06-1.16,20,20,0,0,1,3.77-1.15q1.29,0,1.29,1.74c0,1.16-1.16,2.56-3.46,4.18a12.36,12.36,0,0,1-7.23,2.44,6.82,6.82,0,0,1-3.93-1.8c-1.51-1.19-2.27-2.41-2.27-3.64a28.54,28.54,0,0,1,1.58-6.49q1.58-4.95,2.14-6.8a12.19,12.19,0,0,1-3.05.56,3,3,0,0,1-2.17-1.41,4.41,4.41,0,0,1-1.13-2.69q0-1.65,8-2.77a41.43,41.43,0,0,0,1-8.26,1.37,1.37,0,0,1,1.55-1.54,6.23,6.23,0,0,1,3.44,1.61c1.39,1.08,2.09,2.14,2.09,3.18a20.81,20.81,0,0,1-.67,4.39c1.65-.07,2.91-.1,3.77-.1q3.87,0,3.87,1.74c0,.76-.75,1.4-2.25,1.93a54.05,54.05,0,0,1-6.89,1.72C317.15,155.65,316.75,156.94,316.22,158.6Z"/><path d="M369.28,134.25c.83,0,1.91.75,3.25,2.23a6.49,6.49,0,0,1,2,4.19,70.67,70.67,0,0,1-1.81,8.1c-1.21,4.76-1.93,7.63-2.17,8.63q-4.12,17.7-6,17.7a3.79,3.79,0,0,1-2.43-1.28,3.6,3.6,0,0,1-1.34-2.52,1.17,1.17,0,0,1,.05-.41q-5.16,4.22-7.41,4.21a5.88,5.88,0,0,1-4.34-2.39,6.94,6.94,0,0,1-2.09-4.33,19.83,19.83,0,0,1,.54-4.34,29.55,29.55,0,0,1,1.68-5,35.9,35.9,0,0,1,2.61-5,13.85,13.85,0,0,1,3.56-3.85,7.34,7.34,0,0,1,4.31-1.51c2.21,0,4,1.11,5.43,3.34q2.77-12.17,2.68-16.17A1.34,1.34,0,0,1,369.28,134.25ZM354,168.58q1.29,0,4.37-2.2a13.51,13.51,0,0,0,4.57-5.6,17,17,0,0,1-.05-1.79,4.26,4.26,0,0,0-.93-2.62q-.93-1.23-1.71-1.23a4,4,0,0,0-3,1.64,12.64,12.64,0,0,0-2.24,3.9,23.27,23.27,0,0,0-1.76,7.24.74.74,0,0,0,.13.53A.88.88,0,0,0,354,168.58Z"/><path d="M377.9,157.29l-.31-5.8c0-1.91.6-2.87,1.81-2.87a3.35,3.35,0,0,1,2,.77A4.68,4.68,0,0,1,383,151.8a16.06,16.06,0,0,1,3.85-2.49,9.23,9.23,0,0,1,3.69-.95c2.52,0,3.77.6,3.77,1.8a2.25,2.25,0,0,1-.33,1.36l-.52.64a4.28,4.28,0,0,1-.62.54l-.64.49c-.8.51-1.36.87-1.71,1.07a15.82,15.82,0,0,0-4,3.47,13.51,13.51,0,0,0-2.48,5.62,52,52,0,0,1-2.71,8.8c-.88,1.93-1.86,2.9-3,2.9a2.6,2.6,0,0,1-2.43-1.54,6.36,6.36,0,0,1-.8-2.9,13.19,13.19,0,0,1,1-4.08,31.47,31.47,0,0,0,1.4-4.7A24.45,24.45,0,0,0,377.9,157.29Z"/><path d="M399.59,148.62a4,4,0,0,1,3.23,2,7,7,0,0,1,1.42,4,46.56,46.56,0,0,1-1.78,7q-1.79,6-3.54,11.42a2.49,2.49,0,0,1-2.53,2,2.72,2.72,0,0,1-2-.85,3,3,0,0,1-.85-2.2,41.52,41.52,0,0,1,1.32-6.78q1.32-5.41,2-9.24a46.71,46.71,0,0,1,1.29-5.59C398.57,149.21,399,148.62,399.59,148.62Zm-.77-6.41a4.27,4.27,0,0,1,1.21-2.75,3.31,3.31,0,0,1,2.38-1.41c.77,0,1.69.92,2.76,2.77a9.67,9.67,0,0,1,1.6,4,2.29,2.29,0,0,1-.83,1.92,2.64,2.64,0,0,1-1.7.67c-1,0-2.15-.65-3.46-1.95S398.82,143.1,398.82,142.21Z"/><path d="M426.19,148.62a6.08,6.08,0,0,1,4.72,2.39,7.72,7.72,0,0,1,2,5.1,31.62,31.62,0,0,1-1.42,9.11,28.29,28.29,0,0,1-3.1,7.31c-1.11,1.72-2.25,2.57-3.4,2.57s-1.73-.8-1.73-2.41a32.68,32.68,0,0,1,1.7-7.44,28.57,28.57,0,0,0,1.29-6.62c0-1.34-.17-2-.52-2a1.86,1.86,0,0,0-1.31.66c-.43.45-.79.84-1.06,1.18s-.59.78-1,1.31-.67,1-.93,1.44-.58,1-1,1.64l-.95,1.64-.93,1.67q-4.8,8.93-7.54,8.93c-.72,0-1.64-.62-2.74-1.87s-1.65-2.17-1.65-2.75a9.12,9.12,0,0,1,.75-2.44c.5-1.24.86-2.2,1.08-2.87a16.56,16.56,0,0,0,.57-2.13c.16-.75.28-1.56.39-2.44s.18-1.54.23-2,.11-1.24.18-2.26q.46-6.67.8-7.39t.75-.72a5.61,5.61,0,0,1,3.77,1.62c1.2,1.07,1.81,2.06,1.81,2.95a37.22,37.22,0,0,1-1.65,9.13,97.92,97.92,0,0,1,6.11-9.57C423.36,149.86,424.91,148.62,426.19,148.62Z"/><path d="M440.6,175.1c-.8,0-1.79-.63-3-1.9s-1.79-2.27-1.79-3c0-.2.58-2.24,1.73-6.1s2.31-8.52,3.46-14a69.56,69.56,0,0,0,1.73-14.27c0-1.06.49-1.59,1.45-1.59s1.92.75,3.28,2.23a6.48,6.48,0,0,1,2,4.19q0,2.82-2,10.67a83,83,0,0,1-4.05,12.37q.66-.87,1.83-2.34l1.88-2.38,1.79-2.26c.7-.89,1.3-1.62,1.78-2.18l1.6-1.9a22.52,22.52,0,0,1,1.52-1.69c.43-.43.87-.83,1.32-1.21a3.52,3.52,0,0,1,1.91-1.13,4.17,4.17,0,0,1,2.84,1.72,4.91,4.91,0,0,1,1.55,3c0,.34-.73,1.13-2.2,2.36a58.9,58.9,0,0,0-4.38,4.11c-1.47,1.5-2.2,2.85-2.2,4a6.27,6.27,0,0,0,1.06,3.43,8.58,8.58,0,0,0,2.3,2.54c.82.59,1.59,1.18,2.3,1.78s1.05,1.1,1.05,1.51c0,1.33-.91,2-2.73,2q-3.26,0-8.63-5.44l-1.24-1.23Q442.14,175.11,440.6,175.1Z"/><path d="M467.09,148.62a4,4,0,0,1,3.23,2,7.05,7.05,0,0,1,1.42,4,47.29,47.29,0,0,1-1.79,7q-1.77,6-3.53,11.42a2.5,2.5,0,0,1-2.53,2,2.72,2.72,0,0,1-2-.85,3,3,0,0,1-.85-2.2,42.21,42.21,0,0,1,1.31-6.78q1.32-5.41,2-9.24a43,43,0,0,1,1.29-5.59C466.06,149.21,466.54,148.62,467.09,148.62Zm-.78-6.41a4.29,4.29,0,0,1,1.22-2.75,3.31,3.31,0,0,1,2.37-1.41c.78,0,1.7.92,2.77,2.77a9.82,9.82,0,0,1,1.6,4,2.32,2.32,0,0,1-.83,1.92,2.66,2.66,0,0,1-1.7.67c-1,0-2.16-.65-3.46-1.95S466.31,143.1,466.31,142.21Z"/><path d="M493.68,148.62a6.09,6.09,0,0,1,4.73,2.39,7.72,7.72,0,0,1,2,5.1,31.62,31.62,0,0,1-1.42,9.11,28.64,28.64,0,0,1-3.1,7.31c-1.12,1.72-2.25,2.57-3.41,2.57s-1.73-.8-1.73-2.41a32.91,32.91,0,0,1,1.71-7.44,28.57,28.57,0,0,0,1.29-6.62c0-1.34-.18-2-.52-2a1.87,1.87,0,0,0-1.32.66c-.43.45-.78.84-1.05,1.18s-.6.78-1,1.31-.67,1-.93,1.44-.59,1-1,1.64-.72,1.22-1,1.64l-.93,1.67q-4.8,8.93-7.54,8.93c-.72,0-1.63-.62-2.73-1.87s-1.66-2.17-1.66-2.75A9.12,9.12,0,0,1,475,168c.5-1.24.86-2.2,1.09-2.87a20.61,20.61,0,0,0,.57-2.13c.15-.75.28-1.56.38-2.44s.18-1.54.24-2,.11-1.24.18-2.26c.31-4.45.57-6.91.8-7.39s.47-.72.75-.72a5.63,5.63,0,0,1,3.77,1.62,4.34,4.34,0,0,1,1.8,2.95,37.22,37.22,0,0,1-1.65,9.13,99.7,99.7,0,0,1,6.12-9.57Q491.77,148.62,493.68,148.62Z"/><path d="M523.69,159.71a3.07,3.07,0,0,1,.77,2.1,6.41,6.41,0,0,1-1,3,43.6,43.6,0,0,0-2.27,7.64,64.35,64.35,0,0,1-1.94,7.32,28.64,28.64,0,0,1-2.06,4.69,9.54,9.54,0,0,1-3,3.23,7.64,7.64,0,0,1-4.39,1.29,9.49,9.49,0,0,1-6.19-2.26q-2.74-2.26-2.74-3.87a5.1,5.1,0,0,1,.88-2.93c.58-.87,1.13-1.31,1.63-1.31a1.93,1.93,0,0,1,1.44.82,14.33,14.33,0,0,1,1.29,1.77,7.24,7.24,0,0,0,1.58,1.77,3.27,3.27,0,0,0,2.17.82,2.71,2.71,0,0,0,2.17-1.54,12.51,12.51,0,0,0,1.49-3.33,55.21,55.21,0,0,0,1.6-6q-3.51,2.16-5.7,2.16a5.75,5.75,0,0,1-4.26-2.39A7.08,7.08,0,0,1,503,168.2a16.48,16.48,0,0,1,1.16-5.34,42,42,0,0,1,3-6.41,19.65,19.65,0,0,1,4.65-5.52,8.9,8.9,0,0,1,5.65-2.31,5.35,5.35,0,0,1,5.22,3.49,17.12,17.12,0,0,1,1.08,6.26A11,11,0,0,1,523.69,159.71ZM509.38,168q0,.66.57.66c1,0,2.62-.9,4.86-2.72a14.89,14.89,0,0,0,4.49-5.38v-1c0-2.22-.21-3.57-.62-4.05a1,1,0,0,0-.83-.36c-1.65,0-3.48,1.73-5.47,5.18S509.38,166.33,509.38,168Z"/><path d="M532.31,170.51a4.15,4.15,0,0,1,1.19-2.72,3.26,3.26,0,0,1,2.38-1.36c.79,0,1.71.92,2.76,2.77a9.72,9.72,0,0,1,1.57,4.16,2.21,2.21,0,0,1-.85,1.48,2.47,2.47,0,0,1-1.68.82,5.32,5.32,0,0,1-3.46-1.89C533,172.5,532.31,171.41,532.31,170.51ZM537.63,135c0-1,.53-1.49,1.6-1.49s2.49.75,4.26,2.26,2.66,2.6,2.66,3.28q0,3.39-2.4,14t-4.16,10.59a3.77,3.77,0,0,1-2.73-1.43,4.6,4.6,0,0,1-1.4-3,14.18,14.18,0,0,1,.42-3.31q.51-2.74,1.13-8.47A116.68,116.68,0,0,0,537.63,135Z"/><rect class="cls-2" x="297.77" y="239.43" width="234.74" height="90.97" rx="34.71"/><path class="cls-3" d="M324.89,238.85a38.26,38.26,0,0,0-38.27,38V288.3a38.26,38.26,0,0,0,38.27,38H343V238.85Z"/><path class="cls-4" d="M376.29,238.85H343v87.47h33.15C376.36,297.09,376.37,268,376.29,238.85Z"/><path class="cls-5" d="M489,238.85H376.29c.08,29.11.07,58.24-.18,87.47H489a38.26,38.26,0,0,0,38.26-38V276.87A38.26,38.26,0,0,0,489,238.85Z"/><path d="M341.91,271.09c-2.54.13-3.92.21-4.16.21a2.29,2.29,0,0,1-1.68-1,3.3,3.3,0,0,1-.85-2.15c0-1.14,3.35-1.71,10-1.71a20.34,20.34,0,0,1,7.58,1.05c1.61.7,2.42,1.55,2.42,2.55a1.11,1.11,0,0,1-.52.86,2.15,2.15,0,0,1-1.34.4c-.54,0-1.53,0-3-.1s-2.73-.12-3.91-.15a3,3,0,0,1,.14,1,11.55,11.55,0,0,1-.4,2.2c-.27,1.1-.65,2.62-1.15,4.57s-1,4.3-1.62,7.06a41.86,41.86,0,0,1-1.21,4.94c-.22.52-.44.78-.65.78-.49,0-1.11-.45-1.85-1.34a3.92,3.92,0,0,1-1.11-2.19,63.39,63.39,0,0,1,1.44-6.95A74.55,74.55,0,0,0,341.91,271.09Z"/><path d="M355.25,279.62l-.21-3.95c0-1.31.41-2,1.24-2a2.29,2.29,0,0,1,1.39.52,3.29,3.29,0,0,1,1,1.65,10.43,10.43,0,0,1,2.62-1.7,6.26,6.26,0,0,1,2.52-.65c1.71,0,2.57.41,2.57,1.23a1.55,1.55,0,0,1-.23.93l-.35.43a3.1,3.1,0,0,1-.43.37l-.44.33-1.16.74a10.65,10.65,0,0,0-2.71,2.36,9.26,9.26,0,0,0-1.69,3.83,34.53,34.53,0,0,1-1.85,6q-.9,2-2,2a1.75,1.75,0,0,1-1.65-1.05,4.25,4.25,0,0,1-.55-2,8.94,8.94,0,0,1,.69-2.78,21.49,21.49,0,0,0,.95-3.2A16,16,0,0,0,355.25,279.62Z"/><path d="M379.2,274.58a1.07,1.07,0,0,1,1.16-.87,2.71,2.71,0,0,1,1.95,1.19,4.06,4.06,0,0,1,1,2.69,9.71,9.71,0,0,1-.64,2.77c-.42,1.26-.72,2.15-.89,2.69s-.43,1.27-.76,2.19-.63,1.77-.9,2.55-.63,1.83-1.09,3.13-.87,2.52-1.25,3.64a14,14,0,0,1-2.66,4.87,5.26,5.26,0,0,1-4.07,1.71,8,8,0,0,1-4.47-1.31c-1.31-.88-2-1.76-2-2.64a3.14,3.14,0,0,1,.72-1.79c.48-.65.89-1,1.23-1a2.25,2.25,0,0,1,1.34.83c.55.54,1.12,1.09,1.71,1.64a2.45,2.45,0,0,0,1.55.82.91.91,0,0,0,.76-.42c.2-.28.36-.53.49-.75a5.9,5.9,0,0,0,.4-.91c.15-.38.27-.74.39-1.07s.26-.76.42-1.29.31-1,.43-1.44q.6-1.89,1-3.36a11.58,11.58,0,0,1-2.4,2.4,3.91,3.91,0,0,1-2.27.89,4.14,4.14,0,0,1-2.57-1.55,4.81,4.81,0,0,1-1.53-3.43,21,21,0,0,1,.83-5,28.58,28.58,0,0,1,2.06-5.6c.82-1.63,1.55-2.45,2.18-2.45a2.93,2.93,0,0,1,2.06.93,2.57,2.57,0,0,1,1,1.78,7.87,7.87,0,0,1-.86,2.75c-.58,1.26-1.16,2.63-1.75,4.13a10.9,10.9,0,0,0-.88,3.81q0,.21.18.21c.3,0,.95-.56,1.94-1.7a33.87,33.87,0,0,0,3.32-4.82A30.32,30.32,0,0,0,379.2,274.58Z"/><path d="M412.9,281.83a1.5,1.5,0,0,1,.63,1,8.91,8.91,0,0,1-.42,1.89c-.29,1-.47,1.7-.57,2.22s-.17.94-.23,1.24-.1.55-.12.72a5.82,5.82,0,0,1-.12.65c-.06.26-.11.46-.14.61s-.09.33-.14.53a1.75,1.75,0,0,1-.2.45,3.43,3.43,0,0,1-.24.33.84.84,0,0,1-.71.28c-.33,0-.73-.32-1.21-1a6.78,6.78,0,0,1-1.08-2.38c-2.2,2.24-4.06,3.36-5.56,3.36a5,5,0,0,1-3.28-1.66,4.7,4.7,0,0,1-1.76-3.32,12,12,0,0,1,1.52-4.74,21.37,21.37,0,0,1,4.14-5.71c1.74-1.75,3.48-2.62,5.19-2.62a5.53,5.53,0,0,1,3.41,1.71c1.3,1.15,1.94,2.19,1.94,3.14A6.87,6.87,0,0,1,412.9,281.83Zm-10.25,5.53c.94,0,2.19-.64,3.75-1.91a8,8,0,0,0,2.9-4.81c0-.28.23-.45.6-.49-.07-1.33-.29-2-.67-2a4.76,4.76,0,0,0-3.15,1.82,18,18,0,0,0-2.85,3.89,7.52,7.52,0,0,0-1.11,3,.53.53,0,0,0,.09.37A.68.68,0,0,0,402.65,287.36Z"/><path d="M429.8,281.27a2.07,2.07,0,0,1,.52,1.43,4.39,4.39,0,0,1-.7,2.07,29.87,29.87,0,0,0-1.55,5.21,45.44,45.44,0,0,1-1.32,5,19,19,0,0,1-1.41,3.2,6.46,6.46,0,0,1-2.06,2.2,5.26,5.26,0,0,1-3,.88,6.53,6.53,0,0,1-4.23-1.54c-1.24-1-1.86-1.91-1.86-2.65a3.5,3.5,0,0,1,.6-2c.39-.59.76-.89,1.11-.89a1.3,1.3,0,0,1,1,.56,9.16,9.16,0,0,1,.88,1.21,5,5,0,0,0,1.08,1.2,2.18,2.18,0,0,0,1.47.56,1.84,1.84,0,0,0,1.48-1,8.45,8.45,0,0,0,1-2.27,41.1,41.1,0,0,0,1.1-4.1,8.13,8.13,0,0,1-3.9,1.47,3.94,3.94,0,0,1-2.9-1.62,4.85,4.85,0,0,1-1.41-3.08,11.36,11.36,0,0,1,.79-3.64,27.3,27.3,0,0,1,2.05-4.37,13.54,13.54,0,0,1,3.16-3.77,6.08,6.08,0,0,1,3.86-1.57,3.65,3.65,0,0,1,3.56,2.38,11.69,11.69,0,0,1,.74,4.27C429.87,280.59,429.84,280.89,429.8,281.27ZM420,286.9c0,.3.13.46.39.46.68,0,1.78-.62,3.31-1.86a10,10,0,0,0,3.06-3.67v-.67a5.27,5.27,0,0,0-.42-2.76.72.72,0,0,0-.56-.25q-1.69,0-3.73,3.54T420,286.9Z"/><path d="M447.79,281.83a1.5,1.5,0,0,1,.63,1,8.91,8.91,0,0,1-.42,1.89,22.28,22.28,0,0,0-.56,2.22c-.1.53-.17.94-.23,1.24s-.1.55-.13.72a5.82,5.82,0,0,1-.12.65c-.06.26-.1.46-.14.61s-.08.33-.14.53a1.78,1.78,0,0,1-.19.45,3.59,3.59,0,0,1-.25.33.83.83,0,0,1-.71.28c-.32,0-.73-.32-1.21-1a6.59,6.59,0,0,1-1.07-2.38q-3.31,3.36-5.57,3.36a5,5,0,0,1-3.27-1.66,4.66,4.66,0,0,1-1.76-3.32,11.92,11.92,0,0,1,1.51-4.74,21.37,21.37,0,0,1,4.14-5.71q2.63-2.62,5.19-2.62a5.55,5.55,0,0,1,3.42,1.71c1.29,1.15,1.93,2.19,1.93,3.14A6.87,6.87,0,0,1,447.79,281.83Zm-10.25,5.53c.94,0,2.19-.64,3.75-1.91a8,8,0,0,0,2.91-4.81c0-.28.22-.45.6-.49-.07-1.33-.3-2-.67-2A4.76,4.76,0,0,0,441,280a17.69,17.69,0,0,0-2.86,3.89,7.52,7.52,0,0,0-1.11,3,.53.53,0,0,0,.09.37A.7.7,0,0,0,437.54,287.36Z"/><path d="M454.76,273.71a2.71,2.71,0,0,1,2.2,1.4,4.72,4.72,0,0,1,1,2.69,32.16,32.16,0,0,1-1.22,4.78c-.81,2.74-1.61,5.34-2.41,7.78a1.69,1.69,0,0,1-1.72,1.37,1.85,1.85,0,0,1-1.36-.58,2,2,0,0,1-.58-1.5,28.28,28.28,0,0,1,.9-4.62c.6-2.46,1-4.56,1.37-6.3a30.34,30.34,0,0,1,.88-3.81C454.06,274.11,454.38,273.71,454.76,273.71Zm-.53-4.37a3,3,0,0,1,.83-1.88,2.25,2.25,0,0,1,1.62-1c.53,0,1.16.63,1.88,1.89a6.6,6.6,0,0,1,1.09,2.75,1.57,1.57,0,0,1-.56,1.31,1.83,1.83,0,0,1-1.16.45,5.15,5.15,0,0,1-3.7-3.56Z"/><path d="M472.89,273.71a4.15,4.15,0,0,1,3.23,1.63,5.29,5.29,0,0,1,1.39,3.48,21.87,21.87,0,0,1-1,6.21,19.64,19.64,0,0,1-2.11,5c-.77,1.17-1.54,1.75-2.33,1.75s-1.18-.54-1.18-1.64a22.67,22.67,0,0,1,1.16-5.07,19.29,19.29,0,0,0,.88-4.52c0-.91-.11-1.36-.35-1.36a1.3,1.3,0,0,0-.9.45c-.29.31-.53.57-.72.81s-.4.53-.65.89-.46.69-.63,1-.4.66-.67,1.12-.49.83-.65,1.12-.38.67-.64,1.14q-3.27,6.07-5.14,6.08c-.49,0-1.11-.42-1.86-1.27a3.64,3.64,0,0,1-1.13-1.88,6.22,6.22,0,0,1,.51-1.66c.34-.85.59-1.5.74-2a13.87,13.87,0,0,0,.39-1.45c.1-.51.19-1.07.26-1.66s.12-1.06.16-1.38.07-.84.12-1.54a29.72,29.72,0,0,1,.55-5c.15-.33.32-.49.51-.49a3.85,3.85,0,0,1,2.57,1.1,3,3,0,0,1,1.23,2,24.91,24.91,0,0,1-1.13,6.23,67,67,0,0,1,4.18-6.52C471,274.55,472,273.71,472.89,273.71Z"/><path d="M482.29,288.63a2.82,2.82,0,0,1,.81-1.85,2.23,2.23,0,0,1,1.62-.93q.81,0,1.89,1.89a6.7,6.7,0,0,1,1.07,2.83,1.51,1.51,0,0,1-.58,1,1.71,1.71,0,0,1-1.14.56,3.58,3.58,0,0,1-2.36-1.3A3.53,3.53,0,0,1,482.29,288.63Zm3.63-24.23c0-.67.36-1,1.09-1a5.18,5.18,0,0,1,2.91,1.54c1.21,1,1.81,1.77,1.81,2.24a54.87,54.87,0,0,1-1.64,9.53q-1.63,7.23-2.83,7.23a2.63,2.63,0,0,1-1.87-1,3.18,3.18,0,0,1-.95-2,10.53,10.53,0,0,1,.28-2.26q.36-1.87.78-5.77A79.59,79.59,0,0,0,485.92,264.4Z"/><path class="cls-6" d="M264.89,221.45c8.76-35.27-7.51-61.47-43-70.18L143,133.12c-48.51-11.9-74.81,9.15-86.65,56.83L.22,372c-1.85,7.47.47,4.92,8,6.76l27.91,4.44L77.71,391l34.53,9.42,5.71-23-5.71,23,52.65,14.36,31.65,18.58c7.52,1.84,25.48,9.37,27.34,1.9ZM123.81,339.25l2-7.93Z"/><path class="cls-7" d="M157,226c-5.3-1.65-7.15-5.66-14.06-10-9.42-5.91-13.45-24.43-17.14-18.62-2,3.12-8.17,15.49-14.18,18.15-13.2,5.85-21.92.63-27.05-3-2.5-1.78-7.18-19.78-9.74-19.21-15,3.36-17.23,49.89-23.68,75.88-11.52,46.41,19,101.56,65.53,113.37C128.73,330.36,142.93,278,157,226ZM123.81,339.25l2-7.93Z"/><path class="cls-8" d="M227,237.81c-.37-2.89-7.57,2.15-9.68,0-4.1-4.09-23.4-17.75-21.43-25.67,0,0-4.82,4.82-12.25-4.21-1.93-2.35-4.51,13.31-7.36,15-.72.44-4.85,3.28-5.68,3.41-8.14,1.33-12.81,1.23-16.14.2-14.07,52-28.27,104.35-40.32,156.53h0l1.27-5.08-1.27,5.08c.19.05.38.11.57.15,46.89,11.5,86.45-17.06,98-63.65C219,294.13,229,253.93,227,237.81Z"/><path class="cls-9" d="M93.64,274.19c.89-12.17,6.85-21.24,16-26.44,10.35-5.9,9.46,15.16,4.14,31.37"/><path class="cls-9" d="M181.7,294.58c4.83-11.2,3.93-21.95-1.44-30.71-6.09-9.92-15,9.16-17.94,26"/><ellipse cx="174.44" cy="278.99" rx="6.42" ry="4.11" transform="translate(-138.58 380.4) rotate(-75.93)"/><ellipse cx="108.93" cy="265.32" rx="6.42" ry="4.11" transform="translate(-174.91 306.5) rotate(-75.93)"/><path class="cls-10" d="M145.06,307.22c-.62,2.5-4.95,3.59-9.67,2.43s-8-4.12-7.42-6.62"/><path d="M202.79,191.64a52.76,52.76,0,0,0-2.48,7.52,12.45,12.45,0,0,0-4.34-2c-5.35-1.31-10.5.92-11.51,5a4.58,4.58,0,0,0-.14.81c-2.19,0-5.61,3.75-8.11,9a29.19,29.19,0,0,0-2.19,6.28,83.2,83.2,0,0,0,.45-9.45c0-14.13-15-24.85-28.52-28.17s-26.34,1.18-28.55,10.06c0,.17-.07.34-.1.51a37.23,37.23,0,0,0-16.79-8.77c-14.79-3.63-28.7,1.12-31.05,10.62S77.18,213.17,92,216.8s28.7-1.13,31.06-10.62a11.78,11.78,0,0,0,.32-3.44c3.92,3.19,9.25,6.32,14.61,10,11.68,8.1,31.57,33.11,35.73,7.88-.09,1.9.3,3.27,1.24,3.71,2.08,1,6-3,8.84-8.86a26.94,26.94,0,0,0,2.37-7.29,11.74,11.74,0,0,0,6.17,3.67,11.93,11.93,0,0,0,6.87-.27c2.12,27,36,34.58,41.56,12.15Z"/><path class="cls-11" d="M112,401.23l-1.69,6.8,1.69-6.8-49-12a14.13,14.13,0,0,0-17,10.23L8.87,548.92a14,14,0,0,0,10.3,16.94l52.74,12.93C87.64,519.85,104.25,461.3,112,401.23Z"/><path class="cls-12" d="M172.44,416,112,401.23c-7.79,60.07-24.4,118.62-40.13,177.56l56.65,13.9a14.14,14.14,0,0,0,17.05-10.24L182.73,433A14,14,0,0,0,172.44,416Z"/><path class="cls-11" d="M37.87,383l-2.18-.53-.57-.14A14.71,14.71,0,0,0,17.37,393L.77,459.84A14.62,14.62,0,0,0,11.5,477.48a14.28,14.28,0,0,0,3.35.41C22.6,446.23,29.63,414.31,37.87,383Z"/><path class="cls-12" d="M37.87,383c-8.24,31.27-15.27,63.19-23,94.85a14.7,14.7,0,0,0,14.41-11.07l16.68-67.17a.69.69,0,0,1,.22-.33C64.13,385.84,66.1,389.92,37.87,383Z"/><path class="cls-12" d="M2.73,463.71h0c3.73-4.85.94-13.25-6.19-18.65l-25.46-19.3c-3,6.87-6.23,13.7-9.41,20.59L-17.45,462C22.26,489.82-1,468.57,2.73,463.71Z"/><path class="cls-13" d="M112.12,400.79l-.81-.22-1.63,7,1.63-7-17.43-4.66L97.24,425,100,449.19C103.81,432.92,107.15,417,112.12,400.79Z"/><path class="cls-8" d="M135.58,407.05l-20.85-5.57-2.61-.69c-5,16.24-8.31,32.13-12.09,48.4l.57,5,3.38-4.55c3.2-16,6-32.15,8.06-48.38-2.1,16.23-4.86,32.34-8.06,48.38l14.11-19Z"/><path class="cls-8" d="M110.92,405.76l.49.12c.21-1.55.43-3.1.63-4.65Z"/><path class="cls-8" d="M128.51,381.25l-10.84-2.66L112,401.23c-.2,1.55-.42,3.1-.63,4.65l11.06,2.72a4.54,4.54,0,0,0,5.49-3.3l4.4-17.72A5.23,5.23,0,0,0,128.51,381.25Z"/><path class="cls-13" d="M112.71,381l-6.14-1.5-3.36,18.39c-.5,2,4.27,2.25,4.85,2.4l4,1L116.82,382Z"/><path d="M101.23,474a4.89,4.89,0,0,0-1.38-4.72q-.9,4.11-1.85,8.22A5,5,0,0,0,101.23,474Z"/><path d="M97.58,468a5,5,0,1,0,.42,9.5q.94-4.11,1.85-8.22A4.87,4.87,0,0,0,97.58,468Z"/><path class="cls-14" d="M100,453.84l2.72,2.18c.55-2.67,1.1-5.34,1.62-8Z"/><path class="cls-14" d="M136.25,406.92l-.92-.62-31,41.7c-.52,2.68-1.07,5.35-1.62,8l7.55,6,28.16-44.87A7.58,7.58,0,0,0,136.25,406.92Z"/><path class="cls-14" d="M92.52,396a7.6,7.6,0,0,0-6.94,7.89l2.33,52.82,13-2.14-7.29-58.67Z"/><path class="cls-12" d="M155.51,596.9l-3.77-.93a11.51,11.51,0,0,1-8.45-13.9l36.37-146.42a11.59,11.59,0,0,1,14-8.4l3.78.93a11.49,11.49,0,0,1,8.44,13.89L169.5,588.5A11.61,11.61,0,0,1,155.51,596.9Z"/><path d="M123,252.89,97.4,237.3a2,2,0,0,1-.66-2.74l.35-.58a2,2,0,0,1,2.76-.66l25.59,15.6a2,2,0,0,1,.67,2.74l-.36.58A2,2,0,0,1,123,252.89Z"/><path d="M196,257.63l-29.42,5.95a2,2,0,0,1-2.37-1.56l-.13-.66a2,2,0,0,1,1.57-2.36L195,253.06a2,2,0,0,1,2.37,1.56l.14.66A2,2,0,0,1,196,257.63Z"/><path class="cls-15" d="M123.27,359.54l-13-3.2A8.51,8.51,0,0,1,104,346.07l.88-3.55a8.57,8.57,0,0,1,10.34-6.2l13,3.2a8.5,8.5,0,0,1,6.24,10.27l-.88,3.54A8.57,8.57,0,0,1,123.27,359.54Z"/><path class="cls-16" d="M123,357.07c.28,1.26-.56,2.27-8,.45-4.09-1-7.41-1.82-6.84-4.08.31-1.25,4.73-2.45,8.82-1.44S121.86,352,123,357.07Z"/><path class="cls-17" d="M735.56,193.7l.2.26c-18.76,14.38-21.49,33-8.27,50.29L767,297.17,784.36,320l31.73,41.5c12.64,31.1,36.88,21.2,55.62,7.88l-.13-.16c18.9-13.6,30.49-27.51,6.81-54.39l-31.1-42-17.06-23-39.3-53C777.88,179.13,757,178,735.56,193.7Z"/><path class="cls-18" d="M853,379.61h0c20.52-11.57,23.64-6.23,5-29.2l-110.11-144c-5.77-6.35-7.61-14.58-13.77-11.15-2.47,1.38-4.24,5.07-8.76,9.87a36.38,36.38,0,0,0-3.14,3.78l-.36.51c-2.37,5.31-2,8.88-2,13.27,0,1.58.54,3.46.65,5,.39,5.12,1.4,8,3.91,12.65l86.16,114.33c4.45,4,7.51,9,10.06,14.24l.15.31a20.28,20.28,0,0,0,11.78,10.36C839.84,382.06,847.34,382.89,853,379.61Z"/><path class="cls-19" d="M763.47,289.55l30.26-22.84a.42.42,0,0,0,.08-.58L767.73,232a.41.41,0,0,0-.58-.08l-30.26,22.84a.41.41,0,0,0-.08.58l26.08,34.11A.41.41,0,0,0,763.47,289.55Z"/><path class="cls-20" d="M794.39,266.21l30.89-23.32a.42.42,0,0,0,.08-.58L799.28,208.2a.41.41,0,0,0-.58-.07l-30.89,23.31a.41.41,0,0,0-.08.58l26.08,34.11A.41.41,0,0,0,794.39,266.21Z"/><path class="cls-21" d="M742,178.08l-22.21,16.77a11.67,11.67,0,0,1-16.24-2.21l-4-5.28a11.5,11.5,0,0,1,2.22-16.14l22.21-16.76a11.66,11.66,0,0,1,16.24,2.2l4,5.28A11.52,11.52,0,0,1,742,178.08Z"/><path class="cls-22" d="M739.72,179.77l-.84.63a1.84,1.84,0,0,1-2.56-.34l-15.85-20.73a1.82,1.82,0,0,1,.35-2.55l.84-.64a1.85,1.85,0,0,1,2.56.35l15.85,20.73A1.82,1.82,0,0,1,739.72,179.77Z"/><path class="cls-22" d="M745.66,172.34l-.56.42a1.22,1.22,0,0,1-1.71-.23L729.18,154a1.21,1.21,0,0,1,.24-1.7l.56-.42a1.22,1.22,0,0,1,1.71.23l14.21,18.58A1.21,1.21,0,0,1,745.66,172.34Z"/><path class="cls-23" d="M752.87,189.45l-23.77,18c-1.89,1.43-12.15,17-9.37,9l-1-15.46a4.28,4.28,0,0,1,.82-6L743.37,177a4.34,4.34,0,0,1,6,.82L767,182.73C768.41,184.61,754.77,188,752.87,189.45Z"/><polygon class="cls-24" points="754.25 228.03 731.85 232.17 731.56 230.63 753.97 226.5 754.25 228.03"/><polygon points="774.47 198.27 765.65 219.14 764.2 218.54 773.02 197.66 774.47 198.27"/><path d="M772.6,201.94l-6.15,13.72c3.8,5,11.15,4.52,14.64-.8S779.27,203.42,772.6,201.94Z"/><path d="M747.43,242.37c6-2.14,8.2-9.13,4.18-14l-14.86,2.74C736.65,238,741.41,244.5,747.43,242.37Z"/><ellipse class="cls-14" cx="772.28" cy="213.54" rx="1.18" ry="3.52" transform="translate(29.29 513.5) rotate(-37.44)"/><ellipse class="cls-14" cx="747.72" cy="233.05" rx="1.18" ry="3.52" transform="translate(12.37 502.6) rotate(-37.44)"/><polygon points="781.15 284.89 777.52 283.31 773.89 281.73 777.09 279.37 780.3 277.01 780.72 280.95 781.15 284.89"/><polygon points="787.47 280.13 783.82 278.61 780.17 277.08 783.34 274.67 786.5 272.27 786.99 276.2 787.47 280.13"/><polygon points="793.66 275.44 790.03 273.86 786.4 272.29 789.61 269.92 792.81 267.56 793.24 271.5 793.66 275.44"/><polygon points="799.99 270.69 796.34 269.16 792.68 267.64 795.85 265.23 799.02 262.82 799.5 266.75 799.99 270.69"/><polygon points="806.17 266 802.54 264.42 798.92 262.84 802.12 260.48 805.32 258.12 805.75 262.06 806.17 266"/><polygon points="812.5 261.24 808.85 259.71 805.2 258.19 808.37 255.78 811.53 253.37 812.02 257.31 812.5 261.24"/><polygon points="783.51 287.91 784.02 291.81 784.53 295.72 787.71 293.32 790.88 290.93 787.2 289.42 783.51 287.91"/><polygon points="789.88 283.2 790.33 287.12 790.78 291.03 793.99 288.68 797.21 286.33 793.54 284.77 789.88 283.2"/><polygon points="796.14 278.62 796.65 282.52 797.16 286.43 800.34 284.03 803.51 281.64 799.83 280.13 796.14 278.62"/><polygon points="802.51 273.91 802.96 277.82 803.41 281.74 806.62 279.39 809.84 277.04 806.17 275.48 802.51 273.91"/><polygon points="808.77 269.33 809.28 273.23 809.79 277.13 812.97 274.74 816.14 272.35 812.46 270.84 808.77 269.33"/><polygon points="815.14 264.62 815.59 268.53 816.04 272.44 819.25 270.1 822.47 267.75 818.8 266.19 815.14 264.62"/><path d="M762.76,267a2.42,2.42,0,0,1-1.43.21,1.9,1.9,0,0,1-1.49-.59c-.64-.85-1.64-2.4-3-4.67a64.35,64.35,0,0,0-4.21-6.26c-.37-.49-.41-.85-.11-1.08a3.41,3.41,0,0,1,2.05-.45,2.39,2.39,0,0,1,1.95.73c.13.16.69,1.3,1.69,3.4a38.34,38.34,0,0,0,2.68,4.88,13,13,0,0,1-.16-4.32,3.91,3.91,0,0,1,1-2.55c.36-.26,1.17.34,2.46,1.8a9.5,9.5,0,0,0,1.5,1.38c.51.38.88.47,1.13.29.45-.35.49-1.14.1-2.38a10.8,10.8,0,0,0-1.76-3.4c-1.71-2.24-3.19-2.89-4.42-2a1.68,1.68,0,0,1-1.44.2,2,2,0,0,1-1.22-.64c-.4-.52-.28-1,.36-1.51a6.44,6.44,0,0,1,2.64-1.23,4.65,4.65,0,0,1,2.52.17,9.16,9.16,0,0,1,4.2,3.25,11.94,11.94,0,0,1,1.89,3.67,8.94,8.94,0,0,1,.41,3.84,3.8,3.8,0,0,1-1.38,2.7q-2.13,1.6-5.19-1.77l0,1.18C763.77,264.72,763.48,266.42,762.76,267Z"/><path d="M778,247.73a1,1,0,0,1,.7.27,5.07,5.07,0,0,1,.51,1.1,13.32,13.32,0,0,0,.56,1.31c.16.3.28.54.36.71l.21.4a4.11,4.11,0,0,1,.19.37l.16.36.13.31a1.12,1.12,0,0,1,.08.3v.26a.51.51,0,0,1-.24.4c-.17.13-.49.12-1,0a4.09,4.09,0,0,1-1.44-.78c-.25,1.94-.74,3.2-1.49,3.76a3.13,3.13,0,0,1-2.26.41,3,3,0,0,1-2.14-1,7.48,7.48,0,0,1-1-2.93,13.12,13.12,0,0,1-.11-4.39,4.63,4.63,0,0,1,1.58-3.25,3.46,3.46,0,0,1,2.36-.43,2.9,2.9,0,0,1,2.15.83A4.24,4.24,0,0,1,778,247.73Zm-3,6.6a4.17,4.17,0,0,0,1.14-2.36,4.93,4.93,0,0,0-.38-3.48c-.1-.15-.06-.31.11-.47-.54-.63-.9-.88-1.09-.74a2.94,2.94,0,0,0-.88,2.09,11.52,11.52,0,0,0,.06,3,4.73,4.73,0,0,0,.61,1.93q.11.15.18.15S774.84,254.42,775,254.33Z"/><path d="M783.07,242.84c.24.7.56,1.57.95,2.62s.59,1.59.63,1.64.16,0,.35-.13a7.61,7.61,0,0,0,1.08-1.43,8.29,8.29,0,0,1,1-1.36c.29-.22.59-.13.89.26s.27,1.16-.09,2.3a5.18,5.18,0,0,1-1.82,2.68,2.85,2.85,0,0,1-1.8.4,2.12,2.12,0,0,1-1.72-.66,12.31,12.31,0,0,1-1.14-2.6c-.5-1.39-.85-2.34-1-2.86a5,5,0,0,1-.89,1,1.3,1.3,0,0,1-1.1.07,1.84,1.84,0,0,1-1.08-.62c-.29-.37.38-1.37,2-3a17.28,17.28,0,0,0-1.81-3.06.57.57,0,0,1,.13-.91,2.7,2.7,0,0,1,1.58-.34,1.86,1.86,0,0,1,1.54.55,8.94,8.94,0,0,1,.91,1.66c.54-.45,1-.78,1.25-1,.88-.66,1.47-.8,1.77-.4s.1.66-.27,1.23a23.94,23.94,0,0,1-1.89,2.35Q782.7,241.79,783.07,242.84Z"/><path d="M794.59,236.35a5.8,5.8,0,0,1-1.87,2.48,11.74,11.74,0,0,1-2.15,1.35,4,4,0,0,0,.57,1.06,1.39,1.39,0,0,0,.67.55c.2.05.52-.08.94-.4a11.15,11.15,0,0,0,2.06-1.94c.5-.63.76-1,.79-1,.48-.36.84-.38,1.08-.07s.29,1.17-.15,2.14a6.68,6.68,0,0,1-2.14,2.58,3.94,3.94,0,0,1-3.08.87,3.89,3.89,0,0,1-2.57-1.51,7.07,7.07,0,0,1-1.27-3.2,9.8,9.8,0,0,1,.1-3.71A4.35,4.35,0,0,1,789.1,233a3.42,3.42,0,0,1,2.89-.47,4.24,4.24,0,0,1,2.6,1.46A2.37,2.37,0,0,1,794.59,236.35Zm-3-1.39a1.37,1.37,0,0,0-1,.2,1.75,1.75,0,0,0-.47,1.08,6.69,6.69,0,0,0-.06,1.92,3.59,3.59,0,0,0,.47-.32c1.6-1.21,2.19-2.09,1.76-2.65A1.22,1.22,0,0,0,791.59,235Z"/><path d="M796,232.37l-1.61-1.89c-.49-.65-.54-1.13-.13-1.44a1.42,1.42,0,0,1,.89-.26,2,2,0,0,1,1.15.43,6.46,6.46,0,0,1,.66-1.83,3.66,3.66,0,0,1,1-1.27c.85-.64,1.44-.76,1.75-.36a1,1,0,0,1,.24.55c0,.16,0,.27,0,.35a2.57,2.57,0,0,1-.07.34c0,.15-.08.26-.1.33-.13.38-.23.65-.3.8a7.13,7.13,0,0,0-.45,2.2,5.91,5.91,0,0,0,.62,2.54,21,21,0,0,1,1.36,3.68c.21.88.12,1.46-.24,1.74a1.14,1.14,0,0,1-1.23.1,3,3,0,0,1-1-.78,6,6,0,0,1-.72-1.65,13.52,13.52,0,0,0-.74-1.94A9.28,9.28,0,0,0,796,232.37Z"/></g></svg>
