<svg xmlns="http://www.w3.org/2000/svg" width="830" height="480" viewBox="0 0 830 480"><defs><style>.cls-1{fill:#f4ca92;}.cls-15,.cls-2,.cls-22{stroke:#000;}.cls-12,.cls-14,.cls-15,.cls-2,.cls-21,.cls-22{stroke-miterlimit:10;}.cls-2{opacity:0.7;}.cls-3,.cls-4,.cls-5{fill:#efab4c;}.cls-3{opacity:0.9;}.cls-4{opacity:0.95;}.cls-13,.cls-6{fill:#316b0e;}.cls-19,.cls-6{opacity:0.7;}.cls-7,.cls-8{fill:#583413;}.cls-16,.cls-8{opacity:0.8;}.cls-9{fill:#22aa30;opacity:0.5;}.cls-10,.cls-14,.cls-15,.cls-21,.cls-22{fill:none;}.cls-11{fill:#fff;}.cls-12,.cls-20{fill:#1a1a1a;}.cls-12{stroke:#ddb17a;}.cls-14{stroke:#fff;}.cls-15{stroke-width:2px;}.cls-17{fill:#feb751;}.cls-18{fill:#ffcc81;opacity:0.3;}.cls-19{fill:#52cbdc;}.cls-21{stroke:#1a1a1a;stroke-width:0.5px;}</style></defs><title>vinder_end</title><g id="Layer_8" data-name="Layer 8"><rect class="cls-1" x="5.77" y="4.58" width="821.42" height="469.94" rx="60.81"/><path d="M766.38,5.08A60.39,60.39,0,0,1,826.7,65.39V413.71A60.38,60.38,0,0,1,766.38,474H66.59A60.38,60.38,0,0,1,6.27,413.71V65.39A60.39,60.39,0,0,1,66.59,5.08H766.38m0-1H66.59A61.49,61.49,0,0,0,5.27,65.39V413.71A61.49,61.49,0,0,0,66.59,475H766.38a61.49,61.49,0,0,0,61.32-61.31V65.39A61.49,61.49,0,0,0,766.38,4.08Z"/><path d="M101.25,139.43c.63,0,1.73-1.49,3.3-4.45s3.18-5.93,4.81-8.88,2.84-4.43,3.64-4.43a3.52,3.52,0,0,1,2.94,1.61,6.33,6.33,0,0,1,1.17,3.83c0,1-.9,3-2.71,6s-4.08,6.6-6.86,10.94a120.12,120.12,0,0,0-6.39,11.08,11.2,11.2,0,0,1-2.18,3,4.24,4.24,0,0,1-2.91,1.56c-1.39,0-2.08-1.11-2.08-3.31q0-2,4-9.17c.41-.76.71-1.33.88-1.71a11.13,11.13,0,0,1-4.16-2.89,16.19,16.19,0,0,1-3-4.56,26.23,26.23,0,0,1-2.29-10.35,11,11,0,0,1,.71-4.56A2.87,2.87,0,0,1,93,121.67c.76,0,1.33.53,1.72,1.58a26.17,26.17,0,0,1,1,4.53,25,25,0,0,0,3.46,9.55C100.05,138.73,100.73,139.43,101.25,139.43Z"/><path d="M119.78,138.76q4-5.81,8-5.8a8.94,8.94,0,0,1,6.66,2.77,9.2,9.2,0,0,1,2.7,6.67,18.91,18.91,0,0,1-1.87,7.95,18.08,18.08,0,0,1-5.25,6.7,11.46,11.46,0,0,1-7.23,2.67,6.24,6.24,0,0,1-4.94-2.54,9.42,9.42,0,0,1-2.07-6.16A21.15,21.15,0,0,1,119.78,138.76Zm8.45,10.66a14.76,14.76,0,0,0,2.08-7.09c0-2.21-.31-3.73-.94-4.56-1.49.86-3,2.68-4.44,5.44a15.94,15.94,0,0,0-2.21,7.27c0,2.09.21,3.41.62,4A10.9,10.9,0,0,0,128.23,149.42Z"/><path d="M158,134.3a1.64,1.64,0,0,1,1.66-1.29c.84,0,1.8.71,2.89,2.12a6.46,6.46,0,0,1,1.64,3.68,76.21,76.21,0,0,1-2.4,7.61q-2.38,7-3.69,11.13c-.48,1.44-1.29,2.17-2.44,2.17a2.29,2.29,0,0,1-1.74-.75,3.36,3.36,0,0,1-.7-2.36,24.05,24.05,0,0,1,.62-4.55q-5.36,7.66-8.52,7.66-1.67,0-4-2.15t-2.34-4.17q0-5,2.83-12.68T147.1,133a3.47,3.47,0,0,1,2.67,1.35,4.39,4.39,0,0,1,1.17,2.95,13.74,13.74,0,0,1-1.3,3.46q-3.94,8.55-3.95,12.06c0,.21.09.32.26.32q.78,0,2.94-2.46a46.4,46.4,0,0,0,4.83-7A48.08,48.08,0,0,0,158,134.3Z"/><path d="M176.33,116.6a7.42,7.42,0,0,1,1.75,5.18c0,2.17-1,4.59-2.94,7.24s-3.75,4-5.38,4-2.44-.69-2.44-2.07q0-.93,1.92-3.6a8.28,8.28,0,0,0,1.92-4.45,3.6,3.6,0,0,0-1.4-2.92,3,3,0,0,1-1.4-2.18,2.91,2.91,0,0,1,1.09-2.07,3.44,3.44,0,0,1,2.44-1A5.72,5.72,0,0,1,176.33,116.6Z"/><path d="M186.13,141.76l-.31-5.85c0-1.93.61-2.9,1.82-2.9a3.33,3.33,0,0,1,2.05.78,4.68,4.68,0,0,1,1.54,2.43,15.3,15.3,0,0,1,3.87-2.51,9.14,9.14,0,0,1,3.71-1c2.53,0,3.8.61,3.8,1.81a2.21,2.21,0,0,1-.34,1.37c-.23.3-.4.51-.52.65a4.28,4.28,0,0,1-.62.54l-.65.5c-.8.51-1.37.88-1.72,1.08a15.87,15.87,0,0,0-4,3.5,13.81,13.81,0,0,0-2.5,5.67,51.8,51.8,0,0,1-2.72,8.87c-.89,1.95-1.88,2.93-3,2.93a2.6,2.6,0,0,1-2.44-1.56,6.3,6.3,0,0,1-.81-2.92,13.29,13.29,0,0,1,1-4.12,31.72,31.72,0,0,0,1.4-4.73A24.08,24.08,0,0,0,186.13,141.76Z"/><path d="M221.92,147.24a13.88,13.88,0,0,1-7.1,2,28.75,28.75,0,0,1-6-.51,8.51,8.51,0,0,0-.47,2.79,3.2,3.2,0,0,0,.47,2c.31.4,1.09.6,2.33.6a26.42,26.42,0,0,0,6.68-.73c1.86-.48,2.82-.72,2.89-.72,1.42,0,2.13.47,2.13,1.4q0,2-3.35,3.83a16,16,0,0,1-7.75,1.81,9.33,9.33,0,0,1-7-2.74,9,9,0,0,1-2.65-6.5,16.41,16.41,0,0,1,2.21-7.84,23.14,23.14,0,0,1,5.53-6.86,10.39,10.39,0,0,1,6.63-2.77q3.3,0,6.11,3.23a9.91,9.91,0,0,1,2.8,6.45Q225.37,145.23,221.92,147.24Zm-3.67-6.88a3.13,3.13,0,0,0-2.05-1,4.2,4.2,0,0,0-2.47,1.37,16.57,16.57,0,0,0-2.86,3.54,11.35,11.35,0,0,0,1.35.06q7.13,0,7.12-2.49C219.34,141.52,219,141,218.25,140.36Z"/><path d="M269.55,145a2.2,2.2,0,0,1,.94,1.5,13.2,13.2,0,0,1-.62,2.79c-.42,1.42-.7,2.52-.84,3.29s-.25,1.39-.33,1.84-.15.8-.19,1.06a8.55,8.55,0,0,1-.18,1q-.12.57-.21.9c-.05.23-.12.49-.2.78a2.71,2.71,0,0,1-.29.67c-.1.16-.23.32-.36.5a1.24,1.24,0,0,1-1,.41c-.49,0-1.09-.48-1.8-1.45a9.89,9.89,0,0,1-1.58-3.52q-4.89,5-8.21,5c-1.49,0-3.11-.82-4.84-2.46s-2.6-3.28-2.6-4.92.75-4,2.24-7a31.54,31.54,0,0,1,6.11-8.44q3.87-3.88,7.66-3.88,2.19,0,5,2.54t2.86,4.63A10.1,10.1,0,0,1,269.55,145Zm-15.12,8.18c1.38,0,3.23-.94,5.53-2.82a11.82,11.82,0,0,0,4.29-7.12c0-.42.33-.66.89-.73-.11-2-.44-2.95-1-2.95q-2.08,0-4.65,2.69a26.15,26.15,0,0,0-4.21,5.75,11.11,11.11,0,0,0-1.64,4.5.8.8,0,0,0,.13.55A1.05,1.05,0,0,0,254.43,153.2Z"/><path d="M305.18,133a6.65,6.65,0,0,1,3.18,1q1.74,1,1.74,2.07a48.63,48.63,0,0,1-1.77,7.35,33.57,33.57,0,0,1-5.54,11.26q-3.77,5-5.58,5a4.54,4.54,0,0,1-2.19-1,6.21,6.21,0,0,1-2.08-2.33q-1.08-2.12-1.09-12.42a44.78,44.78,0,0,1-5.09,11.52c-1.91,2.84-3.45,4.27-4.63,4.27a4.66,4.66,0,0,1-2.26-1,5,5,0,0,1-1.9-2.07q-1.14-2.79-2.18-10.66a100.42,100.42,0,0,1-1-10.77c0-1.41.49-2.12,1.46-2.12q2,0,4.05,2.38c1.39,1.59,2.08,2.83,2.08,3.73q0,7.5.16,11.95a37,37,0,0,0,3.76-7.86q1.69-4.71,2.73-7.46c.7-1.83,1.42-2.74,2.19-2.74a6.51,6.51,0,0,1,4.52,2.2,6.36,6.36,0,0,1,2.23,4.48q0,1-.33,4.29c-.23,2.18-.34,3.82-.34,4.92a14.73,14.73,0,0,0,.21,2.74,14.2,14.2,0,0,0,3-5,36.85,36.85,0,0,0,1.85-6.26Q303.76,133,305.18,133Z"/><path d="M330.7,147.24a13.85,13.85,0,0,1-7.09,2,28.85,28.85,0,0,1-6-.51,8.78,8.78,0,0,0-.47,2.79,3.27,3.27,0,0,0,.47,2q.47.6,2.34.6a26.42,26.42,0,0,0,6.68-.73c1.85-.48,2.82-.72,2.89-.72,1.42,0,2.13.47,2.13,1.4q0,2-3.36,3.83a16,16,0,0,1-7.74,1.81,9.32,9.32,0,0,1-7-2.74,9,9,0,0,1-2.65-6.5,16.51,16.51,0,0,1,2.2-7.84,23.17,23.17,0,0,1,5.54-6.86,10.39,10.39,0,0,1,6.63-2.77q3.3,0,6.1,3.23a9.88,9.88,0,0,1,2.81,6.45Q334.16,145.23,330.7,147.24ZM327,140.36a3.15,3.15,0,0,0-2.05-1,4.18,4.18,0,0,0-2.47,1.37,16.27,16.27,0,0,0-2.86,3.54,11.35,11.35,0,0,0,1.35.06q7.13,0,7.12-2.49C328.13,141.52,327.77,141,327,140.36Z"/><path d="M352.82,133.06q2,0,3.9,2.33a6.92,6.92,0,0,1,1.92,4.19c0,.83-.36,1.25-1.09,1.25a5.32,5.32,0,0,1-1.82-.5,6.46,6.46,0,0,0-2.42-.49,12.05,12.05,0,0,0-3.58.83c-1.58.55-2.37,1.28-2.37,2.17,0,.35.47.85,1.41,1.51s2,1.32,3.06,2a11.82,11.82,0,0,1,3.07,2.88,6.38,6.38,0,0,1,1.4,4q0,2.16-3.14,4.33a12.74,12.74,0,0,1-7.38,2.17,13.2,13.2,0,0,1-7.25-1.92q-3-1.91-3-3.93c0-1.35.56-2,1.66-2a3.44,3.44,0,0,1,1.62.52,12.77,12.77,0,0,0,6.47,1.5c2.58,0,3.87-.34,3.87-1a3.4,3.4,0,0,0-1.48-2.3,26.9,26.9,0,0,0-3.22-2.35,16.27,16.27,0,0,1-3.23-2.67,4.63,4.63,0,0,1-1.48-3.08q0-2.79,5.1-6.08T352.82,133.06Z"/><path d="M364.28,138.76q4-5.81,8-5.8a8.91,8.91,0,0,1,6.65,2.77,9.21,9.21,0,0,1,2.71,6.67,18.77,18.77,0,0,1-1.88,7.95,17.88,17.88,0,0,1-5.25,6.7,11.44,11.44,0,0,1-7.22,2.67,6.23,6.23,0,0,1-4.94-2.54,9.43,9.43,0,0,1-2.08-6.16A21.09,21.09,0,0,1,364.28,138.76Zm8.45,10.66a14.88,14.88,0,0,0,2.08-7.09c0-2.21-.32-3.73-.94-4.56-1.49.86-3,2.68-4.44,5.44a15.82,15.82,0,0,0-2.21,7.27c0,2.09.21,3.41.62,4A10.94,10.94,0,0,0,372.73,149.42Z"/><path d="M419.19,133c1.36,0,2.48.9,3.38,2.69a11.15,11.15,0,0,1,1.35,4.92,37.67,37.67,0,0,1-.85,6.6,38.47,38.47,0,0,1-2.71,8.44q-1.85,4.07-4,4.06c-1.15,0-1.72-.78-1.72-2.33a35.32,35.32,0,0,1,1.35-7.61,36.93,36.93,0,0,0,1.36-6.94c0-1.1-.18-1.65-.52-1.65-.73,0-1.6.79-2.6,2.38s-2.21,3.71-3.62,6.37-2.27,4.36-2.62,5.12-.63,1.36-.86,1.81-.48.92-.75,1.4q-1.67,2.74-4.42,0a3.84,3.84,0,0,1-1.4-2.54c0-.13.28-1.45.85-4a38.07,38.07,0,0,0,.86-8.56c0-1.35-.15-2-.47-2s-.9.41-1.45,1.24-1.4,2.33-2.55,4.5-2.13,4-3,5.39q-4.37,7.4-6.65,7.4c-.77,0-1.71-.64-2.84-1.92s-1.69-2.25-1.69-2.92a24.2,24.2,0,0,1,1.17-4.87,38.68,38.68,0,0,0,1.51-8.2c.23-2.9.43-5.16.62-6.78s.6-2.43,1.23-2.43a5.73,5.73,0,0,1,3.82,1.63c1.23,1.08,1.84,2.08,1.84,3q0,3.06-2.23,10.67,3.63-8.66,6.13-11.7c1.77-2.11,3.46-3.16,5.09-3.16.9,0,2,.83,3.36,2.48a7.66,7.66,0,0,1,2,4.64q0,2.15-.06,3.75a23.22,23.22,0,0,1,4.89-7.45C415.24,134.15,417.29,133,419.19,133Z"/><path d="M446.61,147.24a13.85,13.85,0,0,1-7.09,2,28.85,28.85,0,0,1-6-.51,8.78,8.78,0,0,0-.47,2.79,3.27,3.27,0,0,0,.47,2q.46.6,2.34.6a26.48,26.48,0,0,0,6.68-.73q2.78-.72,2.88-.72c1.42,0,2.13.47,2.13,1.4,0,1.34-1.11,2.62-3.35,3.83a16,16,0,0,1-7.74,1.81,9.35,9.35,0,0,1-7.05-2.74,9.08,9.08,0,0,1-2.65-6.5,16.52,16.52,0,0,1,2.21-7.84,23,23,0,0,1,5.54-6.86,10.35,10.35,0,0,1,6.62-2.77q3.3,0,6.11,3.23a9.93,9.93,0,0,1,2.81,6.45Q450.07,145.23,446.61,147.24ZM443,140.36a3.15,3.15,0,0,0-2.06-1,4.16,4.16,0,0,0-2.46,1.37,16.27,16.27,0,0,0-2.86,3.54,11.35,11.35,0,0,0,1.35.06q7.13,0,7.12-2.49C444,141.52,443.67,141,443,140.36Z"/><path d="M494.25,145a2.22,2.22,0,0,1,.93,1.5,12.56,12.56,0,0,1-.62,2.79,33.32,33.32,0,0,0-.83,3.29c-.14.78-.25,1.39-.34,1.84s-.15.8-.18,1.06-.1.58-.18,1l-.21.9q-.07.34-.21.78a2.38,2.38,0,0,1-.29.67,6.08,6.08,0,0,1-.36.5,1.23,1.23,0,0,1-1,.41c-.48,0-1.08-.48-1.79-1.45a10.08,10.08,0,0,1-1.59-3.52q-4.87,5-8.21,5-2.24,0-4.83-2.46c-1.74-1.64-2.6-3.28-2.6-4.92s.74-4,2.23-7a31.76,31.76,0,0,1,6.11-8.44q3.87-3.88,7.67-3.88,2.18,0,5,2.54c1.9,1.69,2.86,3.23,2.86,4.63A10.1,10.1,0,0,1,494.25,145Zm-15.13,8.18c1.39,0,3.23-.94,5.54-2.82a11.91,11.91,0,0,0,4.29-7.12c0-.42.32-.66.88-.73-.1-2-.43-2.95-1-2.95q-2.07,0-4.65,2.69A26.15,26.15,0,0,0,480,148a11.27,11.27,0,0,0-1.64,4.5.86.86,0,0,0,.13.55A1.1,1.1,0,0,0,479.12,153.2Z"/><path d="M510.91,143.08q-.81,2.5-2,6.29c-.78,2.52-1.17,3.85-1.17,4s.29.23.86.23a17.69,17.69,0,0,0,4.08-1.16,20.45,20.45,0,0,1,3.79-1.17c.87,0,1.3.59,1.3,1.76s-1.16,2.58-3.48,4.22a12.44,12.44,0,0,1-7.28,2.46,6.83,6.83,0,0,1-3.95-1.81c-1.52-1.21-2.28-2.43-2.28-3.68a28.68,28.68,0,0,1,1.58-6.55c1.06-3.32,1.78-5.61,2.16-6.85a12.43,12.43,0,0,1-3.07.57,3.06,3.06,0,0,1-2.18-1.43,4.42,4.42,0,0,1-1.14-2.72q0-1.65,8.05-2.79a42.24,42.24,0,0,0,1-8.33,1.38,1.38,0,0,1,1.56-1.56,6.36,6.36,0,0,1,3.46,1.63q2.1,1.64,2.1,3.21a20.54,20.54,0,0,1-.67,4.43c1.66-.07,2.92-.11,3.79-.11,2.6,0,3.9.59,3.9,1.76,0,.76-.76,1.41-2.26,1.95a55,55,0,0,1-6.94,1.73C511.85,140.1,511.44,141.4,510.91,143.08Z"/><path d="M564.31,118.52c.83,0,1.92.75,3.28,2.25a6.55,6.55,0,0,1,2,4.22,68.47,68.47,0,0,1-1.82,8.17q-1.81,7.2-2.18,8.7-4.15,17.87-6.08,17.86a3.78,3.78,0,0,1-2.44-1.29,3.65,3.65,0,0,1-1.35-2.54,1.17,1.17,0,0,1,0-.41c-3.47,2.82-5.95,4.24-7.46,4.24a5.91,5.91,0,0,1-4.37-2.41,7,7,0,0,1-2.1-4.37,20.24,20.24,0,0,1,.54-4.38,30.91,30.91,0,0,1,1.69-5.09,34.89,34.89,0,0,1,2.63-5.05,13.9,13.9,0,0,1,3.58-3.88,7.31,7.31,0,0,1,4.34-1.53q3.33,0,5.46,3.36,2.8-12.26,2.7-16.3A1.35,1.35,0,0,1,564.31,118.52ZM549,153.15c.86,0,2.33-.75,4.39-2.23a13.63,13.63,0,0,0,4.6-5.64c0-.28-.05-.88-.05-1.81a4.25,4.25,0,0,0-.94-2.64c-.62-.83-1.19-1.25-1.71-1.25a4,4,0,0,0-3,1.66,12.53,12.53,0,0,0-2.26,3.93,23.52,23.52,0,0,0-1.77,7.3.8.8,0,0,0,.13.55A1,1,0,0,0,549,153.15Z"/><path d="M573,141.76l-.31-5.85c0-1.93.61-2.9,1.82-2.9a3.33,3.33,0,0,1,2,.78,4.68,4.68,0,0,1,1.54,2.43,15.3,15.3,0,0,1,3.87-2.51,9.14,9.14,0,0,1,3.71-1c2.53,0,3.8.61,3.8,1.81a2.21,2.21,0,0,1-.34,1.37c-.23.3-.4.51-.52.65a4.28,4.28,0,0,1-.62.54l-.65.5c-.8.51-1.37.88-1.72,1.08a15.87,15.87,0,0,0-4,3.5,13.81,13.81,0,0,0-2.5,5.67,51.8,51.8,0,0,1-2.72,8.87c-.89,1.95-1.88,2.93-3,2.93a2.6,2.6,0,0,1-2.44-1.56,6.3,6.3,0,0,1-.81-2.92,13.29,13.29,0,0,1,1-4.12,31.72,31.72,0,0,0,1.4-4.73A24.08,24.08,0,0,0,573,141.76Z"/><path d="M594.82,133a4,4,0,0,1,3.25,2.07,7.08,7.08,0,0,1,1.43,4,48.11,48.11,0,0,1-1.79,7.06c-1.2,4.06-2.39,7.89-3.56,11.52a2.52,2.52,0,0,1-2.55,2,2.75,2.75,0,0,1-2-.86,3,3,0,0,1-.86-2.22,41.67,41.67,0,0,1,1.33-6.84c.88-3.64,1.56-6.74,2-9.31a44.8,44.8,0,0,1,1.3-5.64C593.79,133.61,594.27,133,594.82,133Zm-.78-6.47a4.34,4.34,0,0,1,1.22-2.77,3.34,3.34,0,0,1,2.39-1.42q1.17,0,2.79,2.79a9.91,9.91,0,0,1,1.61,4.06,2.36,2.36,0,0,1-.84,2,2.67,2.67,0,0,1-1.71.67c-1,0-2.17-.66-3.48-2S594,127.44,594,126.54Z"/><path d="M621.59,133a6.11,6.11,0,0,1,4.76,2.41,7.84,7.84,0,0,1,2,5.15,32.15,32.15,0,0,1-1.43,9.18,28.56,28.56,0,0,1-3.12,7.38q-1.7,2.6-3.43,2.59t-1.74-2.43a33.33,33.33,0,0,1,1.71-7.51,28.53,28.53,0,0,0,1.3-6.68c0-1.34-.17-2-.52-2a1.86,1.86,0,0,0-1.32.68c-.44.45-.79.84-1.07,1.19s-.59.78-1,1.32-.67,1-.93,1.45l-1,1.65c-.4.68-.72,1.23-1,1.66s-.56,1-.94,1.68q-4.83,9-7.59,9c-.73,0-1.64-.63-2.75-1.89s-1.67-2.18-1.67-2.77a9.35,9.35,0,0,1,.76-2.46c.5-1.26.86-2.22,1.09-2.9a18.54,18.54,0,0,0,.57-2.14q.24-1.14.39-2.46c.1-.88.18-1.56.23-2s.12-1.24.19-2.28c.31-4.48.58-7,.8-7.45s.48-.72.76-.72a5.63,5.63,0,0,1,3.79,1.63c1.21,1.08,1.82,2.08,1.82,3a37.57,37.57,0,0,1-1.66,9.22,98.66,98.66,0,0,1,6.16-9.66Q619.67,133,621.59,133Z"/><path d="M636.09,159.72c-.8,0-1.79-.64-3-1.92s-1.79-2.29-1.79-3.05q0-.31,1.74-6.16t3.48-14.08a70.78,70.78,0,0,0,1.74-14.39c0-1.07.49-1.6,1.46-1.6s1.93.75,3.3,2.25a6.51,6.51,0,0,1,2.05,4.22q0,2.83-2.05,10.76A83.75,83.75,0,0,1,639,148.23c.45-.59,1.06-1.37,1.84-2.36s1.42-1.78,1.9-2.4l1.79-2.28c.71-.9,1.31-1.63,1.8-2.2l1.61-1.92q.89-1,1.53-1.71c.44-.43.88-.83,1.33-1.21a3.51,3.51,0,0,1,1.92-1.14,4.22,4.22,0,0,1,2.86,1.73,4.94,4.94,0,0,1,1.56,3c0,.35-.74,1.14-2.21,2.38s-3,2.63-4.42,4.14-2.21,2.88-2.21,4.07a6.44,6.44,0,0,0,1.07,3.47,9,9,0,0,0,2.31,2.56c.83.59,1.6,1.18,2.31,1.78s1.07,1.12,1.07,1.53c0,1.35-.92,2-2.75,2q-3.28,0-8.68-5.49L642.33,153Q637.65,159.72,636.09,159.72Z"/><path d="M662.75,133a4,4,0,0,1,3.25,2.07,7,7,0,0,1,1.43,4,48.11,48.11,0,0,1-1.79,7.06c-1.2,4.06-2.38,7.89-3.56,11.52a2.52,2.52,0,0,1-2.55,2,2.75,2.75,0,0,1-2-.86,3,3,0,0,1-.86-2.22,41.67,41.67,0,0,1,1.33-6.84q1.32-5.46,2-9.31a43.08,43.08,0,0,1,1.3-5.64C661.72,133.61,662.2,133,662.75,133Zm-.78-6.47a4.3,4.3,0,0,1,1.23-2.77,3.31,3.31,0,0,1,2.39-1.42c.78,0,1.7.93,2.78,2.79A9.91,9.91,0,0,1,670,129.2a2.38,2.38,0,0,1-.83,2,2.71,2.71,0,0,1-1.72.67c-1,0-2.16-.66-3.48-2S662,127.44,662,126.54Z"/><path d="M689.52,133a6.11,6.11,0,0,1,4.76,2.41,7.79,7.79,0,0,1,2.05,5.15,32.15,32.15,0,0,1-1.43,9.18,28.56,28.56,0,0,1-3.12,7.38c-1.12,1.73-2.27,2.59-3.43,2.59s-1.74-.81-1.74-2.43a33,33,0,0,1,1.72-7.51,29.08,29.08,0,0,0,1.3-6.68c0-1.34-.18-2-.52-2a1.88,1.88,0,0,0-1.33.68,15.88,15.88,0,0,0-1.06,1.19c-.28.34-.6.78-1,1.32s-.67,1-.93,1.45l-1,1.65c-.4.68-.72,1.23-1,1.66s-.56,1-.94,1.68q-4.83,9-7.59,9c-.72,0-1.64-.63-2.75-1.89s-1.66-2.18-1.66-2.77a9.17,9.17,0,0,1,.75-2.46c.5-1.26.87-2.22,1.09-2.9a16.71,16.71,0,0,0,.57-2.14q.24-1.14.39-2.46c.11-.88.19-1.56.24-2s.11-1.24.18-2.28c.31-4.48.58-7,.81-7.45s.47-.72.75-.72a5.61,5.61,0,0,1,3.79,1.63c1.22,1.08,1.82,2.08,1.82,3a37.57,37.57,0,0,1-1.66,9.22,98.66,98.66,0,0,1,6.16-9.66Q687.59,133,689.52,133Z"/><path d="M719.72,144.19a3.09,3.09,0,0,1,.78,2.12,6.54,6.54,0,0,1-1,3.06,44.15,44.15,0,0,0-2.29,7.71,65.6,65.6,0,0,1-1.95,7.38,29.16,29.16,0,0,1-2.07,4.73,9.6,9.6,0,0,1-3,3.26,7.73,7.73,0,0,1-4.41,1.3,9.52,9.52,0,0,1-6.24-2.28q-2.76-2.28-2.76-3.91a5.18,5.18,0,0,1,.89-2.95c.59-.88,1.13-1.32,1.63-1.32a2,2,0,0,1,1.46.83,15.63,15.63,0,0,1,1.3,1.78,7.56,7.56,0,0,0,1.59,1.79,3.3,3.3,0,0,0,2.18.83,2.72,2.72,0,0,0,2.18-1.55,13,13,0,0,0,1.51-3.37,59.84,59.84,0,0,0,1.61-6c-2.36,1.44-4.27,2.17-5.74,2.17s-2.91-.8-4.29-2.41a7.14,7.14,0,0,1-2.08-4.55,16.57,16.57,0,0,1,1.17-5.39,42.09,42.09,0,0,1,3-6.47,19.92,19.92,0,0,1,4.68-5.56,9,9,0,0,1,5.69-2.33,5.53,5.53,0,0,1,3.28,1,5.47,5.47,0,0,1,2,2.56,17.18,17.18,0,0,1,1.09,6.31A11,11,0,0,1,719.72,144.19Zm-14.4,8.33c0,.45.19.68.57.68q1.51,0,4.89-2.75A14.91,14.91,0,0,0,715.3,145v-1c0-2.24-.21-3.6-.62-4.08a1,1,0,0,0-.83-.37c-1.67,0-3.5,1.75-5.51,5.23S705.32,150.87,705.32,152.52Z"/><path d="M728.4,155.09a4.21,4.21,0,0,1,1.2-2.75A3.29,3.29,0,0,1,732,151c.79,0,1.72.93,2.78,2.8a9.91,9.91,0,0,1,1.58,4.19,2.23,2.23,0,0,1-.86,1.5,2.48,2.48,0,0,1-1.68.83,5.33,5.33,0,0,1-3.49-1.92C729,157.1,728.4,156,728.4,155.09Zm5.35-35.85c0-1,.54-1.5,1.61-1.5s2.51.76,4.29,2.28,2.68,2.62,2.68,3.31q0,3.42-2.42,14.11t-4.18,10.68a3.84,3.84,0,0,1-2.76-1.44,4.62,4.62,0,0,1-1.4-3,14.41,14.41,0,0,1,.42-3.34q.51-2.76,1.14-8.54A116.07,116.07,0,0,0,733.75,119.24Z"/><path d="M299.42,221.83c-.8,0-1.79-.63-3-1.91s-1.79-2.3-1.79-3.06q0-.3,1.74-6.15t3.48-14.08a70.87,70.87,0,0,0,1.74-14.39c0-1.07.49-1.61,1.46-1.61s1.93.75,3.3,2.25a6.51,6.51,0,0,1,2.05,4.22q0,2.85-2.05,10.77a83.17,83.17,0,0,1-4.08,12.47c.45-.58,1.06-1.37,1.84-2.35l1.9-2.41,1.79-2.28c.71-.89,1.31-1.63,1.8-2.2s1-1.2,1.61-1.91,1.1-1.28,1.53-1.71.88-.84,1.33-1.22a3.57,3.57,0,0,1,1.92-1.14,4.22,4.22,0,0,1,2.86,1.74,4.92,4.92,0,0,1,1.56,3c0,.34-.74,1.14-2.21,2.38a57.9,57.9,0,0,0-4.42,4.14q-2.21,2.28-2.21,4.06a6.41,6.41,0,0,0,1.07,3.47A8.83,8.83,0,0,0,315,216.5c.83.59,1.6,1.19,2.31,1.79s1.07,1.11,1.07,1.53q0,2-2.76,2-3.27,0-8.68-5.48l-1.24-1.24Q301,221.83,299.42,221.83Z"/><path d="M340,209.36a13.88,13.88,0,0,1-7.1,2,28.06,28.06,0,0,1-6-.52,8.53,8.53,0,0,0-.47,2.8,3.22,3.22,0,0,0,.47,2c.31.4,1.09.59,2.34.59a26.9,26.9,0,0,0,6.67-.72c1.86-.48,2.82-.73,2.89-.73,1.42,0,2.13.47,2.13,1.4,0,1.35-1.12,2.62-3.35,3.83a16,16,0,0,1-7.75,1.81,9.33,9.33,0,0,1-7-2.74,9,9,0,0,1-2.65-6.49,16.45,16.45,0,0,1,2.21-7.85,23.27,23.27,0,0,1,5.53-6.86,10.44,10.44,0,0,1,6.63-2.77q3.3,0,6.11,3.24a9.93,9.93,0,0,1,2.81,6.44C343.5,206.5,342.34,208,340,209.36Zm-3.67-6.88a3.15,3.15,0,0,0-2.05-1,4.26,4.26,0,0,0-2.47,1.37,16.9,16.9,0,0,0-2.86,3.55c.32,0,.76.05,1.35.05q7.13,0,7.13-2.48C337.47,203.63,337.1,203.13,336.37,202.48Z"/><path d="M365.4,209.36a13.85,13.85,0,0,1-7.09,2,28.09,28.09,0,0,1-6-.52,8.8,8.8,0,0,0-.47,2.8,3.29,3.29,0,0,0,.47,2c.31.4,1.09.59,2.34.59a27,27,0,0,0,6.68-.72c1.85-.48,2.81-.73,2.88-.73,1.42,0,2.13.47,2.13,1.4,0,1.35-1.11,2.62-3.35,3.83a16,16,0,0,1-7.74,1.81,9.35,9.35,0,0,1-7-2.74,9.05,9.05,0,0,1-2.65-6.49,16.56,16.56,0,0,1,2.21-7.85,23.14,23.14,0,0,1,5.54-6.86,10.42,10.42,0,0,1,6.63-2.77q3.3,0,6.1,3.24a9.93,9.93,0,0,1,2.81,6.44C368.86,206.5,367.71,208,365.4,209.36Zm-3.66-6.88a3.17,3.17,0,0,0-2.05-1,4.21,4.21,0,0,0-2.47,1.37,16.59,16.59,0,0,0-2.86,3.55c.31,0,.76.05,1.35.05q7.13,0,7.12-2.48C362.83,203.63,362.47,203.13,361.74,202.48Z"/><path d="M389.81,195.18c1.28,0,2.65,1.13,4.13,3.41a12.55,12.55,0,0,1,2.21,6.84,9.72,9.72,0,0,1-1.77,4.91,26.63,26.63,0,0,1-4.44,5.36,26.17,26.17,0,0,1-6.19,4.27,15,15,0,0,1-6.68,1.76h-.62q-3.29,13.56-4.63,13.56c-.73,0-1.5-.6-2.31-1.81a5.78,5.78,0,0,1-1.22-3,50.92,50.92,0,0,1,1.5-7.3q4.47-18.12,4.47-27.33a1.35,1.35,0,0,1,1.51-1.55,6.88,6.88,0,0,1,5.56,5Q385.76,195.18,389.81,195.18Zm-4.08,15.94c2.4-2.45,3.61-4.57,3.61-6.37s-.5-2.69-1.51-2.69c-1.45,0-3,.83-4.63,2.49a17.67,17.67,0,0,0-2.18,3,23.91,23.91,0,0,0-2.08,4.71l-.88,3.26A14.73,14.73,0,0,0,385.73,211.12Z"/><path d="M424.79,195.12a4,4,0,0,1,3.24,2.07,7,7,0,0,1,1.43,4,46.65,46.65,0,0,1-1.79,7.07q-1.8,6.08-3.56,11.51a2.51,2.51,0,0,1-2.55,2,2.74,2.74,0,0,1-2-.85,3,3,0,0,1-.86-2.23,42.83,42.83,0,0,1,1.33-6.83q1.32-5.46,2-9.32a43.08,43.08,0,0,1,1.3-5.64C423.75,195.72,424.23,195.12,424.79,195.12Zm-.78-6.47a4.26,4.26,0,0,1,1.22-2.76,3.33,3.33,0,0,1,2.39-1.43c.78,0,1.7.93,2.78,2.8a9.86,9.86,0,0,1,1.61,4.06,2.36,2.36,0,0,1-.83,1.94,2.71,2.71,0,0,1-1.72.67c-1,0-2.16-.65-3.48-2S424,189.55,424,188.65Z"/><path d="M444.67,205.19c-.54,1.68-1.2,3.77-2,6.29s-1.17,3.86-1.17,4,.29.24.86.24a17.39,17.39,0,0,0,4.08-1.17,20.89,20.89,0,0,1,3.79-1.16c.87,0,1.3.58,1.3,1.76s-1.16,2.58-3.48,4.22a12.42,12.42,0,0,1-7.28,2.45,6.83,6.83,0,0,1-4-1.81c-1.52-1.21-2.28-2.43-2.28-3.67a28.45,28.45,0,0,1,1.58-6.55q1.59-5,2.16-6.86a12.51,12.51,0,0,1-3.07.57,3,3,0,0,1-2.18-1.42,4.44,4.44,0,0,1-1.14-2.72c0-1.1,2.68-2,8-2.8a42.16,42.16,0,0,0,1-8.33,1.38,1.38,0,0,1,1.56-1.55,6.29,6.29,0,0,1,3.46,1.63c1.4,1.08,2.1,2.16,2.1,3.21a21.12,21.12,0,0,1-.67,4.42c1.66-.07,2.92-.1,3.79-.1,2.6,0,3.9.59,3.9,1.76,0,.76-.76,1.41-2.26,1.94a53.25,53.25,0,0,1-6.94,1.73C445.61,202.22,445.2,203.52,444.67,205.19Z"/><path d="M494.12,196.42a1.65,1.65,0,0,1,1.66-1.3c.84,0,1.8.71,2.89,2.13a6.44,6.44,0,0,1,1.64,3.67,76.59,76.59,0,0,1-2.39,7.61q-2.4,7-3.69,11.13c-.49,1.45-1.3,2.17-2.45,2.17a2.29,2.29,0,0,1-1.74-.75,3.34,3.34,0,0,1-.7-2.35,24.23,24.23,0,0,1,.62-4.56q-5.35,7.67-8.52,7.66-1.67,0-4-2.14t-2.34-4.17q0-5,2.83-12.68t5.33-7.72a3.47,3.47,0,0,1,2.67,1.35,4.41,4.41,0,0,1,1.17,2.95,13.75,13.75,0,0,1-1.3,3.47q-3.94,8.54-3.95,12.06c0,.21.09.31.26.31q.78,0,2.94-2.46a45.89,45.89,0,0,0,4.83-7A48,48,0,0,0,494.12,196.42Z"/><path d="M520,195.18c1.28,0,2.65,1.13,4.13,3.41a12.55,12.55,0,0,1,2.21,6.84,9.72,9.72,0,0,1-1.77,4.91,26.63,26.63,0,0,1-4.44,5.36A26.17,26.17,0,0,1,514,220a15,15,0,0,1-6.68,1.76h-.62q-3.28,13.56-4.63,13.56c-.73,0-1.5-.6-2.31-1.81a5.78,5.78,0,0,1-1.22-3,50.92,50.92,0,0,1,1.5-7.3q4.47-18.12,4.47-27.33A1.35,1.35,0,0,1,506,194.3a6.88,6.88,0,0,1,5.56,5Q516,195.18,520,195.18Zm-4.08,15.94c2.4-2.45,3.61-4.57,3.61-6.37s-.5-2.69-1.51-2.69c-1.45,0-3,.83-4.63,2.49a17.67,17.67,0,0,0-2.18,3,23.91,23.91,0,0,0-2.08,4.71l-.88,3.26A14.73,14.73,0,0,0,515.93,211.12Z"/><path d="M535.29,222.71q-1.66,0-3.72-2c-1.37-1.35-2.05-2.51-2.05-3.5a4.47,4.47,0,0,1,1.3-2.95,3.6,3.6,0,0,1,2.62-1.47c.88,0,1.88,1,3,2.89a10.15,10.15,0,0,1,1.66,4.4,2.56,2.56,0,0,1-1,1.71A2.73,2.73,0,0,1,535.29,222.71Z"/><rect class="cls-2" x="304.48" y="284.37" width="236.26" height="91.76" rx="34.71"/><path class="cls-3" d="M331.77,283.78a38.55,38.55,0,0,0-38.52,38.36v11.52A38.54,38.54,0,0,0,331.77,372H350V283.78Z"/><path class="cls-4" d="M383.5,283.78H350V372h33.36Q383.7,327.79,383.5,283.78Z"/><path class="cls-5" d="M496.91,283.78H383.5q.13,44.06-.18,88.23H496.91a38.54,38.54,0,0,0,38.51-38.35V322.14A38.55,38.55,0,0,0,496.91,283.78Z"/><path d="M348.9,316.3c-2.55.14-3.95.21-4.18.21a2.31,2.31,0,0,1-1.7-1,3.39,3.39,0,0,1-.86-2.17q0-1.73,10.1-1.73,5.17,0,7.62,1.06c1.63.7,2.45,1.56,2.45,2.57a1.13,1.13,0,0,1-.53.87,2.19,2.19,0,0,1-1.35.41c-.54,0-1.53,0-3-.11s-2.75-.12-3.93-.14a3.24,3.24,0,0,1,.14,1,11.28,11.28,0,0,1-.41,2.22c-.27,1.11-.65,2.64-1.15,4.61s-1,4.34-1.63,7.13a43.87,43.87,0,0,1-1.22,5c-.22.53-.44.79-.66.79q-.74,0-1.86-1.35a4,4,0,0,1-1.11-2.21,62.69,62.69,0,0,1,1.45-7A76.13,76.13,0,0,0,348.9,316.3Z"/><path d="M362.33,324.91l-.21-4c0-1.31.41-2,1.24-2a2.25,2.25,0,0,1,1.4.53,3.17,3.17,0,0,1,1,1.65,11.06,11.06,0,0,1,2.64-1.71,6.35,6.35,0,0,1,2.54-.65q2.58,0,2.58,1.23a1.5,1.5,0,0,1-.23.94c-.15.2-.27.35-.35.44a2.59,2.59,0,0,1-.43.37l-.44.34c-.54.35-.93.6-1.17.74a11,11,0,0,0-2.73,2.38,9.53,9.53,0,0,0-1.7,3.86,35.7,35.7,0,0,1-1.86,6.06c-.6,1.33-1.28,2-2,2a1.78,1.78,0,0,1-1.67-1.06,4.39,4.39,0,0,1-.54-2,9.14,9.14,0,0,1,.69-2.81,20.29,20.29,0,0,0,.95-3.23A16,16,0,0,0,362.33,324.91Z"/><path d="M386.43,319.83a1.07,1.07,0,0,1,1.17-.88,2.73,2.73,0,0,1,2,1.2,4.06,4.06,0,0,1,1,2.71,10.13,10.13,0,0,1-.63,2.79c-.43,1.27-.73,2.18-.91,2.72s-.43,1.28-.76,2.2-.63,1.79-.9,2.58-.64,1.84-1.1,3.16-.88,2.54-1.26,3.67a13.94,13.94,0,0,1-2.68,4.91,5.28,5.28,0,0,1-4.09,1.73,7.93,7.93,0,0,1-4.5-1.33c-1.32-.88-2-1.77-2-2.66a3.16,3.16,0,0,1,.72-1.8c.49-.66.9-1,1.24-1s.79.28,1.35.83,1.13,1.1,1.72,1.66a2.5,2.5,0,0,0,1.56.83.9.9,0,0,0,.76-.43,8.87,8.87,0,0,0,.5-.76,7.06,7.06,0,0,0,.4-.91l.39-1.08c.12-.33.26-.76.43-1.31l.42-1.44c.4-1.27.75-2.4,1-3.39a12,12,0,0,1-2.41,2.42,4,4,0,0,1-2.28.9,4.23,4.23,0,0,1-2.59-1.57,4.84,4.84,0,0,1-1.54-3.46,21,21,0,0,1,.83-5.07,29,29,0,0,1,2.07-5.64c.83-1.65,1.56-2.47,2.2-2.47a3,3,0,0,1,2.07.93,2.64,2.64,0,0,1,1,1.8,7.8,7.8,0,0,1-.87,2.77c-.58,1.27-1.16,2.66-1.75,4.17a10.65,10.65,0,0,0-.89,3.84c0,.14.06.22.18.22.3,0,1-.57,2-1.72a33.52,33.52,0,0,0,3.34-4.87A30.19,30.19,0,0,0,386.43,319.83Z"/><path d="M420.34,327.13a1.51,1.51,0,0,1,.64,1,8.57,8.57,0,0,1-.43,1.9,22.37,22.37,0,0,0-.56,2.24c-.1.53-.17.95-.23,1.26s-.1.54-.13.72a5.43,5.43,0,0,1-.12.65c-.06.26-.11.47-.14.62s-.09.33-.14.53a1.84,1.84,0,0,1-.2.46,2.39,2.39,0,0,1-.25.33.83.83,0,0,1-.71.29c-.33,0-.73-.33-1.22-1a7,7,0,0,1-1.08-2.4q-3.33,3.39-5.6,3.39a5,5,0,0,1-3.29-1.68,4.71,4.71,0,0,1-1.78-3.35,12,12,0,0,1,1.53-4.78,21.61,21.61,0,0,1,4.16-5.76Q413.43,319,416,319a5.55,5.55,0,0,1,3.44,1.73q1.95,1.72,2,3.15A6.85,6.85,0,0,1,420.34,327.13ZM410,332.71c.94,0,2.2-.64,3.77-1.92a8.12,8.12,0,0,0,2.93-4.86c0-.28.22-.44.6-.49-.07-1.34-.3-2-.67-2a4.8,4.8,0,0,0-3.18,1.83,18.57,18.57,0,0,0-2.87,3.92,7.66,7.66,0,0,0-1.11,3.07.53.53,0,0,0,.09.37A.68.68,0,0,0,410,332.71Z"/><path d="M437.35,326.57a2.08,2.08,0,0,1,.53,1.45,4.45,4.45,0,0,1-.7,2.08,28.56,28.56,0,0,0-1.56,5.26,46.2,46.2,0,0,1-1.33,5,19.82,19.82,0,0,1-1.42,3.23,6.65,6.65,0,0,1-2.07,2.22,5.28,5.28,0,0,1-3,.88,6.51,6.51,0,0,1-4.25-1.55c-1.25-1-1.88-1.93-1.88-2.67a3.48,3.48,0,0,1,.61-2q.6-.9,1.11-.9a1.31,1.31,0,0,1,1,.57,9.93,9.93,0,0,1,.89,1.21,4.91,4.91,0,0,0,1.08,1.22,2.26,2.26,0,0,0,1.49.57,1.88,1.88,0,0,0,1.49-1.06,8.84,8.84,0,0,0,1-2.3,37.73,37.73,0,0,0,1.09-4.13,8.12,8.12,0,0,1-3.91,1.49,4,4,0,0,1-2.93-1.64,4.92,4.92,0,0,1-1.41-3.11,11.24,11.24,0,0,1,.79-3.67,29.09,29.09,0,0,1,2.06-4.41,13.6,13.6,0,0,1,3.19-3.8A6.15,6.15,0,0,1,433.1,319a3.66,3.66,0,0,1,3.58,2.4,11.65,11.65,0,0,1,.74,4.3A7.14,7.14,0,0,1,437.35,326.57Zm-9.81,5.68c0,.31.13.46.39.46.68,0,1.79-.62,3.33-1.87a10.18,10.18,0,0,0,3.08-3.71v-.67a5.34,5.34,0,0,0-.42-2.78.72.72,0,0,0-.57-.25q-1.71,0-3.76,3.56T427.54,332.25Z"/><path d="M455.46,327.13a1.51,1.51,0,0,1,.64,1,8.57,8.57,0,0,1-.43,1.9,22.37,22.37,0,0,0-.56,2.24c-.1.53-.17.95-.23,1.26s-.1.54-.13.72a5.43,5.43,0,0,1-.12.65c-.06.26-.11.47-.14.62s-.09.33-.14.53a1.84,1.84,0,0,1-.2.46,2.39,2.39,0,0,1-.25.33.83.83,0,0,1-.71.29c-.33,0-.73-.33-1.22-1a7,7,0,0,1-1.08-2.4q-3.33,3.39-5.6,3.39a5,5,0,0,1-3.29-1.68,4.71,4.71,0,0,1-1.78-3.35,12,12,0,0,1,1.53-4.78,21.61,21.61,0,0,1,4.16-5.76q2.64-2.64,5.23-2.64a5.55,5.55,0,0,1,3.44,1.73c1.3,1.15,1.94,2.2,1.94,3.15A6.82,6.82,0,0,1,455.46,327.13Zm-10.31,5.58c.94,0,2.2-.64,3.77-1.92a8.12,8.12,0,0,0,2.93-4.86c0-.28.22-.44.6-.49-.07-1.34-.3-2-.67-2a4.8,4.8,0,0,0-3.18,1.83,18.23,18.23,0,0,0-2.87,3.92,7.66,7.66,0,0,0-1.11,3.07.53.53,0,0,0,.09.37C444.76,332.68,444.91,332.71,445.15,332.71Z"/><path d="M462.48,319a2.72,2.72,0,0,1,2.21,1.41,4.8,4.8,0,0,1,1,2.72,33,33,0,0,1-1.22,4.81c-.82,2.77-1.63,5.38-2.43,7.86a1.71,1.71,0,0,1-1.74,1.37,1.85,1.85,0,0,1-1.36-.58,2,2,0,0,1-.59-1.52,28.35,28.35,0,0,1,.91-4.66q.9-3.72,1.38-6.35a31.84,31.84,0,0,1,.88-3.85C461.78,319.35,462.1,319,462.48,319Zm-.53-4.42a2.89,2.89,0,0,1,.83-1.88,2.25,2.25,0,0,1,1.63-1c.53,0,1.16.63,1.9,1.9a6.7,6.7,0,0,1,1.09,2.77,1.61,1.61,0,0,1-.56,1.33,1.87,1.87,0,0,1-1.17.45,5.18,5.18,0,0,1-3.72-3.6Z"/><path d="M480.73,319a4.14,4.14,0,0,1,3.24,1.64,5.32,5.32,0,0,1,1.4,3.51,21.8,21.8,0,0,1-1,6.26,19.53,19.53,0,0,1-2.13,5q-1.15,1.77-2.34,1.77c-.79,0-1.19-.55-1.19-1.66a22.75,22.75,0,0,1,1.17-5.12,19.72,19.72,0,0,0,.89-4.55c0-.92-.12-1.38-.35-1.38a1.31,1.31,0,0,0-.91.46c-.29.31-.54.58-.72.81s-.41.54-.66.9-.46.7-.64,1-.4.67-.67,1.13l-.66,1.13-.63,1.15q-3.3,6.14-5.18,6.14c-.5,0-1.12-.43-1.88-1.29a3.77,3.77,0,0,1-1.13-1.89,6.27,6.27,0,0,1,.51-1.68c.35-.85.59-1.51.75-2a14.27,14.27,0,0,0,.39-1.47c.1-.51.19-1.07.26-1.67s.13-1.07.16-1.4.08-.84.13-1.55a30,30,0,0,1,.55-5.08c.15-.33.32-.5.51-.5a3.86,3.86,0,0,1,2.59,1.11,3,3,0,0,1,1.24,2,25.54,25.54,0,0,1-1.14,6.29,69.49,69.49,0,0,1,4.2-6.59Q479.43,319,480.73,319Z"/><path d="M490.19,334a2.84,2.84,0,0,1,.82-1.87,2.22,2.22,0,0,1,1.63-.94c.54,0,1.17.64,1.89,1.91a6.7,6.7,0,0,1,1.08,2.86,1.53,1.53,0,0,1-.58,1,1.7,1.7,0,0,1-1.15.57,3.66,3.66,0,0,1-2.38-1.31A3.59,3.59,0,0,1,490.19,334Zm3.65-24.44c0-.68.37-1,1.1-1a5.2,5.2,0,0,1,2.92,1.56c1.22,1,1.83,1.79,1.83,2.26A56.18,56.18,0,0,1,498,322q-1.65,7.29-2.85,7.29a2.61,2.61,0,0,1-1.88-1,3.19,3.19,0,0,1-1-2,10.35,10.35,0,0,1,.29-2.28q.35-1.89.78-5.82A81.09,81.09,0,0,0,493.84,309.56Z"/><path class="cls-6" d="M220.07,147.13,234.28,196l41.34-32.63c1.36,15.28.67,41.85,3.73,75.5a40.13,40.13,0,0,1-1.63,15.59L221.34,435.82a33.61,33.61,0,0,1-42,21.74l-47.65-15a33.42,33.42,0,0,1-21.84-41.85L170.9,223.44a40.55,40.55,0,0,1,5.64-10.74C206.63,172,213.49,156.15,220.07,147.13Z"/><path class="cls-7" d="M323,37.66c1.58-5-12.53-13.82-31.5-19.79s-35.63-6.8-37.2-1.85"/><path class="cls-8" d="M311,45,261.05,29.25a4.51,4.51,0,0,1-2.94-5.65l.48-1.51a4.54,4.54,0,0,1,5.67-2.94l49.95,15.73a4.52,4.52,0,0,1,3,5.65L316.68,42A4.55,4.55,0,0,1,311,45Z"/><path class="cls-8" d="M263.87,173.26,234,197.16l-3.56-12.22c-.77-1.48-1.35-5.81-2.37-8.15-.6-1.39-3-10.4-3.55-12.23-1.83-5.59-5.9-12.63-4.74-16.29L257.35,37.69c3.19-6.14,2.72-7.52,6.92-6.2L306,44.62c4.2,1.32,3,2.18,2.08,9L275.31,164.52C274.36,165.43,268.73,169,263.87,173.26Z"/><path class="cls-8" d="M230.23,386,128,353.81a3.1,3.1,0,0,1-2-3.89l28.75-90.55a3.11,3.11,0,0,1,3.91-2l102.19,32.17a3.12,3.12,0,0,1,2,3.9L234.14,384A3.14,3.14,0,0,1,230.23,386Z"/><path class="cls-8" d="M176.52,367.84,128.4,352.69a3.11,3.11,0,0,1-2-3.89l28.75-90.55a3.14,3.14,0,0,1,3.91-2l48.13,15.16a3.11,3.11,0,0,1,2,3.89l-28.75,90.55A3.12,3.12,0,0,1,176.52,367.84Z"/><path class="cls-9" d="M122.88,438.56l13.55,5.5L155,449.9,234.3,196c-7.76-19.72-5.27-27.57-16.87-47.26L198.28,181c-27.53,34.52-26.37,34.88-31.72,51.71L122,361.26c-.36,1.05-.95,2-1.31,3.06-12.08,35.08-20.07,40.07-7.58,65C114,431.05,121.32,437.32,122.88,438.56Z"/><path class="cls-10" d="M179.7,454l-10.14-3.19-18-5.68L233.15,192c17.37-11.8,20.64-18.17,41.33-32.63l1.83,45c5.2,46.05-2.51,54.73-7.86,71.56L231.06,393.65c-.31,1.07-7.55,27.32-7.77,28.4-2.44,11.57-8.55,26.92-27.53,32.05C190.06,455.64,181.64,453.85,179.7,454Z"/><path d="M198.36,225.43h0a12.44,12.44,0,0,0-15.56,8l-3.44,6.94c-.54,1.68-6.38,13.28-2.74,16.41,1.24,1.06,8.5,2.68,10.14,3.19l1.13.36c12.08,6,14.32-.28,16.3-8.44l2.26-11A12.37,12.37,0,0,0,198.36,225.43Z"/><path d="M253.91,241.68h0a12.45,12.45,0,0,0-15.56,8.06l-3.45,6.94c-.53,1.68-6.37,13.28-2.73,16.41,1.23,1.06,8.49,2.67,10.14,3.19l1.12.35c12.08,6,14.33-.28,16.31-8.43l2.26-11A12.38,12.38,0,0,0,253.91,241.68Z"/><path class="cls-11" d="M197.3,248.54l-3.52-1.11a4.06,4.06,0,0,1-2.65-5.08L194.74,231a4.07,4.07,0,0,1,5.09-2.64l3.52,1.11a4,4,0,0,1,2.65,5.07l-3.6,11.36A4.09,4.09,0,0,1,197.3,248.54Z"/><path class="cls-11" d="M252.85,264.79l-3.52-1.11a4.05,4.05,0,0,1-2.65-5.07l3.61-11.36a4.06,4.06,0,0,1,5.09-2.63l3.52,1.1a4.06,4.06,0,0,1,2.65,5.08l-3.61,11.36A4.07,4.07,0,0,1,252.85,264.79Z"/><path class="cls-12" d="M214.11,383.38c-4.68,13.86-28.87,22.36-38,10.88-10.1-12.78-27.5-19.07-24-30.39"/><path class="cls-13" d="M199,397.13c1.67-5.27-6.91-17-13.75-19.14s-16.07-.12-8,13.52c2.81,4.76.86,12.61,7.7,14.76S197.31,402.39,199,397.13Z"/><path class="cls-14" d="M182,382.51c2.58,2.06,11.79,13.58,7,17"/><path d="M175.33,314.84A5.5,5.5,0,0,1,172,318a17.28,17.28,0,0,1-6.19,1.35,17.77,17.77,0,0,1-6.2-.73,4.72,4.72,0,0,1-2.34-2.34c-.77-1.31-1.05-2.28-.85-2.91a1.38,1.38,0,0,1,.51-.77.7.7,0,0,1,.65-.14,4.67,4.67,0,0,1,1.24,1,4.53,4.53,0,0,0,1.47,1,6.24,6.24,0,0,0,1.12.25,5.09,5.09,0,0,1-1.23-1.6,2.32,2.32,0,0,1-.31-1.75c.07-.21.9-1.63,2.49-4.24a35.94,35.94,0,0,0,3.42-6.93,5.87,5.87,0,0,1-.61-1.62,2.68,2.68,0,0,1-.1-1.29c.19-.59.8-.92,1.84-1a10,10,0,0,1,3.64.56,18.78,18.78,0,0,1,6.71,3.39,4.06,4.06,0,0,1,1.49,4.54,5.46,5.46,0,0,1-2.4,2.84,14.91,14.91,0,0,1-4.53,1.93l.29.19a9.15,9.15,0,0,1,2.69,2.49A2.92,2.92,0,0,1,175.33,314.84Zm-3.94-1.38c.14-.42-.35-1-1.46-1.65a13.31,13.31,0,0,0-2.87-1.41c-.44-.14-.81-.61-1.11-1.42q-3.27,5.37-3.73,5.84a28.68,28.68,0,0,0,5.85-.06C170.08,314.54,171.19,314.11,171.39,313.46Zm1.84-11.34a35.1,35.1,0,0,0-4.83-.76,3.68,3.68,0,0,1,.47,2.45,16.79,16.79,0,0,1-1.5,2.89,18.08,18.08,0,0,1,2.14-.53c1-.21,1.66-.36,1.93-.45s.65-.23,1.12-.42a2.61,2.61,0,0,0,1.7-1.63C174.5,302.93,174.15,302.41,173.23,302.12Z"/><path d="M186.74,312.45c1.11.35,2.33.67,3.65,1s2.13.48,2.43.58a1.17,1.17,0,0,1,.66.45.69.69,0,0,1,.09.62c-.29.92-1.39,1.38-3.31,1.37a22.52,22.52,0,0,1-5.88-.82,24,24,0,0,0-2.76,4.42.5.5,0,0,0,.37.71,33,33,0,0,0,7.71,1.39,11.91,11.91,0,0,1,1.59.12c.4.12.51.47.33,1q-.36,1.14-2.37,1.68a14.88,14.88,0,0,1-4.73.37,21.34,21.34,0,0,1-5.15-.93,3.86,3.86,0,0,1-2.27-1.91,3.55,3.55,0,0,1-.37-2.91,42.55,42.55,0,0,1,4-6.82,44.26,44.26,0,0,0,4.53-8.32,1.66,1.66,0,0,1,.09-.38,1.58,1.58,0,0,1,.34-.65,2.29,2.29,0,0,1,2.28-.51,46.52,46.52,0,0,1,5.75,1.55q6.81,2.15,6.34,3.65c-.21.65-.91.92-2.1.83a30.57,30.57,0,0,1-3.28-.52,37.23,37.23,0,0,0-5.77-.71,20.27,20.27,0,0,1-2.32,4.69Z"/><path d="M204.11,317.92c1.12.35,2.33.68,3.65,1s2.13.48,2.44.58a1.19,1.19,0,0,1,.65.45.67.67,0,0,1,.1.62c-.29.92-1.4,1.38-3.31,1.37a22.93,22.93,0,0,1-5.88-.81A23.15,23.15,0,0,0,199,325.5a.5.5,0,0,0,.37.71,32.34,32.34,0,0,0,7.71,1.39,12.11,12.11,0,0,1,1.59.12c.4.13.51.47.33,1-.24.75-1,1.31-2.37,1.67a14.88,14.88,0,0,1-4.73.37,21.26,21.26,0,0,1-5.15-.93,3.93,3.93,0,0,1-2.28-1.9,3.53,3.53,0,0,1-.36-2.92,43,43,0,0,1,4-6.82,44.25,44.25,0,0,0,4.53-8.31,1.44,1.44,0,0,1,.08-.39,1.71,1.71,0,0,1,.35-.65,2.29,2.29,0,0,1,2.28-.51,46.52,46.52,0,0,1,5.75,1.55q6.81,2.15,6.33,3.65c-.2.65-.9.93-2.1.83a30.08,30.08,0,0,1-3.27-.52,37.38,37.38,0,0,0-5.77-.71,20.15,20.15,0,0,1-2.33,4.69Z"/><path d="M227.72,338.62c-.27.86-1,1.1-2.21.73q-2.46-.78-4.35-4.17a16.32,16.32,0,0,1-2.14-6.52l-1.34,1.83c-.24.31-.61.82-1.11,1.51s-.88,1.21-1.13,1.55l-.84,1.05c-.57.69-1,1-1.29.9-.49-.15-.94-.74-1.37-1.76a3.59,3.59,0,0,1-.4-2.28,11,11,0,0,1,1.61-2.57,45.74,45.74,0,0,0,6.08-10.63,4.59,4.59,0,0,1-.65-1.65,3.19,3.19,0,0,1,0-1.57c.19-.62,1.22-1,3.07-1.2a14.85,14.85,0,0,1,6,.74,9.47,9.47,0,0,1,4.87,3.19,4.82,4.82,0,0,1,.9,4.6,6.68,6.68,0,0,1-2.15,3.11,10.53,10.53,0,0,1-3.12,1.85c-1,.35-2,.67-2.84.95s-1.32.5-1.36.64a2.42,2.42,0,0,0,0,1.59,14.28,14.28,0,0,0,.92,2c.42.79.78,1.45,1.1,2l.76,1.36c.2.37.39.74.57,1.12A2.33,2.33,0,0,1,227.72,338.62Zm.69-17.47c.28-.88-.44-1.59-2.17-2.13a8.25,8.25,0,0,0-3.15-.23,4.29,4.29,0,0,1,.09,2.44,18.73,18.73,0,0,1-1.78,3.87c.28-.1.81-.26,1.58-.49s1.36-.42,1.79-.58a14,14,0,0,0,1.51-.65A3.77,3.77,0,0,0,228.41,321.15Z"/><path class="cls-15" d="M266.86,245.76c2.46-7.74,3.76-23.49-5.26-26.33S243.42,229.86,241,237.61"/><path class="cls-15" d="M211.67,228.39c2.46-7.75,3.76-23.5-5.26-26.34s-18.18,10.43-20.64,18.18"/><g class="cls-16"><path class="cls-17" d="M705,300.68,760,328c28.81,13.64,64.61,7.14,56.18,8.36l-90,98.07a14.23,14.23,0,0,1-18.89,6.69l-49.08-23.24a14.13,14.13,0,0,1-6.71-18.81l27.1-125.25C680.48,261.69,682.58,287.44,705,300.68Z"/></g><path class="cls-18" d="M684.94,430.43l-27.5-13c-7.9-2.55-10.3-12.27-6.79-22a75.07,75.07,0,0,0,2.6-9.42l13.19-60.61c3.09-6.46,11.07-57.3,13-55.07,1.26,1.45,17.56,25.46,19.7,26.3l37.39,20.31"/><path class="cls-19" d="M671,394l14.46,12c4.9,4.06,8.61,5.43,17,8l18.14,3.46c7.94,1.16,33-13,27.34-6.59-2.34,2.65-17.56,20.34-20.91,24.62h0a13.65,13.65,0,0,1-18.1,6.41l-50.14-23.74c-6.75-3.2-10.7-6.37-9.33-17.45l1-4.75a57.8,57.8,0,0,1,2.31-8.22c1.91-6.46,4.79-20.89,5.65-16.67C659.52,376.82,660.69,382.59,671,394Z"/><path class="cls-19" d="M745.8,408.69l-7.38,4.44c1,1,9.54-1.2,11.94-4.79L810,343.86c1.22-1.32,7.71-7.8,6.19-7.49l-4.48-1.1c-1-1-1.29,2.44-2.4,3.59"/><path class="cls-19" d="M659,369.42l1,8.75c-1.6-.29-6.94,15.09-3.72-12.78l17.23-86.19c.3-1.59.36-11.71,2.43-10.57l5.34,2.52c1.59.3-1.49,2.94-1.78,4.53"/><path class="cls-19" d="M816.18,336.37c-29.56,1.64-38.54.61-75.38-17.46-34.06-16.7-49.58-22.17-64.94-50.28-3.43-6.28,39.57,9.61,76.1,26.91S823.34,336,816.18,336.37Z"/><path d="M699.63,324.17h0a8.33,8.33,0,0,1,4,11.09L692.5,358.49a25.38,25.38,0,0,0-.94,2.37c-1.39,3.95-3.5.75-8.2-2.61h0c-4.15-2-11.23-1-9.08-5.53l14.22-24.61A8.4,8.4,0,0,1,699.63,324.17Z"/><path d="M747.64,348.21h0a8.32,8.32,0,0,1,4,11.09l-11.09,23.23a22,22,0,0,0-.94,2.37c-1.39,4-3.5.75-8.2-2.62h0c-4.15-2-11.23-1-9.08-5.53l14.22-24.6A8.39,8.39,0,0,1,747.64,348.21Z"/><ellipse class="cls-11" cx="684.85" cy="348.43" rx="7.06" ry="2.36" transform="translate(75.15 816.08) rotate(-64.45)"/><ellipse class="cls-11" cx="731.28" cy="371.72" rx="7.06" ry="2.36" transform="translate(80.55 871.22) rotate(-64.45)"/><path class="cls-20" d="M689.9,389.9c-4.11,5.87-12.85,4.52-15.81.24s-2.43-14.08,8.64-15.35"/><path class="cls-21" d="M693.22,387.36a3.1,3.1,0,1,1-1.12,6.1"/><path class="cls-21" d="M679.85,372.31a2.66,2.66,0,0,1,5,1.7"/><polygon class="cls-11" points="681.55 383.49 680.75 381.67 685.06 379.78 685.86 381.61 681.55 383.49"/><polygon class="cls-11" points="683.88 385.03 683.09 383.57 686.02 382.01 686.81 383.47 683.88 385.03"/><ellipse class="cls-5" cx="679.95" cy="388.82" rx="3.28" ry="5.9" transform="translate(38.18 837.88) rotate(-64.74)"/><path class="cls-22" d="M691,323.32c2.71-5.64,9.75-8.86,14.12-7.65,3.36.94,3.71,4.83,1.27,11"/><path class="cls-22" d="M754.81,352.65c2.09-5.89-.6-13.13-4.55-15.34-3-1.71-6,.8-8.73,6.9"/><path class="cls-6" d="M0,147.06,38.39,180.6l17.14-49.68c9.42,12.13,23.23,34.88,44,61.57a40.31,40.31,0,0,1,7.08,14l50.72,183a33.43,33.43,0,0,1-23.61,40.88l-48.26,13a33.6,33.6,0,0,1-41.05-23.51L-.13,237.73A39.86,39.86,0,0,1-1.2,225.66C2.08,175.2-.71,158.19,0,147.06Z"/><path class="cls-7" d="M27.36-.42c-1.36-5-18-4.91-37.25.25S-43.57,13.24-42.22,18.26"/><path class="cls-8" d="M21.2,12.2-29.38,25.78a4.54,4.54,0,0,1-5.54-3.17l-.42-1.54a4.51,4.51,0,0,1,3.19-5.51L18.43,2A4.54,4.54,0,0,1,24,5.15l.42,1.53A4.52,4.52,0,0,1,21.2,12.2Z"/><path class="cls-8" d="M51,145.54,38.75,181.72l-9.61-8.38c-1.45-.83-4.29-4.17-6.41-5.59-1.26-.85-8.12-7.17-9.61-8.39C8.55,155.64,1.31,151.89.3,148.18L-27.93,34.88c-.64-6.88-1.78-7.79,2.48-8.94l42.2-11.33c4.26-1.14,3.73.22,6.65,6.48L55.88,132C55.57,133.31,52.74,139.3,51,145.54Z"/><path class="cls-8" d="M137.85,342.75,34.37,370.54a3.13,3.13,0,0,1-3.82-2.19L5.73,276.66a3.12,3.12,0,0,1,2.19-3.81L111.4,245.07a3.12,3.12,0,0,1,3.82,2.18L140.05,339A3.11,3.11,0,0,1,137.85,342.75Z"/><path class="cls-8" d="M82.8,356.32,34.06,369.4a3.11,3.11,0,0,1-3.81-2.18L5.42,275.52a3.1,3.1,0,0,1,2.19-3.8l48.74-13.09a3.13,3.13,0,0,1,3.82,2.19L85,352.51A3.12,3.12,0,0,1,82.8,356.32Z"/><path class="cls-9" d="M75.92,444.67,90.31,442l18.78-5L38.41,180.59C21.19,168.16,19,160.21-1.39,149.85l1.32,37.42c-4.5,43.86-3.32,43.54,1.29,60.58L33.29,380.07c.26,1.08.29,2.21.55,3.28,8.82,36,4.8,44.53,28.8,58.8C64.34,443.15,73.93,444.47,75.92,444.67Z"/><path class="cls-10" d="M132.12,427.14l-10.27,2.76-18.25,4.9-68.36-257c8.24-19.27,7.53-26.39,17.13-49.68L78.27,165c29.32,36,27.53,47.43,32.14,64.47L142.7,348.76c.32,1.06,8.44,27.05,8.83,28.09,4.22,11,7.38,27.26-5.81,41.77C141.75,423,133.68,426,132.12,427.14Z"/><path d="M24.07,224.65h0a12.4,12.4,0,0,0-8.75,15.15l.86,7.69c.46,1.7,1.82,14.6,6.59,15.29,1.61.23,8.6-2.31,10.26-2.76l1.14-.31c13.44-1.4,11.91-7.93,9.17-15.86l-4.07-10.49A12.45,12.45,0,0,0,24.07,224.65Z"/><path d="M79.65,208.51h0a12.39,12.39,0,0,0-8.75,15.14l.86,7.69c.46,1.71,1.82,14.61,6.59,15.29,1.61.23,8.6-2.31,10.26-2.75l1.14-.31c13.44-1.4,11.91-7.93,9.17-15.86l-4.07-10.49A12.43,12.43,0,0,0,79.65,208.51Z"/><path class="cls-11" d="M35.69,244.68l-3.57,1a4.08,4.08,0,0,1-5-2.85L24,231.29a4.06,4.06,0,0,1,2.86-5l3.57-1a4.08,4.08,0,0,1,5,2.85l3.11,11.5A4,4,0,0,1,35.69,244.68Z"/><path class="cls-11" d="M91.27,228.54l-3.57,1a4.09,4.09,0,0,1-5-2.85l-3.11-11.5a4.06,4.06,0,0,1,2.86-5l3.57-1a4.09,4.09,0,0,1,5,2.85l3.11,11.5A4.06,4.06,0,0,1,91.27,228.54Z"/><path class="cls-12" d="M122.87,349.21c3.56,14.18-12.2,34.34-26.07,29.54-15.43-5.34-33.48-1.29-36.68-12.69"/><path class="cls-13" d="M117.57,368.91c-1.44-5.33-15-10.59-21.94-8.73s-13.59,8.52.58,15.68c5,2.5,7.55,10.16,14.48,8.3S119,374.24,117.57,368.91Z"/><path class="cls-14" d="M95.31,365.75c3.3.35,17.28,5.11,15.09,10.57"/><path d="M53.09,312.32A5.53,5.53,0,0,1,52,316.79a17.11,17.11,0,0,1-4.48,4.46A18,18,0,0,1,41.85,324a4.73,4.73,0,0,1-3.24-.72c-1.35-.69-2.11-1.36-2.29-2a1.54,1.54,0,0,1,0-.93.73.73,0,0,1,.47-.47,5.39,5.39,0,0,1,1.57.15,4.58,4.58,0,0,0,1.8.08,6.5,6.5,0,0,0,1.07-.39,5,5,0,0,1-1.89-.69,2.33,2.33,0,0,1-1.22-1.31c-.05-.21-.12-1.85-.19-4.91a36.24,36.24,0,0,0-.88-7.66,6.32,6.32,0,0,1-1.4-1.05,2.83,2.83,0,0,1-.77-1c-.16-.6.18-1.2,1-1.81a10.16,10.16,0,0,1,3.37-1.48,18.9,18.9,0,0,1,7.49-.75,4.06,4.06,0,0,1,3.71,3,5.42,5.42,0,0,1-.47,3.68,15.1,15.1,0,0,1-2.78,4.06h.35a9.47,9.47,0,0,1,3.62.65A3,3,0,0,1,53.09,312.32Zm-8.66-9.58A35.07,35.07,0,0,0,40,304.69a3.73,3.73,0,0,1,1.72,1.81,17.09,17.09,0,0,1,.3,3.24,19.1,19.1,0,0,1,1.51-1.6c.74-.72,1.21-1.19,1.39-1.41s.42-.54.71-1a2.6,2.6,0,0,0,.55-2.28Q45.84,302.37,44.43,302.74ZM49,313.27q-.18-.63-2.13-.6a13.27,13.27,0,0,0-3.18.36,2.1,2.1,0,0,1-1.7-.6c.1,4.18.11,6.48,0,6.92a28.5,28.5,0,0,0,4.89-3.2Q49.3,314.26,49,313.27Z"/><path d="M61.4,304.18c1.13-.3,2.33-.68,3.6-1.15s2-.74,2.36-.82a1.23,1.23,0,0,1,.79,0,.75.75,0,0,1,.42.47c.25.94-.43,1.91-2,2.94a22.33,22.33,0,0,1-5.39,2.47,23.57,23.57,0,0,0,.07,5.2.5.5,0,0,0,.69.4,32.23,32.23,0,0,0,7.25-3,11.56,11.56,0,0,1,1.4-.75q.61-.17.84.69c.21.76-.15,1.66-1.09,2.68a14.49,14.49,0,0,1-3.78,2.86,21.46,21.46,0,0,1-4.84,2,3.91,3.91,0,0,1-3-.38,3.58,3.58,0,0,1-1.88-2.26,42.69,42.69,0,0,1-.36-7.87,44,44,0,0,0-.69-9.44,1.22,1.22,0,0,1-.14-.37,1.61,1.61,0,0,1-.06-.73c.07-.66.62-1.21,1.64-1.66a50.45,50.45,0,0,1,5.69-1.78c4.6-1.23,7-1.34,7.31-.32.18.65-.26,1.26-1.32,1.82-.72.37-1.73.82-3,1.33a36.88,36.88,0,0,0-5.25,2.5,19.65,19.65,0,0,1,.59,5.2Z"/><path d="M79,299.46c1.13-.3,2.32-.69,3.59-1.15s2.06-.74,2.37-.83a1.17,1.17,0,0,1,.79,0,.72.72,0,0,1,.42.47c.25.93-.43,1.91-2,2.94a23.09,23.09,0,0,1-5.39,2.47,22.92,22.92,0,0,0,.07,5.2.5.5,0,0,0,.69.39,32.16,32.16,0,0,0,7.24-3,12.11,12.11,0,0,1,1.41-.75c.4-.11.68.12.84.7.21.76-.16,1.65-1.09,2.68a14.7,14.7,0,0,1-3.78,2.85,21.23,21.23,0,0,1-4.84,2,4,4,0,0,1-3-.39,3.53,3.53,0,0,1-1.88-2.26,42.17,42.17,0,0,1-.37-7.86,42.66,42.66,0,0,0-.69-9.44,2,2,0,0,1-.13-.37,1.66,1.66,0,0,1-.06-.74c.07-.65.62-1.2,1.64-1.65A46.18,46.18,0,0,1,80.51,289q6.9-1.86,7.32-.33c.17.66-.27,1.27-1.33,1.82a31.46,31.46,0,0,1-3,1.33,38,38,0,0,0-5.25,2.5,20.13,20.13,0,0,1,.59,5.2Z"/><path d="M110.09,304.21c.23.87-.25,1.47-1.47,1.79q-2.49.67-5.92-1.17a16.33,16.33,0,0,1-5.33-4.33c-.07,1.11-.12,1.86-.14,2.25s-.07,1-.12,1.87-.08,1.49-.11,1.91-.08.87-.14,1.33c-.1.9-.3,1.38-.6,1.46a2.87,2.87,0,0,1-2.1-.75,3.69,3.69,0,0,1-1.58-1.71,10.61,10.61,0,0,1,0-3,46.08,46.08,0,0,0-.63-12.22,4.47,4.47,0,0,1-1.45-1,3.29,3.29,0,0,1-.87-1.3c-.17-.64.47-1.53,1.93-2.67A15.12,15.12,0,0,1,97,284a9.49,9.49,0,0,1,5.82.08,4.83,4.83,0,0,1,3.25,3.39,6.49,6.49,0,0,1-.13,3.77,10.07,10.07,0,0,1-1.62,3.23c-.67.85-1.3,1.63-1.87,2.33s-.84,1.13-.8,1.27a2.37,2.37,0,0,0,.9,1.31,14.24,14.24,0,0,0,1.87,1.21c.78.44,1.45.8,2,1.09l1.38.74,1.08.63Q109.94,303.67,110.09,304.21Zm-8.88-15.08c-.24-.89-1.24-1.1-3-.63A8.38,8.38,0,0,0,95.45,290a4.32,4.32,0,0,1,1.4,2,19.16,19.16,0,0,1,.59,4.21L98.5,295c.53-.6.93-1.08,1.21-1.44s.58-.82.91-1.36A3.77,3.77,0,0,0,101.21,289.13Z"/><path class="cls-15" d="M92.77,205c-2.13-7.84-9.57-21.8-18.7-19.35S64.41,204.19,66.53,212"/><path class="cls-15" d="M36.88,220c-2.13-7.85-9.57-21.8-18.7-19.35S8.52,219.2,10.64,227"/></g></svg>
