<svg xmlns="http://www.w3.org/2000/svg" width="75" height="280" viewBox="0 0 75 280"><defs><style>.cls-1,.cls-6{fill:#086cb6;}.cls-1,.cls-2,.cls-3,.cls-4{opacity:0.6;}.cls-2{fill:#0c3f96;}.cls-3,.cls-5{fill:#09448b;}.cls-4{fill:#14bddc;}.cls-6{opacity:0.8;}.cls-7{fill:#6ad0df;opacity:0.3;}.cls-8{fill:#050505;}.cls-9{fill:#fff;}</style></defs><title>water</title><g id="Layer_6" data-name="Layer 6"><path class="cls-1" d="M36.39,41.21v.36c-21.66.19-34,14.38-34,37.78l-.72,70.94v86.94c-8.11,34.86,15,42.07,36.09,42.77v-.22c21.33.57,37.5-3.85,35.22-42.24l.72-56.14.4-30.8L75,79.67C75.3,56.12,60.76,41.63,36.39,41.21Z"/><path class="cls-2" d="M18.4,276.7h0c21.39,3.36,20.68,10,19.86-21.83V60c-.67-9.18,2.58-17.43-3.82-18.47-2.56-.42-5.9,1.59-11.86,2.79a28,28,0,0,0-4.39,1.21l-.55.2c-4.68,3-6.42,6.31-8.86,10.07-.88,1.36-1.53,3.31-2.32,4.72C3.89,65.2,3,68.29,2.26,73.93l-.9,153.85c1,6.29.47,12.56-.6,18.73l-.06.37a24.83,24.83,0,0,0,2.8,16.51C7.48,270.29,12.47,275.86,18.4,276.7Z"/><rect class="cls-3" x="2.99" y="94.46" width="35.49" height="47.03" rx="0.41"/><rect class="cls-4" x="38.48" y="94.46" width="36.22" height="47.03" rx="0.41"/><rect class="cls-5" x="13.65" width="46.68" height="31.96" rx="14.11"/><rect class="cls-6" x="44.53" width="4.31" height="31.96" rx="2.15"/><rect class="cls-6" x="53.87" y="1.68" width="2.87" height="27.75" rx="1.44"/><path class="cls-7" d="M51.35,48.78H24.06c-2.17,0-18.31,6.73-11.85,1.68l7.9-13.88C20.11,34,21.89,32,24.06,32H51.35c2.18,0,3.95,2.08,3.95,4.62L65.36,52.14C65.36,54.69,53.53,48.78,51.35,48.78Z"/><polygon class="cls-8" points="30.89 82.76 12.28 71.81 12.92 70.3 31.53 81.26 30.89 82.76"/><polygon points="62.17 70.32 44.13 82.52 43.41 81.06 61.45 68.87 62.17 70.32"/><path d="M58.76,72.26,46.65,80.05c0,6.75,5.6,11.1,11.1,8.8S62.79,77.85,58.76,72.26Z"/><path d="M17.94,90.64c5.57,2.06,11-2.52,10.82-9.27L16.41,74.11C12.56,79.86,12.38,88.58,17.94,90.64Z"/><ellipse class="cls-9" cx="52.07" cy="82" rx="1.08" ry="3.78"/><ellipse class="cls-9" cx="23.34" cy="82.84" rx="1.08" ry="3.78"/><polygon points="18.82 148.94 17.06 145.24 15.3 141.53 18.95 141.58 22.59 141.63 20.71 145.29 18.82 148.94"/><polygon points="26.08 148.96 24.27 145.29 22.46 141.61 26.1 141.6 29.75 141.58 27.91 145.27 26.08 148.96"/><polygon points="33.19 148.94 31.43 145.24 29.66 141.53 33.31 141.58 36.95 141.63 35.07 145.29 33.19 148.94"/><polygon points="40.44 148.96 38.63 145.29 36.82 141.61 40.47 141.6 44.11 141.58 42.28 145.27 40.44 148.96"/><polygon points="47.55 148.94 45.79 145.24 44.03 141.53 47.67 141.58 51.32 141.63 49.44 145.29 47.55 148.94"/><polygon points="54.81 148.96 53 145.29 51.19 141.61 54.83 141.6 58.48 141.58 56.64 145.27 54.81 148.96"/><polygon points="18.86 153.06 17.06 156.74 15.26 160.42 18.91 160.42 22.55 160.43 20.71 156.74 18.86 153.06"/><polygon points="26.12 153.15 24.27 156.8 22.42 160.44 26.07 160.51 29.71 160.58 27.91 156.86 26.12 153.15"/><polygon points="33.23 153.27 31.43 156.95 29.63 160.63 33.27 160.63 36.92 160.63 35.07 156.95 33.23 153.27"/><polygon points="40.48 153.36 38.63 157 36.78 160.65 40.43 160.72 44.07 160.79 42.28 157.07 40.48 153.36"/><polygon points="47.59 153.48 45.79 157.16 43.99 160.84 47.63 160.84 51.28 160.84 49.44 157.16 47.59 153.48"/><polygon points="54.84 153.57 52.99 157.21 51.15 160.86 54.79 160.93 58.44 161 56.64 157.28 54.84 153.57"/><path d="M15.41,121.66c-.26,0-.65-.25-1.15-.74a2.12,2.12,0,0,1-.76-1.47c0-1.15.14-3.12.43-5.94s.42-5.51.42-8.1c0-.66.17-1,.52-1a2.86,2.86,0,0,1,1.74,1,2.62,2.62,0,0,1,1,1.88c0,.22-.22,1.56-.67,4a47.8,47.8,0,0,0-.76,5.92,14.32,14.32,0,0,1,2.28-3.82q1.32-1.53,2.16-1.53c.4,0,.67,1,.79,3.13a12.29,12.29,0,0,0,.32,2.16c.16.65.38,1,.66,1,.53,0,1-.66,1.4-2a13.49,13.49,0,0,0,.61-4.06q0-4.55-2.13-4.55a1.46,1.46,0,0,1-1.15-.75,2.4,2.4,0,0,1-.54-1.34c0-.71.37-1.06,1.11-1.06a5,5,0,0,1,2.6.65,4.49,4.49,0,0,1,1.74,1.77,11.2,11.2,0,0,1,1.25,5.51,14.84,14.84,0,0,1-.66,4.37,10.36,10.36,0,0,1-1.84,3.57,3.32,3.32,0,0,1-2.51,1.41c-1.63,0-2.57-1.62-2.79-4.87l-.63,1Q16.67,121.66,15.41,121.66Z"/><path d="M37.17,115a1.06,1.06,0,0,1,.36.68,6.72,6.72,0,0,1-.24,1.27c-.16.65-.26,1.14-.32,1.5s-.1.63-.13.83-.06.37-.07.49,0,.26-.07.43-.06.31-.08.41,0,.22-.08.36a1.12,1.12,0,0,1-.11.3l-.14.23a.46.46,0,0,1-.4.19c-.19,0-.42-.22-.7-.66a5,5,0,0,1-.61-1.6c-1.26,1.5-2.32,2.26-3.18,2.26a2.74,2.74,0,0,1-1.87-1.12,3.37,3.37,0,0,1-1-2.24,9,9,0,0,1,.86-3.19,14.73,14.73,0,0,1,2.36-3.84,4.08,4.08,0,0,1,3-1.76,3,3,0,0,1,2,1.15,3.24,3.24,0,0,1,1.11,2.11A5.1,5.1,0,0,1,37.17,115Zm-5.85,3.72a3.7,3.7,0,0,0,2.14-1.28,5.63,5.63,0,0,0,1.66-3.24.35.35,0,0,1,.34-.33c0-.9-.16-1.34-.38-1.34-.53,0-1.13.4-1.8,1.22a12.77,12.77,0,0,0-1.63,2.61,5.75,5.75,0,0,0-.63,2,.44.44,0,0,0,.05.25S31.19,118.72,31.32,118.72Z"/><path d="M43.62,114.12c-.21.76-.46,1.71-.77,2.86s-.45,1.75-.45,1.82.11.11.33.11a6.1,6.1,0,0,0,1.58-.53,6.55,6.55,0,0,1,1.47-.53c.33,0,.5.27.5.8s-.45,1.17-1.34,1.92a4.4,4.4,0,0,1-2.82,1.12,2.49,2.49,0,0,1-1.53-.83,2.33,2.33,0,0,1-.88-1.67,15,15,0,0,1,.61-3c.41-1.51.69-2.55.83-3.12a4.23,4.23,0,0,1-1.18.26c-.27,0-.55-.22-.85-.65a2.23,2.23,0,0,1-.44-1.23c0-.51,1-.93,3.12-1.28a22.93,22.93,0,0,0,.38-3.79c0-.47.2-.7.6-.7a2.24,2.24,0,0,1,1.34.74,2.07,2.07,0,0,1,.82,1.46,10.52,10.52,0,0,1-.27,2c.65,0,1.14,0,1.47,0,1,0,1.51.27,1.51.8,0,.35-.29.65-.87.89a20.15,20.15,0,0,1-2.69.79C44,112.76,43.83,113.35,43.62,114.12Z"/><path d="M55.62,116a4.79,4.79,0,0,1-2.74.92,9.19,9.19,0,0,1-2.31-.24,4.72,4.72,0,0,0-.19,1.28,1.67,1.67,0,0,0,.19.9q.18.27.9.27a8.79,8.79,0,0,0,2.58-.33l1.12-.33c.55,0,.83.22.83.64,0,.61-.44,1.19-1.3,1.74a5.5,5.5,0,0,1-3,.83A3.35,3.35,0,0,1,49,120.44a4.49,4.49,0,0,1-1-3,8.59,8.59,0,0,1,.86-3.57A10.33,10.33,0,0,1,51,110.79a3.71,3.71,0,0,1,2.56-1.25A3,3,0,0,1,55.87,111,4.9,4.9,0,0,1,57,113.94,2.56,2.56,0,0,1,55.62,116Zm-1.41-3.13a1.18,1.18,0,0,0-.8-.45c-.25,0-.57.21-.95.63a7.29,7.29,0,0,0-1.11,1.61l.52,0c1.84,0,2.76-.37,2.76-1.13A1.28,1.28,0,0,0,54.21,112.88Z"/><path d="M58.87,113.51l-.12-2.66c0-.88.23-1.31.7-1.31a1.17,1.17,0,0,1,.8.35,2.17,2.17,0,0,1,.59,1.1,6.21,6.21,0,0,1,1.5-1.14,3.11,3.11,0,0,1,1.44-.43c1,0,1.47.27,1.47.82a1.29,1.29,0,0,1-.13.63l-.21.29a1.3,1.3,0,0,1-.24.25l-.25.22-.66.49a6.69,6.69,0,0,0-1.55,1.59,6.93,6.93,0,0,0-1,2.58,26.39,26.39,0,0,1-1.05,4c-.34.89-.73,1.33-1.15,1.33a1,1,0,0,1-.94-.7,3.31,3.31,0,0,1-.32-1.33,7.17,7.17,0,0,1,.4-1.88,16.41,16.41,0,0,0,.54-2.15A13,13,0,0,0,58.87,113.51Z"/></g></svg>
